<svg width="25" height="25" viewBox="0 0 25 25" fill="none" xmlns="http://www.w3.org/2000/svg">
<path d="M12.9688 0.34375C9.78978 0.382103 6.75182 1.66199 4.50378 3.91003C2.25574 6.15807 0.975853 9.19603 0.9375 12.375C0.975853 15.554 2.25574 18.5919 4.50378 20.84C6.75182 23.088 9.78978 24.3679 12.9688 24.4062C16.1477 24.3679 19.1857 23.088 21.4337 20.84C23.6818 18.5919 24.9616 15.554 25 12.375C24.9616 9.19603 23.6818 6.15807 21.4337 3.91003C19.1857 1.66199 16.1477 0.382103 12.9688 0.34375ZM19.8438 13.2344H13.8281V19.25H12.1094V13.2344H6.09375V11.5156H12.1094V5.5H13.8281V11.5156H19.8438V13.2344Z" fill="#0D6464"/>
</svg>
