<svg width="18" height="22" viewBox="0 0 18 22" fill="none" xmlns="http://www.w3.org/2000/svg">
<path d="M14.8917 21.0965C13.7484 22.2049 12.5 22.0299 11.2984 21.5049C10.0267 20.9682 8.86003 20.9449 7.51836 21.5049C5.83836 22.2282 4.9517 22.0182 3.94836 21.0965C-1.74497 15.2282 -0.904971 6.29152 5.55836 5.96486C7.13336 6.04652 8.23003 6.82819 9.1517 6.89819C10.5284 6.61819 11.8467 5.81319 13.3167 5.91819C15.0784 6.05819 16.4084 6.75819 17.2834 8.01819C13.6434 10.1999 14.5067 14.9949 17.8434 16.3365C17.1784 18.0865 16.315 19.8249 14.88 21.1082L14.8917 21.0965ZM9.03503 5.89486C8.86003 3.29319 10.9717 1.14652 13.3984 0.936523C13.7367 3.94652 10.6684 6.18652 9.03503 5.89486Z" fill="white"/>
</svg>
