<svg width="12" height="20" viewBox="0 0 12 20" fill="none" xmlns="http://www.w3.org/2000/svg">
<path d="M0.296382 1.68206C0.201708 1.58688 0.127695 1.47492 0.0785668 1.35257C0.0294389 1.23022 0.00615863 1.09987 0.0100564 0.968974C0.0139542 0.838076 0.0449534 0.709189 0.101283 0.589672C0.157614 0.470155 0.238171 0.362349 0.338358 0.272408C0.438545 0.182468 0.556398 0.112155 0.685189 0.0654831C0.81398 0.0188116 0.951185 -0.00330415 1.08897 0.000398771C1.22676 0.00410169 1.36243 0.0335506 1.48824 0.0870642C1.61405 0.140578 1.72753 0.217108 1.8222 0.312285L10.742 9.28459C10.9262 9.46969 11.0289 9.71476 11.0289 9.96948C11.0289 10.2242 10.9262 10.4693 10.742 10.6544L1.8222 19.6277C1.72815 19.7249 1.6147 19.8035 1.48843 19.8587C1.36216 19.914 1.22559 19.9449 1.08665 19.9495C0.94772 19.9542 0.80919 19.9326 0.67911 19.886C0.549031 19.8394 0.429995 19.7688 0.328917 19.6781C0.227839 19.5874 0.146733 19.4785 0.0903109 19.3578C0.033889 19.2371 0.00327574 19.107 0.000248794 18.975C-0.00277815 18.8429 0.0218414 18.7116 0.0726782 18.5887C0.123515 18.4658 0.199555 18.3537 0.296382 18.2589L5.59965 12.9237C7.22426 11.2893 7.2241 8.64979 5.5993 7.0156L0.296382 1.68206Z" fill="#1E1E1C"/>
</svg>
