<svg width="21" height="12" viewBox="0 0 21 12" fill="none" xmlns="http://www.w3.org/2000/svg">
<path d="M18.8062 0.757564C18.9014 0.66289 19.0134 0.588876 19.1357 0.539748C19.2581 0.490621 19.3884 0.46734 19.5193 0.471238C19.6502 0.475136 19.7791 0.506135 19.8986 0.562465C20.0181 0.618795 20.1259 0.699353 20.2159 0.79954C20.3058 0.899726 20.3761 1.01758 20.4228 1.14637C20.4695 1.27516 20.4916 1.41237 20.4879 1.55015C20.4842 1.68794 20.4547 1.82361 20.4012 1.94942C20.3477 2.07523 20.2712 2.18871 20.176 2.28338L11.2037 11.2032C11.0186 11.3874 10.7735 11.4901 10.5188 11.4901C10.2641 11.4901 10.019 11.3874 9.83391 11.2032L0.860607 2.28338C0.763346 2.18933 0.684807 2.07588 0.629553 1.94961C0.574299 1.82334 0.54343 1.68677 0.538742 1.54784C0.534052 1.4089 0.555635 1.27037 0.602238 1.14029C0.64884 1.01021 0.71953 0.891176 0.810205 0.790098C0.900879 0.68902 1.00973 0.607914 1.13043 0.551493C1.25114 0.495071 1.38129 0.464457 1.51333 0.46143C1.64537 0.458403 1.77666 0.483023 1.89959 0.53386C2.02251 0.584697 2.13461 0.660737 2.22938 0.757564L7.56457 6.06083C9.19895 7.68544 11.8385 7.68528 13.4727 6.06048L18.8062 0.757564Z" fill="#333333"/>
</svg>
