<svg width="12" height="20" viewBox="0 0 12 20" fill="none" xmlns="http://www.w3.org/2000/svg">
<path d="M10.731 18.2681C10.8256 18.3633 10.8996 18.4753 10.9488 18.5976C10.9979 18.72 11.0212 18.8503 11.0173 18.9812C11.0134 19.1121 10.9824 19.241 10.9261 19.3605C10.8697 19.48 10.7892 19.5878 10.689 19.6778C10.5888 19.7677 10.4709 19.838 10.3422 19.8847C10.2134 19.9314 10.0762 19.9535 9.93837 19.9498C9.80058 19.9461 9.66491 19.9166 9.53911 19.8631C9.4133 19.8096 9.29982 19.7331 9.20514 19.6379L0.285304 10.6656C0.101098 10.4805 -0.00154114 10.2354 -0.00154114 9.98071C-0.00154114 9.72599 0.101098 9.48093 0.285304 9.29583L9.20514 0.322521C9.29919 0.22526 9.41265 0.146721 9.53892 0.0914669C9.66519 0.0362129 9.80176 0.00534439 9.94069 0.000656128C10.0796 -0.00403404 10.2182 0.0175495 10.3482 0.0641518C10.4783 0.110754 10.5973 0.181444 10.6984 0.27212C10.7995 0.362793 10.8806 0.471645 10.937 0.592348C10.9935 0.713053 11.0241 0.843204 11.0271 0.975245C11.0301 1.10728 11.0055 1.23858 10.9547 1.3615C10.9038 1.48442 10.8278 1.59653 10.731 1.6913L5.42769 7.02648C3.80309 8.66086 3.80324 11.3004 5.42804 12.9346L10.731 18.2681Z" fill="#333333"/>
</svg>
