<svg width="322" height="7" viewBox="0 0 322 7" fill="none" xmlns="http://www.w3.org/2000/svg">
<rect x="0.5" width="319" height="7" rx="3.5" fill="#606060"/>
<g clip-path="url(#clip0_825_27632)">
<rect x="198.5" width="31" height="7" rx="3.5" fill="#FCC21B"/>
<mask id="mask0_825_27632" style="mask-type:luminance" maskUnits="userSpaceOnUse" x="69" y="-75" width="330" height="133">
<path d="M398.405 -75H69.6836V58H398.405V-75Z" fill="white"/>
</mask>
<g mask="url(#mask0_825_27632)">
<path d="M198.66 3.37451C198.66 3.68946 198.78 3.9915 198.994 4.2142C199.209 4.4369 199.499 4.56201 199.802 4.56201C200.104 4.56201 200.395 4.4369 200.609 4.2142C200.823 3.9915 200.943 3.68946 200.943 3.37451C200.943 3.05957 200.823 2.75752 200.609 2.53482C200.395 2.31212 200.104 2.18701 199.802 2.18701C199.499 2.18701 199.209 2.31212 198.994 2.53482C198.78 2.75752 198.66 3.05957 198.66 3.37451V3.37451Z" stroke="#0D6464" stroke-width="0.269444"/>
<path d="M212.812 3.37461C212.812 3.56358 212.885 3.7448 213.013 3.87842C213.142 4.01204 213.316 4.08711 213.497 4.08711C213.679 4.08711 213.853 4.01204 213.982 3.87842C214.11 3.7448 214.182 3.56358 214.182 3.37461C214.182 3.18564 214.11 3.00442 213.982 2.8708C213.853 2.73718 213.679 2.66211 213.497 2.66211C213.316 2.66211 213.142 2.73718 213.013 2.8708C212.885 3.00442 212.812 3.18564 212.812 3.37461V3.37461Z" stroke="#0D6464" stroke-width="0.269444"/>
<path d="M228.564 1.94971L225.824 4.79971L228.564 1.94971Z" stroke="#0D6464" stroke-width="0.269444"/>
</g>
</g>
<g clip-path="url(#clip1_825_27632)">
<rect x="230.5" width="91" height="7" rx="3.5" fill="#D1701C"/>
<g clip-path="url(#clip2_825_27632)">
<mask id="mask1_825_27632" style="mask-type:luminance" maskUnits="userSpaceOnUse" x="105" y="-75" width="330" height="133">
<path d="M434.405 -75H105.684V58H434.405V-75Z" fill="white"/>
</mask>
<g mask="url(#mask1_825_27632)">
<path d="M234.66 3.37451C234.66 3.68946 234.78 3.9915 234.994 4.2142C235.209 4.4369 235.499 4.56201 235.802 4.56201C236.104 4.56201 236.395 4.4369 236.609 4.2142C236.823 3.9915 236.943 3.68946 236.943 3.37451C236.943 3.05957 236.823 2.75752 236.609 2.53482C236.395 2.31212 236.104 2.18701 235.802 2.18701C235.499 2.18701 235.209 2.31212 234.994 2.53482C234.78 2.75752 234.66 3.05957 234.66 3.37451V3.37451Z" stroke="white" stroke-width="0.269444"/>
<path d="M248.812 3.37461C248.812 3.56358 248.885 3.7448 249.013 3.87842C249.142 4.01204 249.316 4.08711 249.497 4.08711C249.679 4.08711 249.853 4.01204 249.982 3.87842C250.11 3.7448 250.182 3.56358 250.182 3.37461C250.182 3.18564 250.11 3.00442 249.982 2.8708C249.853 2.73718 249.679 2.66211 249.497 2.66211C249.316 2.66211 249.142 2.73718 249.013 2.8708C248.885 3.00442 248.812 3.18564 248.812 3.37461V3.37461Z" stroke="white" stroke-width="0.269444"/>
<path d="M264.564 1.94971L261.824 4.79971L264.564 1.94971Z" stroke="white" stroke-width="0.269444"/>
<path d="M277.351 2.8999L276.438 3.8499L277.351 2.8999Z" stroke="white" stroke-width="0.269444"/>
<path d="M291.962 1.94971L289.223 4.79971" stroke="white" stroke-width="0.269444"/>
<path d="M303.145 3.37451C303.145 3.68946 303.265 3.9915 303.479 4.2142C303.693 4.4369 303.983 4.56201 304.286 4.56201C304.589 4.56201 304.879 4.4369 305.093 4.2142C305.307 3.9915 305.427 3.68946 305.427 3.37451C305.427 3.05957 305.307 2.75752 305.093 2.53482C304.879 2.31212 304.589 2.18701 304.286 2.18701C303.983 2.18701 303.693 2.31212 303.479 2.53482C303.265 2.75752 303.145 3.05957 303.145 3.37451V3.37451Z" stroke="white" stroke-width="0.269444"/>
<path d="M316.844 3.37451C316.844 3.68946 316.964 3.9915 317.178 4.2142C317.392 4.4369 317.682 4.56201 317.985 4.56201C318.288 4.56201 318.578 4.4369 318.792 4.2142C319.006 3.9915 319.127 3.68946 319.127 3.37451C319.127 3.05957 319.006 2.75752 318.792 2.53482C318.578 2.31212 318.288 2.18701 317.985 2.18701C317.682 2.18701 317.392 2.31212 317.178 2.53482C316.964 2.75752 316.844 3.05957 316.844 3.37451V3.37451Z" stroke="white" stroke-width="0.269444"/>
</g>
</g>
</g>
<rect x="0.5" width="99" height="7" rx="3.5" fill="white"/>
<g clip-path="url(#clip3_825_27632)">
<mask id="mask2_825_27632" style="mask-type:luminance" maskUnits="userSpaceOnUse" x="-125" y="-75" width="330" height="133">
<path d="M204.405 -75H-124.316V58H204.405V-75Z" fill="white"/>
</mask>
<g mask="url(#mask2_825_27632)">
<path d="M4.66016 3.37451C4.66016 3.68946 4.78041 3.9915 4.99446 4.2142C5.20851 4.4369 5.49883 4.56201 5.80155 4.56201C6.10426 4.56201 6.39458 4.4369 6.60863 4.2142C6.82269 3.9915 6.94294 3.68946 6.94294 3.37451C6.94294 3.05957 6.82269 2.75752 6.60863 2.53482C6.39458 2.31212 6.10426 2.18701 5.80155 2.18701C5.49883 2.18701 5.20851 2.31212 4.99446 2.53482C4.78041 2.75752 4.66016 3.05957 4.66016 3.37451V3.37451Z" stroke="#0D6464" stroke-width="0.269444"/>
<path d="M18.8125 3.37461C18.8125 3.56358 18.8847 3.7448 19.0131 3.87842C19.1415 4.01204 19.3157 4.08711 19.4973 4.08711C19.679 4.08711 19.8532 4.01204 19.9816 3.87842C20.11 3.7448 20.1822 3.56358 20.1822 3.37461C20.1822 3.18564 20.11 3.00442 19.9816 2.8708C19.8532 2.73718 19.679 2.66211 19.4973 2.66211C19.3157 2.66211 19.1415 2.73718 19.0131 2.8708C18.8847 3.00442 18.8125 3.18564 18.8125 3.37461V3.37461Z" stroke="#0D6464" stroke-width="0.269444"/>
<path d="M34.5636 1.94971L31.8242 4.79971L34.5636 1.94971Z" stroke="#0D6464" stroke-width="0.269444"/>
<path d="M47.3506 2.8999L46.4375 3.8499L47.3506 2.8999Z" stroke="#0D6464" stroke-width="0.269444"/>
<path d="M61.962 1.94971L59.2227 4.79971" stroke="#0D6464" stroke-width="0.269444"/>
<path d="M73.1445 3.37451C73.1445 3.68946 73.2648 3.9915 73.4788 4.2142C73.6929 4.4369 73.9832 4.56201 74.2859 4.56201C74.5886 4.56201 74.879 4.4369 75.093 4.2142C75.3071 3.9915 75.4273 3.68946 75.4273 3.37451C75.4273 3.05957 75.3071 2.75752 75.093 2.53482C74.879 2.31212 74.5886 2.18701 74.2859 2.18701C73.9832 2.18701 73.6929 2.31212 73.4788 2.53482C73.2648 2.75752 73.1445 3.05957 73.1445 3.37451V3.37451Z" stroke="#0D6464" stroke-width="0.269444"/>
<path d="M86.8438 3.37451C86.8438 3.68946 86.964 3.9915 87.1781 4.2142C87.3921 4.4369 87.6824 4.56201 87.9851 4.56201C88.2879 4.56201 88.5782 4.4369 88.7922 4.2142C89.0063 3.9915 89.1265 3.68946 89.1265 3.37451C89.1265 3.05957 89.0063 2.75752 88.7922 2.53482C88.5782 2.31212 88.2879 2.18701 87.9851 2.18701C87.6824 2.18701 87.3921 2.31212 87.1781 2.53482C86.964 2.75752 86.8438 3.05957 86.8438 3.37451V3.37451Z" stroke="#0D6464" stroke-width="0.269444"/>
</g>
</g>
<defs>
<clipPath id="clip0_825_27632">
<rect width="32" height="7" fill="white" transform="translate(198.5)"/>
</clipPath>
<clipPath id="clip1_825_27632">
<rect width="91" height="7" fill="white" transform="translate(230.5)"/>
</clipPath>
<clipPath id="clip2_825_27632">
<rect x="230.5" y="1" width="93" height="5" rx="2.5" fill="white"/>
</clipPath>
<clipPath id="clip3_825_27632">
<rect x="0.5" y="1" width="93" height="5" rx="2.5" fill="white"/>
</clipPath>
</defs>
</svg>
