<svg width="345" height="330" viewBox="0 0 345 330" fill="none" xmlns="http://www.w3.org/2000/svg">
<rect width="345" height="330" rx="5" fill="white"/>
<path d="M16.4137 16.7717H14.4215C14.3647 16.445 14.2599 16.1555 14.1072 15.9034C13.9545 15.6477 13.7646 15.4311 13.5373 15.2536C13.31 15.076 13.0508 14.9428 12.7596 14.854C12.4719 14.7617 12.1612 14.7156 11.8274 14.7156C11.2344 14.7156 10.7088 14.8647 10.2507 15.163C9.79261 15.4577 9.43395 15.891 9.17472 16.4627C8.91548 17.0309 8.78587 17.7251 8.78587 18.5455C8.78587 19.38 8.91548 20.0831 9.17472 20.6548C9.4375 21.223 9.79616 21.6527 10.2507 21.9439C10.7088 22.2315 11.2326 22.3754 11.8221 22.3754C12.1488 22.3754 12.4542 22.3327 12.7383 22.2475C13.0259 22.1587 13.2834 22.0291 13.5107 21.8587C13.7415 21.6882 13.935 21.4787 14.0913 21.2301C14.2511 20.9815 14.3612 20.6974 14.4215 20.3778L16.4137 20.3885C16.3391 20.907 16.1776 21.3935 15.929 21.848C15.6839 22.3026 15.3626 22.7038 14.9648 23.0518C14.5671 23.3963 14.1019 23.6662 13.5692 23.8615C13.0366 24.0533 12.4453 24.1491 11.7955 24.1491C10.8366 24.1491 9.98082 23.9272 9.22798 23.4833C8.47514 23.0394 7.8821 22.3984 7.44886 21.5604C7.01563 20.7223 6.79901 19.7173 6.79901 18.5455C6.79901 17.37 7.0174 16.3651 7.45419 15.5305C7.89098 14.6925 8.4858 14.0515 9.23864 13.6076C9.99148 13.1637 10.8438 12.9418 11.7955 12.9418C12.4027 12.9418 12.9673 13.027 13.4893 13.1974C14.0114 13.3679 14.4766 13.6183 14.8849 13.9485C15.2933 14.2752 15.6289 14.6765 15.8917 15.1523C16.158 15.6246 16.332 16.1644 16.4137 16.7717ZM20.4926 24.1651C19.9742 24.1651 19.5072 24.0728 19.0917 23.8881C18.6798 23.6999 18.3531 23.4229 18.1116 23.0572C17.8737 22.6914 17.7547 22.2404 17.7547 21.7042C17.7547 21.2425 17.8399 20.8608 18.0104 20.5589C18.1808 20.2571 18.4134 20.0156 18.7082 19.8345C19.0029 19.6534 19.335 19.5167 19.7043 19.4244C20.0771 19.3285 20.4624 19.2592 20.8602 19.2166C21.3396 19.1669 21.7284 19.1225 22.0267 19.0835C22.325 19.0408 22.5416 18.9769 22.6766 18.8917C22.8151 18.8029 22.8843 18.6662 22.8843 18.4815V18.4496C22.8843 18.0483 22.7654 17.7376 22.5274 17.5174C22.2895 17.2972 21.9468 17.1871 21.4994 17.1871C21.0271 17.1871 20.6524 17.2901 20.3754 17.4961C20.102 17.7021 19.9173 17.9453 19.8215 18.2259L18.021 17.9702C18.1631 17.473 18.3975 17.0575 18.7242 16.7237C19.0509 16.3864 19.4504 16.1342 19.9227 15.9673C20.395 15.7969 20.917 15.7116 21.4887 15.7116C21.8829 15.7116 22.2753 15.7578 22.6659 15.8501C23.0566 15.9425 23.4134 16.0952 23.7366 16.3082C24.0597 16.5178 24.319 16.8036 24.5143 17.1658C24.7132 17.5281 24.8126 17.9808 24.8126 18.5241V24H22.9589V22.8761H22.895C22.7778 23.1033 22.6127 23.3164 22.3996 23.5153C22.1901 23.7106 21.9255 23.8686 21.6059 23.9893C21.2899 24.1065 20.9188 24.1651 20.4926 24.1651ZM20.9933 22.7482C21.3804 22.7482 21.716 22.6719 22.0001 22.5192C22.2842 22.3629 22.5026 22.157 22.6553 21.9013C22.8115 21.6456 22.8896 21.3668 22.8896 21.065V20.1009C22.8293 20.1506 22.7263 20.1967 22.5807 20.2393C22.4387 20.282 22.2789 20.3192 22.1013 20.3512C21.9237 20.3832 21.748 20.4116 21.574 20.4364C21.3999 20.4613 21.249 20.4826 21.1212 20.5004C20.8335 20.5394 20.5761 20.6033 20.3488 20.6921C20.1215 20.7809 19.9422 20.9052 19.8108 21.065C19.6794 21.2212 19.6137 21.4237 19.6137 21.6722C19.6137 22.0273 19.7433 22.2955 20.0026 22.4766C20.2618 22.6577 20.5921 22.7482 20.9933 22.7482ZM28.6798 13.0909V24H26.7515V13.0909H28.6798ZM34.2315 24.1598C33.4325 24.1598 32.7401 23.984 32.1541 23.6325C31.5682 23.2809 31.1136 22.7891 30.7905 22.157C30.4709 21.5249 30.3111 20.7862 30.3111 19.9411C30.3111 19.0959 30.4709 18.3555 30.7905 17.7198C31.1136 17.0842 31.5682 16.5906 32.1541 16.239C32.7401 15.8874 33.4325 15.7116 34.2315 15.7116C35.0305 15.7116 35.723 15.8874 36.3089 16.239C36.8949 16.5906 37.3477 17.0842 37.6673 17.7198C37.9904 18.3555 38.152 19.0959 38.152 19.9411C38.152 20.7862 37.9904 21.5249 37.6673 22.157C37.3477 22.7891 36.8949 23.2809 36.3089 23.6325C35.723 23.984 35.0305 24.1598 34.2315 24.1598ZM34.2422 22.6151C34.6754 22.6151 35.0376 22.4961 35.3288 22.2582C35.62 22.0167 35.8366 21.6935 35.9787 21.2887C36.1243 20.8839 36.1971 20.4329 36.1971 19.9357C36.1971 19.435 36.1243 18.9822 35.9787 18.5774C35.8366 18.169 35.62 17.8441 35.3288 17.6026C35.0376 17.3612 34.6754 17.2404 34.2422 17.2404C33.7983 17.2404 33.429 17.3612 33.1342 17.6026C32.843 17.8441 32.6246 18.169 32.479 18.5774C32.337 18.9822 32.266 19.435 32.266 19.9357C32.266 20.4329 32.337 20.8839 32.479 21.2887C32.6246 21.6935 32.843 22.0167 33.1342 22.2582C33.429 22.4961 33.7983 22.6151 34.2422 22.6151ZM39.7886 24V15.8182H41.6583V17.1818H41.7435C41.8927 16.7095 42.1483 16.3455 42.5106 16.0898C42.8763 15.8306 43.2936 15.701 43.7623 15.701C43.8689 15.701 43.9878 15.7063 44.1192 15.717C44.2542 15.7241 44.366 15.7365 44.4548 15.7543V17.5281C44.3731 17.4996 44.2435 17.4748 44.066 17.4535C43.892 17.4286 43.7233 17.4162 43.5599 17.4162C43.2084 17.4162 42.8923 17.4925 42.6118 17.6452C42.3348 17.7944 42.1164 18.0021 41.9566 18.2685C41.7968 18.5348 41.7169 18.842 41.7169 19.19V24H39.7886ZM45.7359 24V15.8182H47.6642V24H45.7359ZM46.7053 14.657C46.3999 14.657 46.1372 14.5558 45.917 14.3533C45.6968 14.1474 45.5867 13.9006 45.5867 13.6129C45.5867 13.3217 45.6968 13.0749 45.917 12.8725C46.1372 12.6665 46.3999 12.5636 46.7053 12.5636C47.0143 12.5636 47.2771 12.6665 47.4937 12.8725C47.7139 13.0749 47.824 13.3217 47.824 13.6129C47.824 13.9006 47.7139 14.1474 47.4937 14.3533C47.2771 14.5558 47.0143 14.657 46.7053 14.657ZM53.2692 24.1598C52.4489 24.1598 51.7404 23.9893 51.1438 23.6484C50.5508 23.304 50.0945 22.8175 49.7749 22.1889C49.4553 21.5568 49.2955 20.8129 49.2955 19.957C49.2955 19.1154 49.4553 18.3768 49.7749 17.7411C50.098 17.1019 50.549 16.6048 51.1278 16.2496C51.7067 15.891 52.3867 15.7116 53.168 15.7116C53.6722 15.7116 54.1481 15.7933 54.5955 15.9567C55.0465 16.1165 55.4442 16.3651 55.7887 16.7024C56.1367 17.0398 56.4102 17.4695 56.609 17.9915C56.8079 18.5099 56.9073 19.1278 56.9073 19.8452V20.4364H50.201V19.1367H55.0589C55.0554 18.7674 54.9755 18.4389 54.8192 18.1513C54.663 17.8601 54.4446 17.631 54.1641 17.4641C53.8871 17.2972 53.5639 17.2138 53.1946 17.2138C52.8004 17.2138 52.4542 17.3097 52.1559 17.5014C51.8576 17.6896 51.625 17.9382 51.4581 18.2472C51.2947 18.5526 51.2113 18.8881 51.2077 19.2539V20.3885C51.2077 20.8643 51.2947 21.2727 51.4688 21.6136C51.6428 21.951 51.886 22.2102 52.1985 22.3913C52.511 22.5689 52.8768 22.6577 53.2958 22.6577C53.5763 22.6577 53.8303 22.6186 54.0575 22.5405C54.2848 22.4588 54.4819 22.3398 54.6488 22.1836C54.8157 22.0273 54.9418 21.8338 55.027 21.603L56.8274 21.8054C56.7138 22.2812 56.4972 22.6967 56.1776 23.0518C55.8615 23.4034 55.4567 23.6768 54.9631 23.8722C54.4695 24.0639 53.9048 24.1598 53.2692 24.1598ZM65.0052 17.9808L63.2474 18.1726C63.1977 17.995 63.1107 17.8281 62.9864 17.6719C62.8657 17.5156 62.7023 17.3896 62.4964 17.2937C62.2904 17.1978 62.0383 17.1499 61.74 17.1499C61.3387 17.1499 61.0013 17.2369 60.7279 17.4109C60.458 17.5849 60.3248 17.8104 60.3284 18.0874C60.3248 18.3253 60.4118 18.5188 60.5894 18.668C60.7705 18.8171 61.0688 18.9396 61.4843 19.0355L62.8799 19.3338C63.654 19.5007 64.2293 19.7653 64.6057 20.1275C64.9857 20.4897 65.1775 20.9638 65.181 21.5497C65.1775 22.0646 65.0265 22.5192 64.7282 22.9134C64.4335 23.304 64.0233 23.6094 63.4978 23.8295C62.9722 24.0497 62.3685 24.1598 61.6867 24.1598C60.6853 24.1598 59.8792 23.9503 59.2684 23.5312C58.6576 23.1087 58.2936 22.521 58.1764 21.7681L60.0567 21.587C60.142 21.9563 60.3231 22.2351 60.6001 22.4233C60.877 22.6115 61.2375 22.7056 61.6814 22.7056C62.1395 22.7056 62.507 22.6115 62.784 22.4233C63.0645 22.2351 63.2048 22.0025 63.2048 21.7255C63.2048 21.4911 63.1143 21.2976 62.9332 21.1449C62.7556 20.9922 62.4786 20.875 62.1022 20.7933L60.7066 20.5004C59.9218 20.337 59.3412 20.0618 58.9648 19.6747C58.5883 19.2841 58.4019 18.7905 58.4055 18.1939C58.4019 17.6896 58.5386 17.2528 58.8156 16.8835C59.0961 16.5107 59.485 16.223 59.9822 16.0206C60.4829 15.8146 61.0599 15.7116 61.7133 15.7116C62.6721 15.7116 63.4268 15.9158 63.9772 16.3242C64.5312 16.7326 64.8738 17.2848 65.0052 17.9808ZM70.577 24V13.0909H72.5052V17.1712H72.5851C72.6846 16.9723 72.8248 16.761 73.0059 16.5373C73.1871 16.31 73.4321 16.1165 73.741 15.9567C74.05 15.7933 74.4442 15.7116 74.9236 15.7116C75.5557 15.7116 76.1256 15.8732 76.6334 16.1964C77.1448 16.516 77.5496 16.9901 77.8479 17.6186C78.1498 18.2436 78.3007 19.0107 78.3007 19.9197C78.3007 20.8182 78.1533 21.5817 77.8586 22.2102C77.5638 22.8388 77.1626 23.3182 76.6547 23.6484C76.1469 23.9787 75.5716 24.1438 74.9289 24.1438C74.4601 24.1438 74.0713 24.0657 73.7623 23.9094C73.4534 23.7532 73.2048 23.565 73.0166 23.3448C72.8319 23.1211 72.6881 22.9098 72.5851 22.7109H72.4733V24H70.577ZM72.468 19.9091C72.468 20.4382 72.5425 20.9016 72.6917 21.2994C72.8444 21.6971 73.0628 22.0078 73.3469 22.2315C73.6345 22.4517 73.9825 22.5618 74.3909 22.5618C74.817 22.5618 75.1739 22.4482 75.4616 22.2209C75.7492 21.9901 75.9658 21.6758 76.1114 21.2781C76.2606 20.8768 76.3351 20.4205 76.3351 19.9091C76.3351 19.4013 76.2623 18.9503 76.1167 18.5561C75.9711 18.1619 75.7545 17.853 75.4669 17.6293C75.1792 17.4055 74.8206 17.2937 74.3909 17.2937C73.979 17.2937 73.6292 17.402 73.3415 17.6186C73.0539 17.8352 72.8355 18.1388 72.6863 18.5295C72.5407 18.9201 72.468 19.38 72.468 19.9091ZM85.1548 20.5589V15.8182H87.0831V24H85.2134V22.5458H85.1282C84.9435 23.0039 84.6399 23.3786 84.2173 23.6697C83.7983 23.9609 83.2816 24.1065 82.6673 24.1065C82.131 24.1065 81.657 23.9876 81.245 23.7496C80.8366 23.5082 80.517 23.1584 80.2862 22.7003C80.0554 22.2386 79.94 21.6811 79.94 21.0277V15.8182H81.8683V20.7294C81.8683 21.2479 82.0103 21.6598 82.2944 21.9652C82.5785 22.2706 82.9513 22.4233 83.413 22.4233C83.6971 22.4233 83.9723 22.354 84.2386 22.2156C84.505 22.0771 84.7234 21.8711 84.8938 21.5977C85.0678 21.3207 85.1548 20.9744 85.1548 20.5589ZM89.066 24V15.8182H90.9356V17.1818H91.0209C91.17 16.7095 91.4257 16.3455 91.7879 16.0898C92.1537 15.8306 92.5709 15.701 93.0397 15.701C93.1462 15.701 93.2652 15.7063 93.3966 15.717C93.5315 15.7241 93.6434 15.7365 93.7322 15.7543V17.5281C93.6505 17.4996 93.5209 17.4748 93.3433 17.4535C93.1693 17.4286 93.0006 17.4162 92.8373 17.4162C92.4857 17.4162 92.1697 17.4925 91.8891 17.6452C91.6121 17.7944 91.3937 18.0021 91.2339 18.2685C91.0741 18.5348 90.9942 18.842 90.9942 19.19V24H89.066ZM96.9415 19.206V24H95.0132V15.8182H96.8563V17.2085H96.9521C97.1404 16.7504 97.4404 16.3864 97.8524 16.1165C98.2678 15.8466 98.781 15.7116 99.3918 15.7116C99.9564 15.7116 100.448 15.8324 100.867 16.0739C101.29 16.3153 101.617 16.6651 101.847 17.1232C102.082 17.5813 102.197 18.1371 102.194 18.7905V24H100.265V19.0888C100.265 18.5419 100.123 18.114 99.8392 17.805C99.5587 17.4961 99.1698 17.3416 98.6727 17.3416C98.3353 17.3416 98.0352 17.4162 97.7725 17.5653C97.5132 17.7109 97.309 17.9222 97.1599 18.1992C97.0143 18.4762 96.9415 18.8118 96.9415 19.206ZM107.776 24.1598C106.956 24.1598 106.247 23.9893 105.651 23.6484C105.058 23.304 104.601 22.8175 104.282 22.1889C103.962 21.5568 103.802 20.8129 103.802 19.957C103.802 19.1154 103.962 18.3768 104.282 17.7411C104.605 17.1019 105.056 16.6048 105.635 16.2496C106.214 15.891 106.894 15.7116 107.675 15.7116C108.179 15.7116 108.655 15.7933 109.102 15.9567C109.553 16.1165 109.951 16.3651 110.296 16.7024C110.644 17.0398 110.917 17.4695 111.116 17.9915C111.315 18.5099 111.414 19.1278 111.414 19.8452V20.4364H104.708V19.1367H109.566C109.562 18.7674 109.482 18.4389 109.326 18.1513C109.17 17.8601 108.951 17.631 108.671 17.4641C108.394 17.2972 108.071 17.2138 107.701 17.2138C107.307 17.2138 106.961 17.3097 106.663 17.5014C106.364 17.6896 106.132 17.9382 105.965 18.2472C105.802 18.5526 105.718 18.8881 105.715 19.2539V20.3885C105.715 20.8643 105.802 21.2727 105.976 21.6136C106.15 21.951 106.393 22.2102 106.705 22.3913C107.018 22.5689 107.384 22.6577 107.803 22.6577C108.083 22.6577 108.337 22.6186 108.564 22.5405C108.792 22.4588 108.989 22.3398 109.156 22.1836C109.323 22.0273 109.449 21.8338 109.534 21.603L111.334 21.8054C111.221 22.2812 111.004 22.6967 110.684 23.0518C110.368 23.4034 109.964 23.6768 109.47 23.8722C108.976 24.0639 108.412 24.1598 107.776 24.1598ZM116.082 24.1438C115.439 24.1438 114.864 23.9787 114.356 23.6484C113.848 23.3182 113.447 22.8388 113.152 22.2102C112.857 21.5817 112.71 20.8182 112.71 19.9197C112.71 19.0107 112.859 18.2436 113.157 17.6186C113.459 16.9901 113.866 16.516 114.377 16.1964C114.888 15.8732 115.458 15.7116 116.087 15.7116C116.566 15.7116 116.961 15.7933 117.27 15.9567C117.578 16.1165 117.824 16.31 118.005 16.5373C118.186 16.761 118.326 16.9723 118.425 17.1712H118.505V13.0909H120.439V24H118.543V22.7109H118.425C118.326 22.9098 118.182 23.1211 117.994 23.3448C117.806 23.565 117.557 23.7532 117.248 23.9094C116.939 24.0657 116.55 24.1438 116.082 24.1438ZM116.62 22.5618C117.028 22.5618 117.376 22.4517 117.664 22.2315C117.951 22.0078 118.17 21.6971 118.319 21.2994C118.468 20.9016 118.543 20.4382 118.543 19.9091C118.543 19.38 118.468 18.9201 118.319 18.5295C118.173 18.1388 117.957 17.8352 117.669 17.6186C117.385 17.402 117.035 17.2937 116.62 17.2937C116.19 17.2937 115.831 17.4055 115.544 17.6293C115.256 17.853 115.039 18.1619 114.894 18.5561C114.748 18.9503 114.675 19.4013 114.675 19.9091C114.675 20.4205 114.748 20.8768 114.894 21.2781C115.043 21.6758 115.261 21.9901 115.549 22.2209C115.84 22.4482 116.197 22.5618 116.62 22.5618ZM124.758 22.5085L124.688 23.0945C124.639 23.5419 124.55 23.9964 124.422 24.4581C124.298 24.9233 124.166 25.3512 124.028 25.7418C123.889 26.1325 123.777 26.4396 123.692 26.6634H122.392C122.442 26.4467 122.51 26.152 122.595 25.7791C122.684 25.4063 122.769 24.9872 122.851 24.522C122.932 24.0568 122.987 23.5845 123.016 23.1051L123.053 22.5085H124.758ZM133.923 24.1598C133.103 24.1598 132.395 23.9893 131.798 23.6484C131.205 23.304 130.749 22.8175 130.429 22.1889C130.11 21.5568 129.95 20.8129 129.95 19.957C129.95 19.1154 130.11 18.3768 130.429 17.7411C130.752 17.1019 131.203 16.6048 131.782 16.2496C132.361 15.891 133.041 15.7116 133.822 15.7116C134.327 15.7116 134.802 15.7933 135.25 15.9567C135.701 16.1165 136.099 16.3651 136.443 16.7024C136.791 17.0398 137.064 17.4695 137.263 17.9915C137.462 18.5099 137.562 19.1278 137.562 19.8452V20.4364H130.855V19.1367H135.713C135.71 18.7674 135.63 18.4389 135.474 18.1513C135.317 17.8601 135.099 17.631 134.818 17.4641C134.541 17.2972 134.218 17.2138 133.849 17.2138C133.455 17.2138 133.108 17.3097 132.81 17.5014C132.512 17.6896 132.279 17.9382 132.112 18.2472C131.949 18.5526 131.866 18.8881 131.862 19.2539V20.3885C131.862 20.8643 131.949 21.2727 132.123 21.6136C132.297 21.951 132.54 22.2102 132.853 22.3913C133.165 22.5689 133.531 22.6577 133.95 22.6577C134.231 22.6577 134.485 22.6186 134.712 22.5405C134.939 22.4588 135.136 22.3398 135.303 22.1836C135.47 22.0273 135.596 21.8338 135.681 21.603L137.482 21.8054C137.368 22.2812 137.151 22.6967 136.832 23.0518C136.516 23.4034 136.111 23.6768 135.617 23.8722C135.124 24.0639 134.559 24.1598 133.923 24.1598ZM145.66 17.9808L143.902 18.1726C143.852 17.995 143.765 17.8281 143.641 17.6719C143.52 17.5156 143.357 17.3896 143.151 17.2937C142.945 17.1978 142.693 17.1499 142.394 17.1499C141.993 17.1499 141.656 17.2369 141.382 17.4109C141.112 17.5849 140.979 17.8104 140.983 18.0874C140.979 18.3253 141.066 18.5188 141.244 18.668C141.425 18.8171 141.723 18.9396 142.139 19.0355L143.534 19.3338C144.308 19.5007 144.884 19.7653 145.26 20.1275C145.64 20.4897 145.832 20.9638 145.835 21.5497C145.832 22.0646 145.681 22.5192 145.383 22.9134C145.088 23.304 144.678 23.6094 144.152 23.8295C143.627 24.0497 143.023 24.1598 142.341 24.1598C141.34 24.1598 140.533 23.9503 139.923 23.5312C139.312 23.1087 138.948 22.521 138.831 21.7681L140.711 21.587C140.796 21.9563 140.977 22.2351 141.254 22.4233C141.531 22.6115 141.892 22.7056 142.336 22.7056C142.794 22.7056 143.161 22.6115 143.438 22.4233C143.719 22.2351 143.859 22.0025 143.859 21.7255C143.859 21.4911 143.769 21.2976 143.587 21.1449C143.41 20.9922 143.133 20.875 142.756 20.7933L141.361 20.5004C140.576 20.337 139.995 20.0618 139.619 19.6747C139.243 19.2841 139.056 18.7905 139.06 18.1939C139.056 17.6896 139.193 17.2528 139.47 16.8835C139.75 16.5107 140.139 16.223 140.636 16.0206C141.137 15.8146 141.714 15.7116 142.368 15.7116C143.326 15.7116 144.081 15.9158 144.631 16.3242C145.185 16.7326 145.528 17.2848 145.66 17.9808ZM151.511 15.8182V17.3097H146.807V15.8182H151.511ZM147.969 13.858H149.897V21.5391C149.897 21.7983 149.936 21.9972 150.014 22.1357C150.096 22.2706 150.202 22.3629 150.334 22.4126C150.465 22.4624 150.611 22.4872 150.771 22.4872C150.891 22.4872 151.001 22.4783 151.101 22.4606C151.204 22.4428 151.282 22.4268 151.335 22.4126L151.66 23.9201C151.557 23.9556 151.41 23.9947 151.218 24.0373C151.03 24.0799 150.799 24.1048 150.525 24.1119C150.043 24.1261 149.608 24.0533 149.22 23.8935C148.833 23.7301 148.526 23.478 148.299 23.1371C148.075 22.7962 147.965 22.37 147.969 21.8587V13.858ZM153.124 24V15.8182H155.052V24H153.124ZM154.093 14.657C153.788 14.657 153.525 14.5558 153.305 14.3533C153.085 14.1474 152.974 13.9006 152.974 13.6129C152.974 13.3217 153.085 13.0749 153.305 12.8725C153.525 12.6665 153.788 12.5636 154.093 12.5636C154.402 12.5636 154.665 12.6665 154.881 12.8725C155.102 13.0749 155.212 13.3217 155.212 13.6129C155.212 13.9006 155.102 14.1474 154.881 14.3533C154.665 14.5558 154.402 14.657 154.093 14.657ZM157.035 24V15.8182H158.878V17.2085H158.974C159.144 16.7397 159.426 16.3739 159.821 16.1112C160.215 15.8448 160.685 15.7116 161.232 15.7116C161.786 15.7116 162.253 15.8466 162.633 16.1165C163.017 16.3828 163.286 16.7468 163.443 17.2085H163.528C163.709 16.7539 164.014 16.3917 164.444 16.1218C164.877 15.8484 165.391 15.7116 165.984 15.7116C166.736 15.7116 167.351 15.9496 167.827 16.4254C168.302 16.9013 168.54 17.5955 168.54 18.5082V24H166.607V18.8065C166.607 18.2987 166.472 17.9276 166.202 17.6932C165.932 17.4553 165.602 17.3363 165.211 17.3363C164.746 17.3363 164.382 17.4819 164.119 17.7731C163.86 18.0607 163.73 18.4354 163.73 18.897V24H161.839V18.7266C161.839 18.304 161.712 17.9666 161.456 17.7145C161.204 17.4624 160.873 17.3363 160.465 17.3363C160.188 17.3363 159.936 17.4073 159.709 17.5494C159.481 17.6879 159.3 17.8849 159.165 18.1406C159.03 18.3928 158.963 18.6875 158.963 19.0249V24H157.035ZM172.851 24.1651C172.333 24.1651 171.866 24.0728 171.45 23.8881C171.038 23.6999 170.711 23.4229 170.47 23.0572C170.232 22.6914 170.113 22.2404 170.113 21.7042C170.113 21.2425 170.198 20.8608 170.369 20.5589C170.539 20.2571 170.772 20.0156 171.067 19.8345C171.361 19.6534 171.693 19.5167 172.063 19.4244C172.436 19.3285 172.821 19.2592 173.219 19.2166C173.698 19.1669 174.087 19.1225 174.385 19.0835C174.683 19.0408 174.9 18.9769 175.035 18.8917C175.173 18.8029 175.243 18.6662 175.243 18.4815V18.4496C175.243 18.0483 175.124 17.7376 174.886 17.5174C174.648 17.2972 174.305 17.1871 173.858 17.1871C173.385 17.1871 173.011 17.2901 172.734 17.4961C172.46 17.7021 172.276 17.9453 172.18 18.2259L170.379 17.9702C170.521 17.473 170.756 17.0575 171.083 16.7237C171.409 16.3864 171.809 16.1342 172.281 15.9673C172.753 15.7969 173.275 15.7116 173.847 15.7116C174.241 15.7116 174.634 15.7578 175.024 15.8501C175.415 15.9425 175.772 16.0952 176.095 16.3082C176.418 16.5178 176.677 16.8036 176.873 17.1658C177.072 17.5281 177.171 17.9808 177.171 18.5241V24H175.317V22.8761H175.253C175.136 23.1033 174.971 23.3164 174.758 23.5153C174.548 23.7106 174.284 23.8686 173.964 23.9893C173.648 24.1065 173.277 24.1651 172.851 24.1651ZM173.352 22.7482C173.739 22.7482 174.074 22.6719 174.358 22.5192C174.643 22.3629 174.861 22.157 175.014 21.9013C175.17 21.6456 175.248 21.3668 175.248 21.065V20.1009C175.188 20.1506 175.085 20.1967 174.939 20.2393C174.797 20.282 174.637 20.3192 174.46 20.3512C174.282 20.3832 174.106 20.4116 173.932 20.4364C173.758 20.4613 173.607 20.4826 173.48 20.5004C173.192 20.5394 172.934 20.6033 172.707 20.6921C172.48 20.7809 172.301 20.9052 172.169 21.065C172.038 21.2212 171.972 21.4237 171.972 21.6722C171.972 22.0273 172.102 22.2955 172.361 22.4766C172.62 22.6577 172.95 22.7482 173.352 22.7482ZM183.195 15.8182V17.3097H178.492V15.8182H183.195ZM179.653 13.858H181.581V21.5391C181.581 21.7983 181.621 21.9972 181.699 22.1357C181.78 22.2706 181.887 22.3629 182.018 22.4126C182.15 22.4624 182.295 22.4872 182.455 22.4872C182.576 22.4872 182.686 22.4783 182.785 22.4606C182.888 22.4428 182.966 22.4268 183.02 22.4126L183.345 23.9201C183.242 23.9556 183.094 23.9947 182.903 24.0373C182.714 24.0799 182.483 24.1048 182.21 24.1119C181.727 24.1261 181.292 24.0533 180.905 23.8935C180.518 23.7301 180.211 23.478 179.983 23.1371C179.76 22.7962 179.65 22.37 179.653 21.8587V13.858ZM188.342 24.1598C187.522 24.1598 186.814 23.9893 186.217 23.6484C185.624 23.304 185.168 22.8175 184.848 22.1889C184.528 21.5568 184.369 20.8129 184.369 19.957C184.369 19.1154 184.528 18.3768 184.848 17.7411C185.171 17.1019 185.622 16.6048 186.201 16.2496C186.78 15.891 187.46 15.7116 188.241 15.7116C188.745 15.7116 189.221 15.7933 189.669 15.9567C190.12 16.1165 190.517 16.3651 190.862 16.7024C191.21 17.0398 191.483 17.4695 191.682 17.9915C191.881 18.5099 191.981 19.1278 191.981 19.8452V20.4364H185.274V19.1367H190.132C190.129 18.7674 190.049 18.4389 189.892 18.1513C189.736 17.8601 189.518 17.631 189.237 17.4641C188.96 17.2972 188.637 17.2138 188.268 17.2138C187.874 17.2138 187.527 17.3097 187.229 17.5014C186.931 17.6896 186.698 17.9382 186.531 18.2472C186.368 18.5526 186.285 18.8881 186.281 19.2539V20.3885C186.281 20.8643 186.368 21.2727 186.542 21.6136C186.716 21.951 186.959 22.2102 187.272 22.3913C187.584 22.5689 187.95 22.6577 188.369 22.6577C188.65 22.6577 188.903 22.6186 189.131 22.5405C189.358 22.4588 189.555 22.3398 189.722 22.1836C189.889 22.0273 190.015 21.8338 190.1 21.603L191.901 21.8054C191.787 22.2812 191.57 22.6967 191.251 23.0518C190.935 23.4034 190.53 23.6768 190.036 23.8722C189.543 24.0639 188.978 24.1598 188.342 24.1598ZM196.648 24.1438C196.005 24.1438 195.43 23.9787 194.922 23.6484C194.414 23.3182 194.013 22.8388 193.718 22.2102C193.424 21.5817 193.276 20.8182 193.276 19.9197C193.276 19.0107 193.425 18.2436 193.724 17.6186C194.026 16.9901 194.432 16.516 194.944 16.1964C195.455 15.8732 196.025 15.7116 196.653 15.7116C197.133 15.7116 197.527 15.7933 197.836 15.9567C198.145 16.1165 198.39 16.31 198.571 16.5373C198.752 16.761 198.892 16.9723 198.992 17.1712H199.072V13.0909H201.005V24H199.109V22.7109H198.992C198.892 22.9098 198.749 23.1211 198.56 23.3448C198.372 23.565 198.124 23.7532 197.815 23.9094C197.506 24.0657 197.117 24.1438 196.648 24.1438ZM197.186 22.5618C197.594 22.5618 197.942 22.4517 198.23 22.2315C198.518 22.0078 198.736 21.6971 198.885 21.2994C199.034 20.9016 199.109 20.4382 199.109 19.9091C199.109 19.38 199.034 18.9201 198.885 18.5295C198.74 18.1388 198.523 17.8352 198.235 17.6186C197.951 17.402 197.602 17.2937 197.186 17.2937C196.756 17.2937 196.398 17.4055 196.11 17.6293C195.822 17.853 195.606 18.1619 195.46 18.5561C195.315 18.9503 195.242 19.4013 195.242 19.9091C195.242 20.4205 195.315 20.8768 195.46 21.2781C195.609 21.6758 195.828 21.9901 196.115 22.2209C196.407 22.4482 196.763 22.5618 197.186 22.5618Z" fill="#333333"/>
<path d="M207.26 19.5522C207.26 18.2205 207.436 16.9972 207.788 15.8821C208.143 14.7635 208.67 13.7301 209.37 12.782H211.186C210.916 13.1335 210.664 13.565 210.43 14.0763C210.195 14.5842 209.991 15.1417 209.817 15.7489C209.647 16.3526 209.512 16.9794 209.412 17.6293C209.316 18.2791 209.268 18.9201 209.268 19.5522C209.268 20.3938 209.352 21.2461 209.519 22.109C209.689 22.9719 209.918 23.771 210.206 24.506C210.497 25.2447 210.824 25.8484 211.186 26.3171H209.37C208.67 25.369 208.143 24.3374 207.788 23.2223C207.436 22.1037 207.26 20.8803 207.26 19.5522ZM212.769 24V13.0909H214.746V18.1033H214.879L219.135 13.0909H221.548L217.329 17.9862L221.585 24H219.209L215.955 19.3232L214.746 20.7507V24H212.769ZM225.804 24.1598C224.987 24.1598 224.286 23.9805 223.7 23.6218C223.117 23.2631 222.668 22.7678 222.352 22.1357C222.04 21.5 221.883 20.7685 221.883 19.9411C221.883 19.1101 222.043 18.3768 222.363 17.7411C222.682 17.1019 223.133 16.6048 223.716 16.2496C224.302 15.891 224.994 15.7116 225.793 15.7116C226.457 15.7116 227.045 15.8342 227.556 16.0792C228.071 16.3207 228.481 16.6634 228.787 17.1072C229.092 17.5476 229.266 18.0625 229.309 18.652H227.466C227.391 18.2578 227.214 17.9293 226.933 17.6665C226.656 17.4002 226.285 17.267 225.82 17.267C225.426 17.267 225.079 17.3736 224.781 17.5866C224.483 17.7962 224.25 18.098 224.083 18.4922C223.92 18.8864 223.838 19.3587 223.838 19.9091C223.838 20.4666 223.92 20.946 224.083 21.3473C224.247 21.745 224.476 22.0522 224.77 22.2688C225.069 22.4819 225.419 22.5884 225.82 22.5884C226.104 22.5884 226.358 22.5352 226.581 22.4286C226.809 22.3185 226.999 22.1605 227.151 21.9545C227.304 21.7486 227.409 21.4982 227.466 21.2035H229.309C229.263 21.7823 229.092 22.2955 228.797 22.7429C228.503 23.1868 228.101 23.5348 227.594 23.7869C227.086 24.0355 226.489 24.1598 225.804 24.1598ZM233.247 24.1651C232.728 24.1651 232.261 24.0728 231.846 23.8881C231.434 23.6999 231.107 23.4229 230.866 23.0572C230.628 22.6914 230.509 22.2404 230.509 21.7042C230.509 21.2425 230.594 20.8608 230.764 20.5589C230.935 20.2571 231.167 20.0156 231.462 19.8345C231.757 19.6534 232.089 19.5167 232.458 19.4244C232.831 19.3285 233.216 19.2592 233.614 19.2166C234.093 19.1669 234.482 19.1225 234.781 19.0835C235.079 19.0408 235.296 18.9769 235.43 18.8917C235.569 18.8029 235.638 18.6662 235.638 18.4815V18.4496C235.638 18.0483 235.519 17.7376 235.281 17.5174C235.043 17.2972 234.701 17.1871 234.253 17.1871C233.781 17.1871 233.406 17.2901 233.129 17.4961C232.856 17.7021 232.671 17.9453 232.575 18.2259L230.775 17.9702C230.917 17.473 231.151 17.0575 231.478 16.7237C231.805 16.3864 232.204 16.1342 232.677 15.9673C233.149 15.7969 233.671 15.7116 234.243 15.7116C234.637 15.7116 235.029 15.7578 235.42 15.8501C235.81 15.9425 236.167 16.0952 236.491 16.3082C236.814 16.5178 237.073 16.8036 237.268 17.1658C237.467 17.5281 237.566 17.9808 237.566 18.5241V24H235.713V22.8761H235.649C235.532 23.1033 235.367 23.3164 235.153 23.5153C234.944 23.7106 234.679 23.8686 234.36 23.9893C234.044 24.1065 233.673 24.1651 233.247 24.1651ZM233.747 22.7482C234.134 22.7482 234.47 22.6719 234.754 22.5192C235.038 22.3629 235.256 22.157 235.409 21.9013C235.565 21.6456 235.644 21.3668 235.644 21.065V20.1009C235.583 20.1506 235.48 20.1967 235.335 20.2393C235.193 20.282 235.033 20.3192 234.855 20.3512C234.678 20.3832 234.502 20.4116 234.328 20.4364C234.154 20.4613 234.003 20.4826 233.875 20.5004C233.587 20.5394 233.33 20.6033 233.103 20.6921C232.875 20.7809 232.696 20.9052 232.565 21.065C232.433 21.2212 232.368 21.4237 232.368 21.6722C232.368 22.0273 232.497 22.2955 232.756 22.4766C233.016 22.6577 233.346 22.7482 233.747 22.7482ZM241.434 13.0909V24H239.505V13.0909H241.434ZM246.858 19.5522C246.858 20.8803 246.68 22.1037 246.325 23.2223C245.973 24.3374 245.448 25.369 244.748 26.3171H242.932C243.205 25.9656 243.457 25.5359 243.688 25.0281C243.923 24.5202 244.125 23.9627 244.295 23.3555C244.469 22.7482 244.604 22.1197 244.7 21.4698C244.8 20.82 244.849 20.1808 244.849 19.5522C244.849 18.7106 244.764 17.8583 244.594 16.9954C244.427 16.1325 244.198 15.3317 243.907 14.593C243.619 13.8544 243.294 13.2507 242.932 12.782H244.748C245.448 13.7301 245.973 14.7635 246.325 15.8821C246.68 16.9972 246.858 18.2205 246.858 19.5522Z" fill="#606060"/>
<path d="M63.4964 305.545V315H62.0653V306.977H62.0099L59.7479 308.454V307.087L62.1069 305.545H63.4964ZM69.3455 315.157C68.6161 315.154 67.9929 314.962 67.4759 314.58C66.9588 314.198 66.5633 313.643 66.2894 312.913C66.0155 312.184 65.8786 311.305 65.8786 310.277C65.8786 309.252 66.0155 308.377 66.2894 307.651C66.5664 306.924 66.9634 306.37 67.4805 305.989C68.0006 305.607 68.6223 305.416 69.3455 305.416C70.0688 305.416 70.6889 305.609 71.206 305.993C71.723 306.375 72.1185 306.929 72.3924 307.655C72.6694 308.378 72.8079 309.252 72.8079 310.277C72.8079 311.308 72.6709 312.189 72.397 312.918C72.1231 313.644 71.7276 314.2 71.2106 314.585C70.6935 314.966 70.0719 315.157 69.3455 315.157ZM69.3455 313.924C69.9857 313.924 70.4858 313.612 70.8459 312.987C71.209 312.362 71.3906 311.459 71.3906 310.277C71.3906 309.493 71.3075 308.829 71.1413 308.288C70.9782 307.743 70.7428 307.33 70.435 307.05C70.1303 306.767 69.7672 306.626 69.3455 306.626C68.7085 306.626 68.2083 306.94 67.8452 307.567C67.482 308.195 67.2989 309.099 67.2958 310.277C67.2958 311.065 67.3774 311.732 67.5405 312.276C67.7067 312.818 67.9421 313.229 68.2468 313.509C68.5515 313.786 68.9177 313.924 69.3455 313.924Z" fill="#333333"/>
<path d="M104.496 305.545V315H103.065V306.977H103.01L100.748 308.454V307.087L103.107 305.545H104.496ZM110.641 305.545V315H109.21V306.977H109.154L106.892 308.454V307.087L109.251 305.545H110.641Z" fill="#333333"/>
<path d="M143.496 305.545V315H142.065V306.977H142.01L139.748 308.454V307.087L142.107 305.545H143.496ZM146.054 315V313.966L149.253 310.651C149.595 310.291 149.876 309.976 150.098 309.705C150.323 309.431 150.49 309.171 150.601 308.925C150.712 308.679 150.767 308.417 150.767 308.14C150.767 307.826 150.694 307.555 150.546 307.327C150.398 307.097 150.196 306.92 149.941 306.797C149.686 306.67 149.398 306.607 149.078 306.607C148.739 306.607 148.444 306.676 148.191 306.815C147.939 306.953 147.745 307.149 147.61 307.401C147.474 307.654 147.407 307.949 147.407 308.288H146.045C146.045 307.712 146.177 307.209 146.442 306.778C146.706 306.347 147.07 306.013 147.531 305.776C147.993 305.536 148.518 305.416 149.105 305.416C149.699 305.416 150.223 305.535 150.675 305.772C151.131 306.006 151.486 306.326 151.741 306.732C151.997 307.135 152.125 307.591 152.125 308.098C152.125 308.449 152.058 308.792 151.926 309.128C151.797 309.463 151.571 309.837 151.248 310.25C150.924 310.659 150.475 311.156 149.9 311.741L148.021 313.707V313.777H152.277V315H146.054Z" fill="#333333"/>
<path d="M184.496 305.545V315H183.065V306.977H183.01L180.748 308.454V307.087L183.107 305.545H184.496ZM190.346 315.129C189.712 315.129 189.145 315.02 188.647 314.801C188.151 314.583 187.759 314.28 187.469 313.892C187.183 313.501 187.029 313.049 187.008 312.535H188.457C188.476 312.815 188.57 313.058 188.739 313.264C188.911 313.467 189.136 313.624 189.413 313.735C189.69 313.846 189.998 313.901 190.336 313.901C190.709 313.901 191.038 313.837 191.324 313.707C191.614 313.578 191.84 313.398 192.003 313.167C192.166 312.933 192.248 312.664 192.248 312.359C192.248 312.042 192.166 311.764 192.003 311.524C191.843 311.281 191.607 311.09 191.297 310.951C190.989 310.813 190.616 310.744 190.179 310.744H189.381V309.58H190.179C190.53 309.58 190.838 309.517 191.103 309.391C191.37 309.265 191.58 309.089 191.73 308.865C191.881 308.637 191.957 308.371 191.957 308.066C191.957 307.774 191.891 307.52 191.758 307.304C191.629 307.086 191.444 306.915 191.204 306.792C190.967 306.669 190.687 306.607 190.364 306.607C190.056 306.607 189.768 306.664 189.501 306.778C189.236 306.889 189.021 307.049 188.854 307.258C188.688 307.464 188.599 307.712 188.587 308.001H187.206C187.222 307.491 187.373 307.041 187.659 306.653C187.948 306.266 188.33 305.962 188.804 305.744C189.278 305.525 189.804 305.416 190.382 305.416C190.989 305.416 191.512 305.535 191.952 305.772C192.395 306.006 192.737 306.318 192.977 306.709C193.22 307.1 193.34 307.527 193.337 307.992C193.34 308.522 193.192 308.971 192.894 309.34C192.598 309.71 192.204 309.957 191.712 310.083V310.157C192.34 310.253 192.826 310.502 193.171 310.905C193.519 311.308 193.691 311.808 193.688 312.406C193.691 312.926 193.546 313.392 193.254 313.804C192.965 314.217 192.569 314.541 192.067 314.778C191.566 315.012 190.992 315.129 190.346 315.129Z" fill="#333333"/>
<path d="M225.496 305.545V315H224.065V306.977H224.01L221.748 308.454V307.087L224.107 305.545H225.496ZM227.855 313.153V311.999L231.941 305.545H232.85V307.244H232.273L229.351 311.87V311.944H234.951V313.153H227.855ZM232.338 315V312.803L232.347 312.276V305.545H233.7V315H232.338Z" fill="#333333"/>
<path d="M266.496 305.545V315H265.065V306.977H265.01L262.748 308.454V307.087L265.107 305.545H266.496ZM272.175 315.129C271.596 315.129 271.076 315.018 270.614 314.797C270.156 314.572 269.79 314.264 269.516 313.874C269.242 313.483 269.096 313.036 269.077 312.535H270.462C270.496 312.941 270.676 313.275 271.002 313.537C271.328 313.798 271.719 313.929 272.175 313.929C272.538 313.929 272.859 313.846 273.14 313.68C273.423 313.51 273.644 313.278 273.804 312.983C273.967 312.687 274.049 312.35 274.049 311.972C274.049 311.587 273.966 311.244 273.8 310.942C273.634 310.641 273.404 310.404 273.112 310.231C272.823 310.059 272.49 309.971 272.115 309.968C271.828 309.968 271.541 310.017 271.251 310.116C270.962 310.214 270.728 310.344 270.55 310.504L269.243 310.31L269.774 305.545H274.972V306.769H270.961L270.661 309.414H270.716C270.901 309.236 271.145 309.086 271.45 308.966C271.758 308.846 272.087 308.786 272.438 308.786C273.013 308.786 273.526 308.923 273.975 309.197C274.428 309.471 274.783 309.845 275.042 310.319C275.303 310.79 275.432 311.331 275.429 311.944C275.432 312.556 275.294 313.103 275.014 313.583C274.737 314.063 274.352 314.441 273.86 314.718C273.37 314.992 272.809 315.129 272.175 315.129Z" fill="#333333"/>
<path d="M307.496 305.545V315H306.065V306.977H306.01L303.748 308.454V307.087L306.107 305.545H307.496ZM313.355 315.129C312.933 315.123 312.518 315.046 312.108 314.898C311.702 314.751 311.333 314.504 311 314.16C310.668 313.815 310.402 313.352 310.202 312.77C310.005 312.189 309.906 311.462 309.906 310.591C309.906 309.766 309.988 309.034 310.151 308.394C310.317 307.754 310.556 307.214 310.866 306.773C311.177 306.33 311.553 305.993 311.993 305.762C312.433 305.532 312.927 305.416 313.475 305.416C314.038 305.416 314.538 305.527 314.975 305.749C315.412 305.97 315.766 306.276 316.037 306.667C316.311 307.058 316.485 307.503 316.559 308.001H315.151C315.055 307.607 314.866 307.286 314.583 307.037C314.3 306.787 313.93 306.663 313.475 306.663C312.782 306.663 312.242 306.964 311.854 307.567C311.47 308.171 311.276 309.009 311.273 310.083H311.342C311.505 309.816 311.705 309.588 311.942 309.4C312.182 309.209 312.45 309.063 312.745 308.962C313.044 308.857 313.358 308.805 313.687 308.805C314.235 308.805 314.73 308.939 315.174 309.206C315.62 309.471 315.975 309.837 316.24 310.305C316.505 310.773 316.637 311.308 316.637 311.912C316.637 312.515 316.5 313.061 316.226 313.55C315.955 314.04 315.574 314.428 315.081 314.714C314.589 314.997 314.013 315.135 313.355 315.129ZM313.35 313.929C313.713 313.929 314.038 313.84 314.324 313.661C314.61 313.483 314.837 313.243 315.003 312.941C315.169 312.639 315.252 312.302 315.252 311.93C315.252 311.567 315.171 311.236 315.007 310.938C314.847 310.639 314.626 310.402 314.343 310.227C314.063 310.051 313.743 309.963 313.382 309.963C313.109 309.963 312.855 310.016 312.621 310.12C312.39 310.225 312.187 310.37 312.011 310.554C311.836 310.739 311.697 310.951 311.596 311.191C311.497 311.428 311.448 311.679 311.448 311.944C311.448 312.298 311.53 312.626 311.693 312.927C311.859 313.229 312.085 313.472 312.371 313.657C312.661 313.838 312.987 313.929 313.35 313.929Z" fill="#333333"/>
<path d="M10.5302 122.129C9.95159 122.129 9.43146 122.018 8.96982 121.797C8.51125 121.572 8.145 121.264 7.87109 120.874C7.59718 120.483 7.45099 120.036 7.43253 119.535H8.81747C8.85133 119.941 9.03137 120.275 9.3576 120.537C9.68383 120.798 10.0747 120.929 10.5302 120.929C10.8933 120.929 11.215 120.846 11.495 120.68C11.7782 120.51 11.9998 120.278 12.1598 119.983C12.3229 119.687 12.4045 119.35 12.4045 118.972C12.4045 118.587 12.3214 118.244 12.1552 117.942C11.989 117.641 11.7597 117.404 11.4673 117.231C11.178 117.059 10.8456 116.971 10.4702 116.968C10.1839 116.968 9.89619 117.017 9.60689 117.116C9.31759 117.214 9.08369 117.344 8.90518 117.504L7.59872 117.31L8.12962 112.545H13.3278V113.769H9.31605L9.01598 116.414H9.07138C9.25604 116.236 9.50071 116.086 9.8054 115.966C10.1132 115.846 10.4425 115.786 10.7933 115.786C11.3688 115.786 11.8813 115.923 12.3306 116.197C12.783 116.471 13.1385 116.845 13.397 117.319C13.6586 117.79 13.7879 118.331 13.7848 118.944C13.7879 119.556 13.6494 120.103 13.3693 120.583C13.0923 121.063 12.7076 121.441 12.2152 121.718C11.7259 121.992 11.1642 122.129 10.5302 122.129ZM19.058 112.545V122H17.6269V113.977H17.5715L15.3094 115.454V114.087L17.6684 112.545H19.058ZM24.7362 122.129C24.1576 122.129 23.6375 122.018 23.1759 121.797C22.7173 121.572 22.3511 121.264 22.0771 120.874C21.8032 120.483 21.657 120.036 21.6386 119.535H23.0235C23.0574 119.941 23.2374 120.275 23.5637 120.537C23.8899 120.798 24.2807 120.929 24.7362 120.929C25.0994 120.929 25.421 120.846 25.7011 120.68C25.9842 120.51 26.2058 120.278 26.3659 119.983C26.529 119.687 26.6105 119.35 26.6105 118.972C26.6105 118.587 26.5274 118.244 26.3612 117.942C26.195 117.641 25.9658 117.404 25.6734 117.231C25.3841 117.059 25.0517 116.971 24.6762 116.968C24.39 116.968 24.1022 117.017 23.8129 117.116C23.5236 117.214 23.2897 117.344 23.1112 117.504L21.8048 117.31L22.3357 112.545H27.5338V113.769H23.5221L23.222 116.414H23.2774C23.4621 116.236 23.7068 116.086 24.0115 115.966C24.3192 115.846 24.6485 115.786 24.9994 115.786C25.5749 115.786 26.0873 115.923 26.5367 116.197C26.9891 116.471 27.3445 116.845 27.6031 117.319C27.8647 117.79 27.9939 118.331 27.9909 118.944C27.9939 119.556 27.8554 120.103 27.5754 120.583C27.2984 121.063 26.9137 121.441 26.4213 121.718C25.9319 121.992 25.3702 122.129 24.7362 122.129Z" fill="#333333"/>
<path d="M7.21094 154.153V152.999L11.2965 146.545H12.206V148.244H11.6289L8.70668 152.87V152.944H14.3065V154.153H7.21094ZM11.6935 156V153.803L11.7028 153.276V146.545H13.0554V156H11.6935ZM19.3754 146.545V156H17.9442V147.977H17.8888L15.6268 149.454V148.087L17.9858 146.545H19.3754ZM21.9329 156V154.966L25.1321 151.651C25.4737 151.291 25.7553 150.976 25.9769 150.705C26.2016 150.431 26.3693 150.171 26.4801 149.925C26.5909 149.679 26.6463 149.417 26.6463 149.14C26.6463 148.826 26.5724 148.555 26.4247 148.327C26.277 148.097 26.0754 147.92 25.82 147.797C25.5645 147.67 25.2768 147.607 24.9567 147.607C24.6181 147.607 24.3227 147.676 24.0703 147.815C23.8179 147.953 23.6241 148.149 23.4886 148.401C23.3532 148.654 23.2855 148.949 23.2855 149.288H21.9237C21.9237 148.712 22.056 148.209 22.3207 147.778C22.5853 147.347 22.9485 147.013 23.4102 146.776C23.8718 146.536 24.3965 146.416 24.9844 146.416C25.5784 146.416 26.1016 146.535 26.554 146.772C27.0095 147.006 27.3649 147.326 27.6204 147.732C27.8758 148.135 28.0036 148.591 28.0036 149.098C28.0036 149.449 27.9374 149.792 27.805 150.128C27.6758 150.463 27.4496 150.837 27.1264 151.25C26.8033 151.659 26.3539 152.156 25.7784 152.741L23.8995 154.707V154.777H28.1559V156H21.9329Z" fill="#333333"/>
<path d="M9.20099 190.129C8.567 190.129 8.00071 190.02 7.50213 189.801C7.00663 189.583 6.61423 189.28 6.32493 188.892C6.03871 188.501 5.88482 188.049 5.86328 187.535H7.31286C7.33132 187.815 7.42519 188.058 7.59446 188.264C7.76681 188.467 7.99148 188.624 8.26847 188.735C8.54545 188.846 8.85322 188.901 9.19176 188.901C9.56416 188.901 9.89347 188.837 10.1797 188.707C10.469 188.578 10.6952 188.398 10.8583 188.167C11.0214 187.933 11.103 187.664 11.103 187.359C11.103 187.042 11.0214 186.764 10.8583 186.524C10.6983 186.281 10.4628 186.09 10.152 185.951C9.84422 185.813 9.47183 185.744 9.0348 185.744H8.23615V184.58H9.0348C9.38565 184.58 9.69342 184.517 9.9581 184.391C10.2259 184.265 10.4351 184.089 10.5859 183.865C10.7367 183.637 10.8121 183.371 10.8121 183.066C10.8121 182.774 10.746 182.52 10.6136 182.304C10.4844 182.086 10.2997 181.915 10.0597 181.792C9.82268 181.669 9.54261 181.607 9.21946 181.607C8.9117 181.607 8.62393 181.664 8.35618 181.778C8.0915 181.889 7.87607 182.049 7.70987 182.258C7.54368 182.464 7.45443 182.712 7.44212 183.001H6.06179C6.07718 182.491 6.22798 182.041 6.5142 181.653C6.8035 181.266 7.18513 180.962 7.65909 180.744C8.13305 180.525 8.65933 180.416 9.23793 180.416C9.84422 180.416 10.3674 180.535 10.8075 180.772C11.2507 181.006 11.5923 181.318 11.8324 181.709C12.0755 182.1 12.1955 182.527 12.1925 182.992C12.1955 183.522 12.0478 183.971 11.7493 184.34C11.4538 184.71 11.0599 184.957 10.5675 185.083V185.157C11.1953 185.253 11.6816 185.502 12.0263 185.905C12.3741 186.308 12.5464 186.808 12.5433 187.406C12.5464 187.926 12.4018 188.392 12.1094 188.804C11.8201 189.217 11.4246 189.541 10.9229 189.778C10.4213 190.012 9.8473 190.129 9.20099 190.129ZM17.5799 190.157C16.8505 190.154 16.2273 189.962 15.7102 189.58C15.1932 189.198 14.7977 188.643 14.5238 187.913C14.2499 187.184 14.1129 186.305 14.1129 185.277C14.1129 184.252 14.2499 183.377 14.5238 182.651C14.8008 181.924 15.1978 181.37 15.7148 180.989C16.235 180.607 16.8567 180.416 17.5799 180.416C18.3031 180.416 18.9233 180.609 19.4403 180.993C19.9574 181.375 20.3529 181.929 20.6268 182.655C20.9038 183.378 21.0423 184.252 21.0423 185.277C21.0423 186.308 20.9053 187.189 20.6314 187.918C20.3575 188.644 19.962 189.2 19.445 189.585C18.9279 189.966 18.3062 190.157 17.5799 190.157ZM17.5799 188.924C18.2201 188.924 18.7202 188.612 19.0803 187.987C19.4434 187.362 19.625 186.459 19.625 185.277C19.625 184.493 19.5419 183.829 19.3757 183.288C19.2126 182.743 18.9772 182.33 18.6694 182.05C18.3647 181.767 18.0015 181.626 17.5799 181.626C16.9428 181.626 16.4427 181.94 16.0795 182.567C15.7164 183.195 15.5333 184.099 15.5302 185.277C15.5302 186.065 15.6117 186.732 15.7749 187.276C15.9411 187.818 16.1765 188.229 16.4812 188.509C16.7859 188.786 17.1521 188.924 17.5799 188.924ZM25.8238 180.416C26.2454 180.419 26.6609 180.496 27.0702 180.647C27.4796 180.798 27.8489 181.044 28.1782 181.386C28.5106 181.727 28.7752 182.189 28.9722 182.771C29.1723 183.349 29.2738 184.069 29.2769 184.931C29.2769 185.759 29.1938 186.496 29.0276 187.142C28.8614 187.786 28.6229 188.329 28.3121 188.772C28.0043 189.215 27.6304 189.552 27.1903 189.783C26.7501 190.014 26.2546 190.129 25.7037 190.129C25.1405 190.129 24.6404 190.018 24.2034 189.797C23.7664 189.575 23.4109 189.269 23.137 188.878C22.8631 188.484 22.6923 188.032 22.6246 187.521H24.0326C24.1249 187.927 24.3126 188.257 24.5958 188.509C24.882 188.758 25.2513 188.883 25.7037 188.883C26.3962 188.883 26.9363 188.581 27.3241 187.978C27.7119 187.372 27.9073 186.525 27.9104 185.439H27.8366C27.6765 185.704 27.4765 185.931 27.2364 186.122C26.9994 186.313 26.7332 186.461 26.4378 186.565C26.1423 186.67 25.8269 186.722 25.4914 186.722C24.9466 186.722 24.4511 186.588 24.0049 186.321C23.5586 186.053 23.2032 185.685 22.9385 185.217C22.6738 184.75 22.5415 184.216 22.5415 183.615C22.5415 183.018 22.6769 182.477 22.9477 181.99C23.2216 181.504 23.6032 181.119 24.0926 180.836C24.585 180.55 25.1621 180.41 25.8238 180.416ZM25.8284 181.616C25.4683 181.616 25.1436 181.706 24.8543 181.884C24.5681 182.06 24.3419 182.298 24.1757 182.6C24.0095 182.898 23.9264 183.231 23.9264 183.597C23.9264 183.963 24.0064 184.296 24.1665 184.594C24.3296 184.89 24.5512 185.125 24.8312 185.3C25.1144 185.473 25.4375 185.559 25.8007 185.559C26.0715 185.559 26.3239 185.507 26.5578 185.402C26.7917 185.297 26.9964 185.153 27.1718 184.968C27.3472 184.78 27.4842 184.568 27.5827 184.331C27.6811 184.094 27.7304 183.845 27.7304 183.583C27.7304 183.235 27.6473 182.912 27.4811 182.614C27.318 182.315 27.0933 182.075 26.8071 181.893C26.5209 181.709 26.1946 181.616 25.8284 181.616Z" fill="#333333"/>
<path d="M6.40945 224V222.966L9.60867 219.651C9.95028 219.291 10.2319 218.976 10.4535 218.705C10.6781 218.431 10.8459 218.171 10.9567 217.925C11.0675 217.679 11.1229 217.417 11.1229 217.14C11.1229 216.826 11.049 216.555 10.9013 216.327C10.7536 216.097 10.552 215.92 10.2965 215.797C10.0411 215.67 9.75331 215.607 9.43324 215.607C9.0947 215.607 8.79924 215.676 8.54688 215.815C8.29451 215.953 8.10062 216.149 7.9652 216.401C7.82978 216.654 7.76207 216.949 7.76207 217.288H6.40021C6.40021 216.712 6.53255 216.209 6.79723 215.778C7.06191 215.347 7.42507 215.013 7.88672 214.776C8.34837 214.536 8.87311 214.416 9.46094 214.416C10.0549 214.416 10.5781 214.535 11.0305 214.772C11.486 215.006 11.8415 215.326 12.0969 215.732C12.3524 216.135 12.4801 216.591 12.4801 217.098C12.4801 217.449 12.4139 217.792 12.2816 218.128C12.1523 218.463 11.9261 218.837 11.603 219.25C11.2798 219.659 10.8305 220.156 10.255 220.741L8.37607 222.707V222.777H12.6325V224H6.40945ZM17.6737 224.157C16.9442 224.154 16.321 223.962 15.804 223.58C15.2869 223.198 14.8915 222.643 14.6175 221.913C14.3436 221.184 14.2067 220.305 14.2067 219.277C14.2067 218.252 14.3436 217.377 14.6175 216.651C14.8945 215.924 15.2915 215.37 15.8086 214.989C16.3287 214.607 16.9504 214.416 17.6737 214.416C18.3969 214.416 19.017 214.609 19.5341 214.993C20.0511 215.375 20.4466 215.929 20.7205 216.655C20.9975 217.378 21.136 218.252 21.136 219.277C21.136 220.308 20.9991 221.189 20.7251 221.918C20.4512 222.644 20.0558 223.2 19.5387 223.585C19.0217 223.966 18.4 224.157 17.6737 224.157ZM17.6737 222.924C18.3138 222.924 18.8139 222.612 19.174 221.987C19.5372 221.362 19.7188 220.459 19.7188 219.277C19.7188 218.493 19.6357 217.829 19.4695 217.288C19.3063 216.743 19.0709 216.33 18.7631 216.05C18.4585 215.767 18.0953 215.626 17.6737 215.626C17.0366 215.626 16.5365 215.94 16.1733 216.567C15.8101 217.195 15.627 218.099 15.6239 219.277C15.6239 220.065 15.7055 220.732 15.8686 221.276C16.0348 221.818 16.2702 222.229 16.5749 222.509C16.8796 222.786 17.2459 222.924 17.6737 222.924ZM26.0745 224.129C25.6528 224.123 25.2374 224.046 24.828 223.898C24.4218 223.751 24.0525 223.504 23.7201 223.16C23.3877 222.815 23.1215 222.352 22.9214 221.77C22.7245 221.189 22.626 220.462 22.626 219.591C22.626 218.766 22.7075 218.034 22.8706 217.394C23.0368 216.754 23.2754 216.214 23.5862 215.773C23.897 215.33 24.2725 214.993 24.7126 214.762C25.1527 214.532 25.6467 214.416 26.1945 214.416C26.7577 214.416 27.2578 214.527 27.6949 214.749C28.1319 214.97 28.4858 215.276 28.7567 215.667C29.0306 216.058 29.2045 216.503 29.2783 217.001H27.8703C27.7749 216.607 27.5856 216.286 27.3025 216.037C27.0193 215.787 26.65 215.663 26.1945 215.663C25.502 215.663 24.9619 215.964 24.5741 216.567C24.1894 217.171 23.9955 218.009 23.9925 219.083H24.0617C24.2248 218.816 24.4249 218.588 24.6618 218.4C24.9019 218.209 25.1697 218.063 25.4651 217.962C25.7636 217.857 26.0776 217.805 26.4069 217.805C26.9547 217.805 27.4502 217.939 27.8934 218.206C28.3396 218.471 28.6951 218.837 28.9598 219.305C29.2245 219.773 29.3568 220.308 29.3568 220.912C29.3568 221.515 29.2198 222.061 28.9459 222.55C28.6751 223.04 28.2935 223.428 27.801 223.714C27.3086 223.997 26.7331 224.135 26.0745 224.129ZM26.0699 222.929C26.433 222.929 26.7577 222.84 27.0439 222.661C27.3302 222.483 27.5564 222.243 27.7226 221.941C27.8888 221.639 27.9719 221.302 27.9719 220.93C27.9719 220.567 27.8903 220.236 27.7272 219.938C27.5671 219.639 27.3456 219.402 27.0624 219.227C26.7823 219.051 26.4623 218.963 26.1022 218.963C25.8283 218.963 25.5744 219.016 25.3405 219.12C25.1096 219.225 24.9065 219.37 24.7311 219.554C24.5557 219.739 24.4172 219.951 24.3156 220.191C24.2171 220.428 24.1679 220.679 24.1679 220.944C24.1679 221.298 24.2494 221.626 24.4126 221.927C24.5787 222.229 24.805 222.472 25.0912 222.657C25.3805 222.838 25.7067 222.929 26.0699 222.929Z" fill="#333333"/>
<path d="M10.9964 248.545V258H9.56534V249.977H9.50994L7.24787 251.454V250.087L9.60689 248.545H10.9964ZM16.8455 258.157C16.1161 258.154 15.4929 257.962 14.9759 257.58C14.4588 257.198 14.0633 256.643 13.7894 255.913C13.5155 255.184 13.3786 254.305 13.3786 253.277C13.3786 252.252 13.5155 251.377 13.7894 250.651C14.0664 249.924 14.4634 249.37 14.9805 248.989C15.5006 248.607 16.1223 248.416 16.8455 248.416C17.5688 248.416 18.1889 248.609 18.706 248.993C19.223 249.375 19.6185 249.929 19.8924 250.655C20.1694 251.378 20.3079 252.252 20.3079 253.277C20.3079 254.308 20.1709 255.189 19.897 255.918C19.6231 256.644 19.2276 257.2 18.7106 257.585C18.1935 257.966 17.5719 258.157 16.8455 258.157ZM16.8455 256.924C17.4857 256.924 17.9858 256.612 18.3459 255.987C18.709 255.362 18.8906 254.459 18.8906 253.277C18.8906 252.493 18.8075 251.829 18.6413 251.288C18.4782 250.743 18.2428 250.33 17.935 250.05C17.6303 249.767 17.2672 249.626 16.8455 249.626C16.2085 249.626 15.7083 249.94 15.3452 250.567C14.982 251.195 14.7989 252.099 14.7958 253.277C14.7958 254.065 14.8774 254.732 15.0405 255.276C15.2067 255.818 15.4421 256.229 15.7468 256.509C16.0515 256.786 16.4177 256.924 16.8455 256.924ZM25.2371 258.129C24.6031 258.129 24.0368 258.02 23.5383 257.801C23.0428 257.583 22.6504 257.28 22.3611 256.892C22.0748 256.501 21.921 256.049 21.8994 255.535H23.349C23.3675 255.815 23.4613 256.058 23.6306 256.264C23.8029 256.467 24.0276 256.624 24.3046 256.735C24.5816 256.846 24.8894 256.901 25.2279 256.901C25.6003 256.901 25.9296 256.837 26.2158 256.707C26.5051 256.578 26.7313 256.398 26.8944 256.167C27.0576 255.933 27.1391 255.664 27.1391 255.359C27.1391 255.042 27.0576 254.764 26.8944 254.524C26.7344 254.281 26.499 254.09 26.1881 253.951C25.8804 253.813 25.508 253.744 25.0709 253.744H24.2723V252.58H25.0709C25.4218 252.58 25.7296 252.517 25.9942 252.391C26.262 252.265 26.4713 252.089 26.6221 251.865C26.7729 251.637 26.8483 251.371 26.8483 251.066C26.8483 250.774 26.7821 250.52 26.6498 250.304C26.5205 250.086 26.3358 249.915 26.0958 249.792C25.8588 249.669 25.5787 249.607 25.2556 249.607C24.9478 249.607 24.6601 249.664 24.3923 249.778C24.1276 249.889 23.9122 250.049 23.746 250.258C23.5798 250.464 23.4906 250.712 23.4782 251.001H22.0979C22.1133 250.491 22.2641 250.041 22.5503 249.653C22.8396 249.266 23.2213 248.962 23.6952 248.744C24.1692 248.525 24.6955 248.416 25.2741 248.416C25.8804 248.416 26.4036 248.535 26.8437 248.772C27.2868 249.006 27.6285 249.318 27.8685 249.709C28.1117 250.1 28.2317 250.527 28.2286 250.992C28.2317 251.522 28.084 251.971 27.7854 252.34C27.49 252.71 27.096 252.957 26.6036 253.083V253.157C27.2314 253.253 27.7177 253.502 28.0624 253.905C28.4102 254.308 28.5825 254.808 28.5795 255.406C28.5825 255.926 28.4379 256.392 28.1455 256.804C27.8562 257.217 27.4607 257.541 26.9591 257.778C26.4574 258.012 25.8834 258.129 25.2371 258.129Z" fill="#333333"/>
<path d="M17.701 292.157C16.9716 292.154 16.3484 291.962 15.8313 291.58C15.3143 291.198 14.9188 290.643 14.6449 289.913C14.371 289.184 14.234 288.305 14.234 287.277C14.234 286.252 14.371 285.377 14.6449 284.651C14.9219 283.924 15.3189 283.37 15.8359 282.989C16.3561 282.607 16.9777 282.416 17.701 282.416C18.4242 282.416 19.0444 282.609 19.5614 282.993C20.0785 283.375 20.474 283.929 20.7479 284.655C21.0249 285.378 21.1634 286.252 21.1634 287.277C21.1634 288.308 21.0264 289.189 20.7525 289.918C20.4786 290.644 20.0831 291.2 19.5661 291.585C19.049 291.966 18.4273 292.157 17.701 292.157ZM17.701 290.924C18.3411 290.924 18.8413 290.612 19.2013 289.987C19.5645 289.362 19.7461 288.459 19.7461 287.277C19.7461 286.493 19.663 285.829 19.4968 285.288C19.3337 284.743 19.0982 284.33 18.7905 284.05C18.4858 283.767 18.1226 283.626 17.701 283.626C17.0639 283.626 16.5638 283.94 16.2006 284.567C15.8375 285.195 15.6544 286.099 15.6513 287.277C15.6513 288.065 15.7328 288.732 15.896 289.276C16.0621 289.818 16.2976 290.229 16.6023 290.509C16.907 290.786 17.2732 290.924 17.701 290.924Z" fill="#333333"/>
<path d="M36 117H50" stroke="#333333" stroke-width="0.5" stroke-linecap="round" stroke-dasharray="1 1"/>
<path d="M36 151H50" stroke="#333333" stroke-width="0.5" stroke-linecap="round" stroke-dasharray="1 1"/>
<path d="M36 185H50" stroke="#333333" stroke-width="0.5" stroke-linecap="round" stroke-dasharray="1 1"/>
<path d="M36 219H50" stroke="#333333" stroke-width="0.5" stroke-linecap="round" stroke-dasharray="1 1"/>
<path d="M36 253H50" stroke="#333333" stroke-width="0.5" stroke-linecap="round" stroke-dasharray="1 1"/>
<rect x="60.5" y="106" width="11.7105" height="156.424" rx="5.85526" fill="#FCC21B"/>
<rect x="60.5" y="240" width="12" height="44" rx="6" fill="#0D6464"/>
<rect x="100.5" y="106" width="11.7105" height="156.424" rx="5.85526" fill="#FCC21B"/>
<rect x="100.5" y="226" width="12" height="58" rx="6" fill="#0D6464"/>
<rect x="140.5" y="106" width="11.7105" height="156.424" rx="5.85526" fill="#FCC21B"/>
<rect x="140.5" y="212" width="12" height="72" rx="6" fill="#0D6464"/>
<rect x="180.5" y="106" width="11.7105" height="156.424" rx="5.85526" fill="#FCC21B"/>
<rect x="180.5" y="243" width="12" height="41" rx="6" fill="#0D6464"/>
<rect x="220.5" y="106" width="11.7105" height="156.424" rx="5.85526" fill="#FCC21B"/>
<rect x="220.5" y="253" width="12" height="31" rx="6" fill="#0D6464"/>
<rect x="260.5" y="106" width="11.7105" height="156.424" rx="5.85526" fill="#FCC21B"/>
<rect x="260.5" y="190" width="12" height="94" rx="6" fill="#0D6464"/>
<rect x="300.5" y="106" width="11.7105" height="156.424" rx="5.85526" fill="#FCC21B"/>
<rect x="300.5" y="240" width="12" height="44" rx="6" fill="#0D6464"/>
<path d="M36 288H337" stroke="#0D6464" stroke-width="0.5" stroke-linecap="round" stroke-dasharray="1 1"/>
<path d="M15.2514 67.2727C15.2514 68.2822 15.0668 69.1501 14.6974 69.8764C14.3281 70.5997 13.8219 71.1567 13.1786 71.5476C12.5385 71.9354 11.8106 72.1293 10.995 72.1293C10.1764 72.1293 9.44543 71.9354 8.8022 71.5476C8.16205 71.1567 7.65732 70.5981 7.288 69.8718C6.91868 69.1455 6.73402 68.2791 6.73402 67.2727C6.73402 66.2633 6.91868 65.3969 7.288 64.6737C7.65732 63.9473 8.16205 63.3903 8.8022 63.0025C9.44543 62.6116 10.1764 62.4162 10.995 62.4162C11.8106 62.4162 12.5385 62.6116 13.1786 63.0025C13.8219 63.3903 14.3281 63.9473 14.6974 64.6737C15.0668 65.3969 15.2514 66.2633 15.2514 67.2727ZM13.8388 67.2727C13.8388 66.5033 13.7141 65.8555 13.4648 65.3292C13.2186 64.7998 12.8801 64.3997 12.4492 64.1289C12.0214 63.855 11.5367 63.718 10.995 63.718C10.4503 63.718 9.96402 63.855 9.53622 64.1289C9.10843 64.3997 8.76989 64.7998 8.5206 65.3292C8.27438 65.8555 8.15128 66.5033 8.15128 67.2727C8.15128 68.0421 8.27438 68.6915 8.5206 69.2209C8.76989 69.7472 9.10843 70.1473 9.53622 70.4212C9.96402 70.692 10.4503 70.8274 10.995 70.8274C11.5367 70.8274 12.0214 70.692 12.4492 70.4212C12.8801 70.1473 13.2186 69.7472 13.4648 69.2209C13.7141 68.6915 13.8388 68.0421 13.8388 67.2727ZM19.906 72.1431C19.2197 72.1431 18.6288 71.9877 18.1333 71.6768C17.6408 71.3629 17.2623 70.9305 16.9976 70.3796C16.7329 69.8287 16.6006 69.1978 16.6006 68.4869C16.6006 67.7667 16.736 67.1312 17.0068 66.5803C17.2777 66.0263 17.6593 65.5939 18.1517 65.283C18.6441 64.9722 19.2243 64.8168 19.8921 64.8168C20.4307 64.8168 20.9108 64.9168 21.3325 65.1168C21.7541 65.3138 22.0942 65.5908 22.3527 65.9478C22.6143 66.3048 22.7697 66.7218 22.819 67.1989H21.4756C21.4017 66.8665 21.2325 66.5803 20.9678 66.3402C20.7062 66.1001 20.3553 65.9801 19.9152 65.9801C19.5305 65.9801 19.1935 66.0817 18.9042 66.2848C18.618 66.4848 18.3949 66.7711 18.2348 67.1435C18.0748 67.5128 17.9948 67.9498 17.9948 68.4545C17.9948 68.9716 18.0732 69.4179 18.2302 69.7933C18.3872 70.1688 18.6088 70.4596 18.895 70.6658C19.1843 70.872 19.5244 70.9751 19.9152 70.9751C20.1768 70.9751 20.4138 70.9274 20.6262 70.832C20.8416 70.7335 21.0216 70.5935 21.1663 70.4119C21.314 70.2304 21.4171 70.0118 21.4756 69.7564H22.819C22.7697 70.215 22.6205 70.6243 22.3712 70.9844C22.1219 71.3445 21.788 71.6276 21.3694 71.8338C20.9539 72.04 20.4661 72.1431 19.906 72.1431ZM27.6051 64.9091V66.017H23.7319V64.9091H27.6051ZM24.7706 63.2102H26.1509V69.918C26.1509 70.1857 26.1909 70.3873 26.271 70.5227C26.351 70.6551 26.4541 70.7459 26.5803 70.7951C26.7095 70.8413 26.8496 70.8643 27.0004 70.8643C27.1112 70.8643 27.2081 70.8567 27.2912 70.8413C27.3743 70.8259 27.4389 70.8136 27.4851 70.8043L27.7344 71.9446C27.6544 71.9754 27.5405 72.0062 27.3928 72.0369C27.245 72.0708 27.0604 72.0893 26.8388 72.0923C26.4756 72.0985 26.1371 72.0339 25.8232 71.8984C25.5092 71.763 25.2553 71.5537 25.0614 71.2706C24.8675 70.9875 24.7706 70.632 24.7706 70.2042V63.2102ZM32.0427 72.1431C31.3779 72.1431 30.7978 71.9908 30.3023 71.6861C29.8068 71.3814 29.4221 70.9551 29.1482 70.4073C28.8743 69.8595 28.7373 69.2193 28.7373 68.4869C28.7373 67.7513 28.8743 67.1081 29.1482 66.5572C29.4221 66.0063 29.8068 65.5785 30.3023 65.2738C30.7978 64.9691 31.3779 64.8168 32.0427 64.8168C32.7075 64.8168 33.2876 64.9691 33.7831 65.2738C34.2786 65.5785 34.6633 66.0063 34.9372 66.5572C35.2111 67.1081 35.3481 67.7513 35.3481 68.4869C35.3481 69.2193 35.2111 69.8595 34.9372 70.4073C34.6633 70.9551 34.2786 71.3814 33.7831 71.6861C33.2876 71.9908 32.7075 72.1431 32.0427 72.1431ZM32.0473 70.9844C32.4782 70.9844 32.8352 70.8705 33.1183 70.6428C33.4015 70.415 33.6108 70.1119 33.7462 69.7333C33.8847 69.3548 33.9539 68.9377 33.9539 68.4822C33.9539 68.0298 33.8847 67.6143 33.7462 67.2358C33.6108 66.8542 33.4015 66.5479 33.1183 66.3171C32.8352 66.0863 32.4782 65.9709 32.0473 65.9709C31.6134 65.9709 31.2533 66.0863 30.9671 66.3171C30.6839 66.5479 30.4731 66.8542 30.3346 67.2358C30.1992 67.6143 30.1315 68.0298 30.1315 68.4822C30.1315 68.9377 30.1992 69.3548 30.3346 69.7333C30.4731 70.1119 30.6839 70.415 30.9671 70.6428C31.2533 70.8705 31.6134 70.9844 32.0473 70.9844ZM36.9996 72V62.5455H38.38V66.0586H38.4631C38.5431 65.9109 38.6585 65.7401 38.8093 65.5462C38.9601 65.3523 39.1694 65.183 39.4371 65.0384C39.7049 64.8906 40.0588 64.8168 40.4989 64.8168C41.0714 64.8168 41.5823 64.9614 42.0316 65.2507C42.4809 65.54 42.8333 65.957 43.0888 66.5018C43.3473 67.0465 43.4766 67.7021 43.4766 68.4684C43.4766 69.2347 43.3488 69.8918 43.0934 70.4396C42.8379 70.9844 42.4871 71.4045 42.0408 71.6999C41.5946 71.9923 41.0852 72.1385 40.5128 72.1385C40.0819 72.1385 39.7295 72.0662 39.4556 71.9215C39.1848 71.7769 38.9724 71.6076 38.8185 71.4137C38.6647 71.2198 38.5462 71.0475 38.4631 70.8967H38.3477V72H36.9996ZM38.3523 68.4545C38.3523 68.9531 38.4246 69.3902 38.5692 69.7656C38.7139 70.1411 38.9232 70.435 39.1971 70.6474C39.471 70.8567 39.8065 70.9613 40.2035 70.9613C40.6159 70.9613 40.9606 70.852 41.2376 70.6335C41.5146 70.4119 41.7238 70.1119 41.8654 69.7333C42.0101 69.3548 42.0824 68.9285 42.0824 68.4545C42.0824 67.9867 42.0116 67.5666 41.87 67.1942C41.7315 66.8219 41.5223 66.5279 41.2422 66.3125C40.9652 66.0971 40.619 65.9893 40.2035 65.9893C39.8034 65.9893 39.4648 66.0924 39.1879 66.2987C38.9139 66.5049 38.7062 66.7926 38.5646 67.1619C38.4231 67.5312 38.3523 67.9621 38.3523 68.4545ZM48.0827 72.1431C47.384 72.1431 46.7823 71.9938 46.2776 71.6953C45.776 71.3937 45.3882 70.9705 45.1143 70.4258C44.8434 69.878 44.708 69.2363 44.708 68.5007C44.708 67.7744 44.8434 67.1342 45.1143 66.5803C45.3882 66.0263 45.7698 65.5939 46.2591 65.283C46.7516 64.9722 47.3271 64.8168 47.9857 64.8168C48.3858 64.8168 48.7736 64.8829 49.1491 65.0153C49.5245 65.1476 49.8615 65.3554 50.1601 65.6385C50.4586 65.9216 50.694 66.2894 50.8664 66.7418C51.0387 67.1912 51.1249 67.7375 51.1249 68.3807V68.87H45.4882V67.8359H49.7723C49.7723 67.4728 49.6984 67.1512 49.5507 66.8711C49.403 66.5879 49.1952 66.3648 48.9275 66.2017C48.6628 66.0386 48.3519 65.957 47.9949 65.957C47.6072 65.957 47.2686 66.0524 46.9793 66.2433C46.6931 66.431 46.4715 66.6772 46.3145 66.9819C46.1607 67.2835 46.0837 67.6113 46.0837 67.9652V68.7731C46.0837 69.247 46.1668 69.6502 46.333 69.9826C46.5023 70.315 46.7377 70.5689 47.0393 70.7443C47.3409 70.9167 47.6933 71.0028 48.0965 71.0028C48.3581 71.0028 48.5966 70.9659 48.8121 70.892C49.0275 70.8151 49.2137 70.7012 49.3706 70.5504C49.5276 70.3996 49.6476 70.2134 49.7307 69.9918L51.0372 70.2273C50.9326 70.612 50.7448 70.949 50.474 71.2383C50.2062 71.5245 49.8692 71.7476 49.463 71.9077C49.0598 72.0646 48.5997 72.1431 48.0827 72.1431ZM52.6564 72V64.9091H53.9906V66.0355H54.0645C54.1937 65.6539 54.4215 65.3538 54.7477 65.1353C55.077 64.9137 55.4494 64.8029 55.8649 64.8029C55.9511 64.8029 56.0526 64.806 56.1696 64.8121C56.2896 64.8183 56.3835 64.826 56.4512 64.8352V66.1555C56.3958 66.1402 56.2973 66.1232 56.1557 66.1048C56.0141 66.0832 55.8726 66.0724 55.731 66.0724C55.4048 66.0724 55.1139 66.1417 54.8585 66.2802C54.6061 66.4156 54.4061 66.6049 54.2583 66.848C54.1106 67.0881 54.0368 67.362 54.0368 67.6697V72H52.6564Z" fill="#333333"/>
<path d="M75.0626 65.4194C75.1065 65.3757 75.1583 65.3415 75.2148 65.3188C75.2714 65.2961 75.3316 65.2853 75.3921 65.2871C75.4526 65.2889 75.5121 65.3032 75.5674 65.3293C75.6226 65.3553 75.6724 65.3925 75.714 65.4388C75.7555 65.4851 75.788 65.5396 75.8096 65.5991C75.8312 65.6586 75.8414 65.722 75.8397 65.7857C75.8379 65.8494 75.8243 65.912 75.7996 65.9702C75.7749 66.0283 75.7395 66.0808 75.6955 66.1245L71.5494 70.2464C71.4639 70.3315 71.3507 70.3789 71.233 70.3789C71.1152 70.3789 71.002 70.3315 70.9165 70.2464L66.7699 66.1245C66.725 66.081 66.6887 66.0286 66.6631 65.9703C66.6376 65.9119 66.6233 65.8488 66.6212 65.7846C66.619 65.7204 66.629 65.6564 66.6505 65.5963C66.6721 65.5362 66.7047 65.4812 66.7466 65.4345C66.7885 65.3878 66.8388 65.3503 66.8946 65.3242C66.9504 65.2981 67.0105 65.284 67.0715 65.2826C67.1326 65.2812 67.1932 65.2926 67.25 65.3161C67.3068 65.3395 67.3586 65.3747 67.4024 65.4194L69.8678 67.8701C70.6231 68.6208 71.8428 68.6207 72.5979 67.8699L75.0626 65.4194Z" fill="#333333"/>
</svg>
