<svg width="91" height="55" viewBox="0 0 91 55" fill="none" xmlns="http://www.w3.org/2000/svg">
<rect x="0.0546875" y="0.503174" width="10" height="47.2866" rx="5" fill="#FCC21B"/>
<rect x="0.0546875" y="24.1465" width="10" height="30.1656" rx="5" fill="#0D6464"/>
<rect x="16.0547" y="0.503174" width="10" height="47.2866" rx="5" fill="#FCC21B"/>
<rect x="16.0547" y="14.363" width="10" height="39.949" rx="5" fill="#0D6464"/>
<rect x="32.0547" y="0.503174" width="10" height="47.2866" rx="5" fill="#FCC21B"/>
<rect x="32.0547" y="19.2549" width="10" height="35.0573" rx="5" fill="#0D6464"/>
<rect x="48.0547" y="0.503174" width="10" height="47.2866" rx="5" fill="#FCC21B"/>
<rect x="48.0547" y="11.1018" width="10" height="43.2102" rx="5" fill="#0D6464"/>
<rect x="64.0547" y="0.503174" width="10" height="47.2866" rx="5" fill="#FCC21B"/>
<rect x="64.0547" y="35.5605" width="10" height="18.7516" rx="5" fill="#0D6464"/>
<rect x="80.0547" y="0.503174" width="10" height="47.2866" rx="5" fill="#FCC21B"/>
<rect x="80.0547" y="14.363" width="10" height="39.949" rx="5" fill="#0D6464"/>
</svg>
