<svg width="109" height="107" viewBox="0 0 109 107" fill="none" xmlns="http://www.w3.org/2000/svg">
<path d="M55.6154 14.4539C45.5829 14.1208 35.7862 17.568 28.2109 24.0967C20.6357 30.6253 15.8486 39.7471 14.82 49.6129C13.7915 59.4788 16.5984 69.3506 22.6718 77.2275C28.7452 85.1044 37.6308 90.397 47.5274 92.0326C57.4241 93.6681 67.5914 91.5243 75.9685 86.0355C84.3456 80.5467 90.3057 72.1237 92.6408 62.4738C94.976 52.8239 93.5113 42.669 88.5439 34.0674C83.5764 25.4659 75.4777 19.0613 65.8893 16.1518L63.4662 23.8732C71.0722 26.1812 77.4966 31.2617 81.4371 38.085C85.3775 44.9082 86.5394 52.9636 84.687 60.6185C82.8347 68.2734 78.1067 74.955 71.4615 79.309C64.8164 83.663 56.7511 85.3636 48.9005 84.0662C41.0499 82.7688 34.0014 78.5704 29.1836 72.322C24.3658 66.0736 22.1392 58.2427 22.9551 50.4165C23.771 42.5903 27.5684 35.3545 33.5775 30.1756C39.5867 24.9966 47.358 22.2621 55.3163 22.5263L55.6154 14.4539Z" fill="#FCC21B"/>
<path d="M89.3481 56.3027C91.5868 56.4811 93.5846 54.8166 93.5527 52.5812C93.4816 47.5792 92.4504 42.6327 90.5013 38.0126C88.0278 32.1495 84.1508 26.9892 79.2062 22.9788C74.2617 18.9685 68.3989 16.2291 62.1259 14.9983C57.1848 14.0287 52.1066 14.0182 47.1665 14.9532C44.9542 15.372 43.7136 17.6511 44.3389 19.7947C44.9655 21.9427 47.2293 23.1344 49.4564 22.7751C53.1086 22.186 56.8418 22.2443 60.4813 22.9584C65.4574 23.9348 70.1081 26.1078 74.0304 29.289C77.9527 32.4703 81.0282 36.5638 82.9903 41.2147C84.427 44.6203 85.235 48.2496 85.3875 51.9301C85.48 54.1652 87.1075 56.1243 89.3481 56.3027Z" fill="#0D6464"/>
<g clip-path="url(#clip0_358_4371)">
<path d="M41.0122 49.4711C40.3259 48.4838 40.7429 45.8552 41.094 44.607C41.4059 43.4983 42.6963 40.6342 43.6275 40.1123C43.6275 40.1123 44.8103 39.9596 45.2333 40.564C46.6184 42.5447 49.2953 46.9451 55.1697 43.3594C55.1697 43.3594 61.2225 48.6396 62.9724 49.6482C65.9772 51.3799 65.8566 52.2264 65.5545 53.3002C64.5873 56.7384 60.7043 55.1692 58.0726 54.271C56.6221 53.7759 42.6283 50.0222 41.0122 49.4711Z" fill="#0D6464"/>
<path d="M41.7013 47.0167C41.7013 47.0167 48.2838 48.2128 51.7166 50.2815C55.1495 52.3503 62.955 53.5418 62.955 53.5418L65.0514 54.1204C65.0514 54.1204 64.0321 56.3167 62.2093 55.8039C60.3865 55.291 40.7176 48.9889 40.7176 48.9889C40.7176 48.9889 39.8979 46.7474 41.7013 47.0167Z" fill="#0D6464"/>
<path d="M41.0161 49.4709C40.3298 48.4836 40.7468 45.855 41.0979 44.6068C41.4099 43.4981 42.7002 40.634 43.6314 40.112C43.6314 40.112 44.8142 39.9593 45.2372 40.5638C46.6223 42.5445 49.2992 46.9449 55.1736 43.3591C55.1736 43.3591 61.2264 48.6393 62.9763 49.6479C65.9812 51.3797 65.8605 52.2262 65.5585 53.2999C64.5912 56.7382 60.7082 55.1689 58.0765 54.2707C56.626 53.7756 42.6321 50.0224 41.016 49.4713" stroke="white" stroke-width="0.599982" stroke-miterlimit="10" stroke-linecap="round" stroke-linejoin="round"/>
<path d="M42.001 47.499C42.001 47.499 48.2901 48.2133 51.7232 50.2812C55.1563 52.3492 62.8498 53.9389 62.8498 53.9389M56.1071 46.811L53.4277 48.6036M57.9259 48.0958L56.06 49.3442" stroke="white" stroke-width="0.599982" stroke-miterlimit="10" stroke-linecap="round" stroke-linejoin="round"/>
<path d="M41.0161 49.4709C40.3298 48.4836 40.7468 45.855 41.0979 44.6068C41.4099 43.4981 42.7002 40.634 43.6314 40.112C43.6314 40.112 44.8142 39.9593 45.2372 40.5638C46.6223 42.5445 49.2992 46.9449 55.1736 43.3591C55.1736 43.3591 61.2264 48.6393 62.9763 49.6479C65.9812 51.3797 65.8605 52.2262 65.5585 53.2999C64.5912 56.7382 60.7082 55.1689 58.0765 54.2707C56.626 53.7756 42.6321 50.0224 41.016 49.4713" stroke="#0D6464" stroke-width="0.599982" stroke-miterlimit="10" stroke-linecap="round" stroke-linejoin="round"/>
</g>
<path d="M48.3018 66.9343V75.6616H46.7209V68.4727H46.6697L44.6286 69.7767V68.3278L46.7976 66.9343H48.3018ZM50.3601 74.0423V72.7852L54.0632 66.9343H55.1115V68.7241H54.4723L51.9794 72.6744V72.7426H57.1484V74.0423H50.3601ZM54.5234 75.6616V73.6588L54.5405 73.0963V66.9343H56.032V75.6616H54.5234ZM61.7358 75.8278C61.0341 75.8278 60.4318 75.6503 59.929 75.2951C59.429 74.9372 59.044 74.4216 58.7741 73.7483C58.5071 73.0721 58.3736 72.2582 58.3736 71.3065C58.3764 70.3548 58.5114 69.5451 58.7784 68.8775C59.0483 68.2071 59.4332 67.6957 59.9332 67.3434C60.4361 66.9912 61.0369 66.815 61.7358 66.815C62.4347 66.815 63.0355 66.9912 63.5384 67.3434C64.0412 67.6957 64.4261 68.2071 64.6932 68.8775C64.9631 69.548 65.098 70.3576 65.098 71.3065C65.098 72.2611 64.9631 73.0764 64.6932 73.7525C64.4261 74.4258 64.0412 74.94 63.5384 75.2951C63.0384 75.6503 62.4375 75.8278 61.7358 75.8278ZM61.7358 74.494C62.2813 74.494 62.7116 74.2255 63.027 73.6886C63.3452 73.1488 63.5043 72.3548 63.5043 71.3065C63.5043 70.6133 63.4318 70.0309 63.2869 69.5593C63.142 69.0878 62.9375 68.7326 62.6733 68.494C62.4091 68.2525 62.0966 68.1318 61.7358 68.1318C61.1932 68.1318 60.7642 68.4017 60.4489 68.9415C60.1335 69.4784 59.9744 70.2667 59.9716 71.3065C59.9688 72.0025 60.0384 72.5878 60.1804 73.0622C60.3253 73.5366 60.5298 73.8946 60.794 74.1361C61.0582 74.3747 61.3722 74.494 61.7358 74.494Z" fill="#0D6464"/>
<defs>
<clipPath id="clip0_358_4371">
<rect width="29.723" height="29.723" fill="white" transform="translate(44.0508 28) rotate(15.7125)"/>
</clipPath>
</defs>
</svg>
