<svg width="17" height="17" viewBox="0 0 17 17" fill="none" xmlns="http://www.w3.org/2000/svg">
<path d="M5.87695 10.127L1.42773 14.5762V12.75C1.42773 12.2852 1.18424 12.0527 0.697266 12.0527C0.232422 12.0527 0 12.2852 0 12.75V16.3027C0 16.502 0.0664062 16.668 0.199219 16.8008C0.332031 16.9336 0.498047 17 0.697266 17H4.25C4.71484 17 4.94727 16.7676 4.94727 16.3027C4.94727 15.8158 4.71484 15.5723 4.25 15.5723H2.42383L6.87305 11.123C7.16081 10.791 7.16081 10.459 6.87305 10.127C6.54102 9.83919 6.20898 9.83919 5.87695 10.127ZM16.3027 0H12.75C12.2852 0 12.0527 0.232422 12.0527 0.697266C12.0527 1.18424 12.2852 1.42773 12.75 1.42773H14.5762L10.127 5.87695C9.83919 6.20898 9.83919 6.54102 10.127 6.87305C10.2598 7.00586 10.4258 7.07227 10.625 7.07227C10.8242 7.07227 10.9902 7.00586 11.123 6.87305L15.5723 2.42383V4.25C15.5723 4.71484 15.8158 4.94727 16.3027 4.94727C16.7676 4.94727 17 4.71484 17 4.25V0.697266C17 0.498047 16.9336 0.332031 16.8008 0.199219C16.668 0.0664062 16.502 0 16.3027 0Z" fill="#0D6464"/>
</svg>
