<svg width="112" height="24" viewBox="0 0 112 24" fill="none" xmlns="http://www.w3.org/2000/svg">
<g clip-path="url(#clip0_514_3230)">
<path d="M18.2749 11.5954C17.8156 11.5952 17.3588 11.6631 16.9194 11.797L15.1294 8.72854H17.1998C17.2949 8.72854 17.386 8.7663 17.4532 8.8335C17.5204 8.90071 17.5582 8.99186 17.5582 9.0869C17.5582 9.37203 17.6714 9.64548 17.8731 9.8471C18.0747 10.0487 18.3481 10.162 18.6333 10.162C18.9184 10.162 19.1918 10.0487 19.3935 9.8471C19.5951 9.64548 19.7083 9.37203 19.7083 9.0869C19.7083 8.4216 19.4441 7.78354 18.9736 7.3131C18.5032 6.84266 17.8651 6.57837 17.1998 6.57837H13.2578C13.0693 6.57872 12.8842 6.62865 12.721 6.72315C12.5578 6.81765 12.4224 6.9534 12.3283 7.11678C12.2342 7.28015 12.1847 7.46541 12.1847 7.65395C12.1848 7.8425 12.2345 8.02771 12.3288 8.191L13.0581 9.44526H9.81398L8.4531 7.11591C8.35891 6.95277 8.22351 6.81724 8.06046 6.7229C7.89741 6.62856 7.71243 6.57872 7.52405 6.57837H4.65715C4.37202 6.57837 4.09857 6.69164 3.89695 6.89325C3.69534 7.09487 3.58207 7.36832 3.58207 7.65345C3.58207 7.93858 3.69534 8.21204 3.89695 8.41365C4.09857 8.61527 4.37202 8.72854 4.65715 8.72854H6.90677L7.89854 10.4308L6.62814 12.0335C5.59078 11.5468 4.41075 11.458 3.31227 11.7842C2.21378 12.1104 1.27339 12.8287 0.669786 13.8028C0.0661787 14.7768 -0.158586 15.9386 0.0381997 17.0675C0.234985 18.1963 0.839608 19.2136 1.73718 19.9259C2.63476 20.6382 3.76274 20.996 4.9068 20.9313C6.05085 20.8665 7.13126 20.3838 7.94273 19.5747C8.75421 18.7656 9.24019 17.6867 9.30835 16.5428C9.37651 15.399 9.0221 14.2699 8.31244 13.3702L9.06232 12.4232L10.5701 15.0044C10.6358 15.1357 10.7278 15.2523 10.8403 15.3467C10.9528 15.4412 11.0835 15.5116 11.2243 15.5536C11.3651 15.5956 11.513 15.6083 11.6589 15.5909C11.8047 15.5735 11.9455 15.5264 12.0725 15.4525C12.1995 15.3786 12.3099 15.2794 12.3971 15.1612C12.4842 15.0429 12.5462 14.908 12.5792 14.7649C12.6122 14.6217 12.6155 14.4733 12.589 14.3288C12.5624 14.1843 12.5064 14.0468 12.4246 13.9248L11.0682 11.5954H14.3123L15.064 12.8837C14.2807 13.6312 13.7822 14.6282 13.6542 15.7033C13.5261 16.7784 13.7766 17.8646 14.3625 18.7751C14.9484 19.6856 15.8331 20.3636 16.8647 20.6926C17.8962 21.0216 19.0101 20.981 20.015 20.5778C21.0198 20.1746 21.8529 19.434 22.3709 18.4833C22.889 17.5326 23.0598 16.4311 22.8539 15.3681C22.6479 14.3052 22.0782 13.3471 21.2426 12.6586C20.407 11.9701 19.3576 11.5942 18.2749 11.5954ZM7.16569 16.2541C7.16577 16.7745 7.00401 17.2821 6.70282 17.7064C6.40163 18.1308 5.97591 18.451 5.48466 18.6226C4.9934 18.7943 4.46091 18.8089 3.96097 18.6645C3.46102 18.5201 3.01837 18.2238 2.69432 17.8166C2.37028 17.4094 2.18089 16.9115 2.15239 16.3919C2.12389 15.8723 2.25768 15.3567 2.53525 14.9165C2.81281 14.4763 3.2204 14.1334 3.70155 13.9351C4.1827 13.7369 4.71359 13.6932 5.22068 13.8101L3.81411 15.5867C3.63709 15.8103 3.55614 16.095 3.58907 16.3783C3.622 16.6616 3.76612 16.9202 3.98971 17.0972C4.21329 17.2742 4.49805 17.3551 4.78132 17.3222C5.06459 17.2893 5.32318 17.1452 5.5002 16.9216L6.90677 15.145C7.07746 15.4898 7.16608 15.8694 7.16569 16.2541ZM18.2749 18.7627C17.8186 18.7625 17.371 18.6378 16.9803 18.4021C16.5895 18.1664 16.2705 17.8285 16.0575 17.425C15.8446 17.0214 15.7457 16.5674 15.7716 16.1118C15.7975 15.6562 15.9471 15.2163 16.2045 14.8395L17.3458 16.7962C17.494 17.0325 17.7281 17.2019 17.9988 17.2688C18.2696 17.3357 18.5557 17.2948 18.7968 17.1547C19.038 17.0146 19.2152 16.7863 19.2912 16.518C19.3672 16.2496 19.3359 15.9623 19.204 15.7166L18.0617 13.7599C18.1325 13.7537 18.2032 13.7501 18.2749 13.7501C18.9402 13.7501 19.5783 14.0144 20.0487 14.4848C20.5191 14.9553 20.7834 15.5933 20.7834 16.2586C20.7834 16.9239 20.5191 17.562 20.0487 18.0324C19.5783 18.5029 18.9402 18.7671 18.2749 18.7671V18.7627Z" fill="#FCC21B"/>
</g>
<path d="M45.7004 3.24312C45.7004 3.80339 45.4778 4.34071 45.0816 4.73688C44.6854 5.13305 44.1481 5.35562 43.5879 5.35562C43.0276 5.35562 42.4903 5.13305 42.0941 4.73688C41.6979 4.34071 41.4754 3.80339 41.4754 3.24312C41.4754 2.68285 41.6979 2.14552 42.0941 1.74935C42.4903 1.35318 43.0276 1.13062 43.5879 1.13062C44.1481 1.13062 44.6854 1.35318 45.0816 1.74935C45.4778 2.14552 45.7004 2.68285 45.7004 3.24312ZM42.7656 14.0153L45.5081 16.7214C45.6133 16.8252 45.6955 16.9499 45.7495 17.0874L47.2119 20.8133C47.3142 21.0741 47.3088 21.3649 47.1968 21.6217C47.0848 21.8786 46.8753 22.0804 46.6145 22.1828C46.3537 22.2851 46.0629 22.2797 45.8061 22.1677C45.5493 22.0557 45.3475 21.8463 45.2451 21.5854L43.8646 18.0676L39.1495 13.4148C39.0356 13.3025 38.9486 13.1657 38.8953 13.0148C38.842 12.864 38.8236 12.7029 38.8416 12.5439L39.2192 9.20618C38.3087 10.1114 37.6063 11.3836 37.0681 13.0699C37.0279 13.2044 36.9613 13.3294 36.8722 13.4378C36.7831 13.5462 36.6733 13.6358 36.5492 13.7013C36.4251 13.7667 36.2892 13.8068 36.1494 13.8192C36.0096 13.8316 35.8688 13.816 35.7351 13.7733C35.6014 13.7306 35.4776 13.6618 35.3708 13.5707C35.2641 13.4797 35.1765 13.3682 35.1133 13.243C35.0501 13.1177 35.0124 12.9811 35.0026 12.8411C34.9928 12.7012 35.0109 12.5606 35.056 12.4277C36.0436 9.33293 37.6834 7.01657 40.4349 5.95451L40.4471 5.94976C41.1479 5.68939 41.8767 5.71052 42.5263 6.04588C43.15 6.36856 43.5942 6.92574 43.8852 7.54998C44.0077 7.81299 44.1207 8.05857 44.2274 8.28936C44.4851 8.84811 44.7017 9.3192 44.9103 9.7322C45.2023 10.3131 45.4373 10.6987 45.6697 10.9685C45.8852 11.2194 46.0991 11.3736 46.3721 11.4803C46.6658 11.5949 47.0772 11.6741 47.7125 11.6931C47.8521 11.6959 47.9897 11.7264 48.1174 11.7827C48.2452 11.839 48.3605 11.92 48.4567 12.0212C48.5529 12.1223 48.6281 12.2416 48.678 12.3719C48.7278 12.5023 48.7513 12.6413 48.7471 12.7809C48.743 12.9204 48.7112 13.0577 48.6536 13.1849C48.596 13.312 48.5138 13.4265 48.4117 13.5217C48.3096 13.6169 48.1896 13.6909 48.0587 13.7395C47.9278 13.788 47.7886 13.8102 47.6491 13.8046C46.886 13.7819 46.2084 13.6842 45.6037 13.4481C44.9789 13.2041 44.4862 12.8328 44.0669 12.3443C43.8028 12.0369 43.5704 11.6857 43.3539 11.3039L42.7656 14.0153Z" fill="#FCC21B"/>
<path d="M38.8436 14.9783L40.5943 16.6577L39.7884 19.376C39.7261 19.5863 39.5998 19.772 39.4272 19.9073L36.7158 22.0319C36.6066 22.1175 36.4815 22.1807 36.3479 22.2179C36.2142 22.2551 36.0745 22.2657 35.9368 22.2489C35.7991 22.2322 35.666 22.1885 35.5452 22.1203C35.4243 22.0521 35.3181 21.9608 35.2325 21.8516C35.147 21.7423 35.0838 21.6173 35.0466 21.4837C35.0093 21.35 34.9988 21.2103 35.0155 21.0726C35.0323 20.9349 35.076 20.8018 35.1442 20.6809C35.2124 20.5601 35.3037 20.4539 35.4129 20.3683L37.8592 18.4523L38.5959 15.9648L38.8436 14.9783Z" fill="#FCC21B"/>
<path fill-rule="evenodd" clip-rule="evenodd" d="M76.6698 18.3017C76.7847 18.2155 76.9292 18.1785 77.0714 18.1988C77.2136 18.2191 77.3419 18.2951 77.4281 18.41L78.8906 20.36H79.7031C79.8468 20.36 79.9846 20.4171 80.0861 20.5187C80.1877 20.6203 80.2448 20.758 80.2448 20.9017C80.2448 21.0454 80.1877 21.1831 80.0861 21.2847C79.9846 21.3863 79.8468 21.4434 79.7031 21.4434H76.9948C76.8511 21.4434 76.7134 21.3863 76.6118 21.2847C76.5102 21.1831 76.4531 21.0454 76.4531 20.9017C76.4531 20.758 76.5102 20.6203 76.6118 20.5187C76.7134 20.4171 76.8511 20.36 76.9948 20.36H77.5365L76.5615 19.06C76.4753 18.9451 76.4383 18.8006 76.4586 18.6584C76.4789 18.5162 76.5549 18.3879 76.6698 18.3017Z" fill="#FCC21B"/>
<path fill-rule="evenodd" clip-rule="evenodd" d="M75.3711 19.2766C76.2133 19.2765 77.0411 19.0581 77.7738 18.6429C78.5065 18.2277 79.1191 17.6297 79.552 16.9073C79.9848 16.1848 80.2232 15.3626 80.2437 14.5206C80.2643 13.6787 80.0664 12.8458 79.6693 12.1031C79.2722 11.3604 78.6895 10.7332 77.978 10.2827C77.2664 9.83223 76.4503 9.57374 75.6091 9.53247C74.7679 9.4912 73.9304 9.66854 73.1782 10.0472C72.4259 10.4259 71.7846 10.993 71.3167 11.6933H75.142C75.8537 11.6928 76.5413 11.9508 77.0772 12.4192C77.613 12.8876 77.9605 13.5346 78.0552 14.24C78.1499 14.9454 77.9852 15.6611 77.5919 16.2543C77.1985 16.8474 76.6032 17.2775 75.9166 17.4647L72.5571 18.3829C73.3795 18.9658 74.3631 19.2782 75.3711 19.2766ZM71.6206 17.5162L75.6306 16.4193C76.0637 16.301 76.4392 16.0295 76.6873 15.6552C76.9354 15.2809 77.0393 14.8293 76.9796 14.3843C76.9199 13.9392 76.7007 13.5309 76.3628 13.2353C76.0248 12.9396 75.591 12.7766 75.142 12.7766H70.7734C70.5893 13.2986 70.4955 13.8481 70.4961 14.4016C70.4961 15.5857 70.9186 16.6712 71.6206 17.5162Z" fill="#FCC21B"/>
<path fill-rule="evenodd" clip-rule="evenodd" d="M74.0543 19.0969C73.518 18.9465 73.0116 18.705 72.5571 18.3829L75.9166 17.4648C76.6032 17.2776 77.1985 16.8475 77.5919 16.2543C77.9852 15.6612 78.1499 14.9455 78.0552 14.2401C77.9605 13.5347 77.613 12.8877 77.0772 12.4193C76.5413 11.9509 75.8537 11.6929 75.142 11.6934H71.3167C71.5904 11.2846 71.924 10.9194 72.3063 10.61C72.9569 10.0846 73.7316 9.73542 74.5561 9.59591C75.3805 9.45641 76.227 9.53132 77.0142 9.81344C77.8013 10.0956 78.5027 10.5754 79.0508 11.2069C79.599 11.8383 79.9755 12.6002 80.1442 13.4192C80.3128 14.2382 80.268 15.0868 80.014 15.8835C79.76 16.6801 79.3054 17.3981 78.6937 17.9683C78.0821 18.5385 77.3341 18.9418 76.5217 19.1395C75.7092 19.3371 74.8595 19.3224 74.0543 19.0969ZM79.1611 14.5144C79.1766 13.9975 79.0862 13.483 78.8954 13.0024C78.7047 12.5219 78.4177 12.0854 78.0521 11.7198C77.6865 11.3542 77.2499 11.0673 76.7693 10.8766C76.2887 10.6859 75.7742 10.5956 75.2573 10.6111C76.2833 10.6407 77.2592 11.0615 77.985 11.7873C78.7108 12.5131 79.1316 13.4884 79.1611 14.5144ZM71.6206 17.5163L75.6306 16.4199C76.0642 16.302 76.4402 16.0306 76.6887 15.6562C76.9373 15.2817 77.0413 14.8298 76.9816 14.3844C76.9219 13.939 76.7024 13.5304 76.364 13.2347C76.0256 12.939 75.5914 12.7762 75.142 12.7767H70.7734C70.5893 13.2987 70.4955 13.8482 70.4961 14.4017C70.4961 15.5858 70.9186 16.6713 71.6206 17.5163ZM71.6173 13.86C71.5919 14.0366 71.5789 14.2175 71.5789 14.4017C71.5789 15.082 71.7576 15.7185 72.0702 16.2699L75.3446 15.3745C75.5247 15.3255 75.681 15.2127 75.7842 15.0571C75.8875 14.9015 75.9308 14.7137 75.906 14.5286C75.8813 14.3435 75.7901 14.1737 75.6496 14.0508C75.5091 13.9278 75.3287 13.86 75.142 13.86H71.6173ZM64.8628 18.3017C64.9777 18.3879 65.0537 18.5162 65.074 18.6584C65.0943 18.8006 65.0573 18.9451 64.9711 19.06L63.3461 21.2267C63.2599 21.3416 63.1316 21.4176 62.9894 21.4379C62.8472 21.4582 62.7027 21.4212 62.5878 21.335C62.4728 21.2488 62.3969 21.1205 62.3765 20.9783C62.3562 20.8361 62.3932 20.6916 62.4794 20.5767L64.1044 18.41C64.1906 18.2951 64.3189 18.2191 64.4612 18.1988C64.6034 18.1785 64.7478 18.2155 64.8628 18.3017Z" fill="#FCC21B"/>
<path d="M61.2891 20.9018C61.2891 20.7581 61.3461 20.6203 61.4477 20.5188C61.5493 20.4172 61.6871 20.3601 61.8307 20.3601H64.5391C64.6827 20.3601 64.8205 20.4172 64.9221 20.5188C65.0237 20.6203 65.0807 20.7581 65.0807 20.9018C65.0807 21.0454 65.0237 21.1832 64.9221 21.2848C64.8205 21.3864 64.6827 21.4434 64.5391 21.4434H61.8307C61.6871 21.4434 61.5493 21.3864 61.4477 21.2848C61.3461 21.1832 61.2891 21.0454 61.2891 20.9018Z" fill="#FCC21B"/>
<path fill-rule="evenodd" clip-rule="evenodd" d="M61.8307 20.3599C61.6871 20.3599 61.5493 20.417 61.4477 20.5186C61.3461 20.6202 61.2891 20.758 61.2891 20.9016C61.2891 21.0453 61.3461 21.183 61.4477 21.2846C61.5493 21.3862 61.6871 21.4433 61.8307 21.4433H64.5391C64.6827 21.4433 64.8205 21.3862 64.9221 21.2846C65.0237 21.183 65.0807 21.0453 65.0807 20.9016C65.0807 20.758 65.0237 20.6202 64.9221 20.5186C64.8205 20.417 64.6827 20.3599 64.5391 20.3599H61.8307ZM61.8307 16.0374C61.8307 15.1726 62.1743 14.3432 62.7858 13.7317C63.3973 13.1202 64.2267 12.7766 65.0916 12.7766H75.1449C75.5919 12.7763 76.024 12.9376 76.3614 13.2308C76.6988 13.524 76.9188 13.9294 76.9808 14.3721C77.0429 14.8148 76.9427 15.265 76.6989 15.6396C76.455 16.0143 76.084 16.2881 75.6541 16.4107L65.9869 19.1726C63.9042 19.7674 61.8307 18.203 61.8307 16.0374ZM66.0189 16.5683C65.8997 16.7748 65.7156 16.9362 65.4953 17.0274C65.275 17.1187 65.0307 17.1347 64.8003 17.073C64.57 17.0113 64.3665 16.8753 64.2213 16.6861C64.0761 16.4969 63.9974 16.2651 63.9974 16.0266C63.9974 15.7881 64.0761 15.5563 64.2213 15.3672C64.3665 15.178 64.57 15.042 64.8003 14.9802C65.0307 14.9185 65.275 14.9345 65.4953 15.0258C65.7156 15.117 65.8997 15.2784 66.0189 15.4849H67.7891C67.9327 15.4849 68.0705 15.542 68.1721 15.6436C68.2737 15.7452 68.3307 15.883 68.3307 16.0266C68.3307 16.1703 68.2737 16.308 68.1721 16.4096C68.0705 16.5112 67.9327 16.5683 67.7891 16.5683H66.0189Z" fill="#FCC21B"/>
<path fill-rule="evenodd" clip-rule="evenodd" d="M62.9115 16.032V16.0374C62.9115 17.4837 64.296 18.528 65.687 18.131L67.364 17.6516H66.5108C66.1984 17.927 65.8133 18.1065 65.4015 18.1686C64.9898 18.2308 64.5688 18.173 64.1891 18.0021C63.8093 17.8312 63.4868 17.5545 63.2602 17.2051C63.0337 16.8558 62.9126 16.4485 62.9115 16.032ZM65.0835 13.8599H75.1423C75.328 13.8597 75.5076 13.9266 75.6478 14.0484C75.788 14.1701 75.8794 14.3385 75.9052 14.5225C75.9309 14.7064 75.8893 14.8934 75.7879 15.049C75.6865 15.2046 75.5322 15.3183 75.3535 15.369L68.8958 17.2139C69.134 16.9913 69.2998 16.7022 69.3715 16.3841C69.4433 16.066 69.4176 15.7337 69.298 15.4303C69.1783 15.127 68.9702 14.8667 68.7006 14.6832C68.4311 14.4998 68.1125 14.4016 67.7865 14.4016H66.5108C66.1169 14.0533 65.6094 13.8607 65.0835 13.8599ZM66.0163 16.5683C65.897 16.7748 65.713 16.9362 65.4927 17.0274C65.2724 17.1187 65.0281 17.1347 64.7977 17.073C64.5674 17.0113 64.3638 16.8753 64.2187 16.6861C64.0735 16.4969 63.9948 16.2651 63.9948 16.0266C63.9948 15.7881 64.0735 15.5563 64.2187 15.3672C64.3638 15.178 64.5674 15.042 64.7977 14.9802C65.0281 14.9185 65.2724 14.9345 65.4927 15.0258C65.713 15.117 65.897 15.2784 66.0163 15.4849H67.7865C67.9301 15.4849 68.0679 15.542 68.1695 15.6436C68.2711 15.7452 68.3281 15.883 68.3281 16.0266C68.3281 16.1703 68.2711 16.308 68.1695 16.4096C68.0679 16.5112 67.9301 16.5683 67.7865 16.5683H66.0163ZM65.089 12.7766C64.2241 12.7766 63.3947 13.1202 62.7832 13.7317C62.1717 14.3432 61.8281 15.1726 61.8281 16.0374C61.8281 18.2036 63.9016 19.7674 65.9843 19.1726L75.6509 16.4101C76.0803 16.2872 76.4509 16.0133 76.6943 15.6389C76.9378 15.2644 77.0377 14.8146 76.9758 14.3723C76.9139 13.93 76.6943 13.5249 76.3574 13.2317C76.0204 12.9385 75.5889 12.7769 75.1423 12.7766H65.089Z" fill="#FCC21B"/>
<path fill-rule="evenodd" clip-rule="evenodd" d="M63.2944 8.4683C63.4315 8.42557 63.5799 8.439 63.7071 8.50562C63.8342 8.57225 63.9297 8.68663 63.9726 8.82363L65.3268 13.157C65.3677 13.2936 65.3532 13.4408 65.2863 13.5667C65.2194 13.6927 65.1055 13.7871 64.9694 13.8296C64.8332 13.8721 64.6858 13.8592 64.5592 13.7937C64.4325 13.7283 64.3368 13.6154 64.2927 13.4798L62.9386 9.14647C62.8959 9.00935 62.9094 8.86087 62.9761 8.7337C63.0428 8.60653 63.1573 8.51107 63.2944 8.4683ZM76.6416 1.97588C76.7085 2.0003 76.7699 2.03765 76.8223 2.08579C76.8747 2.13393 76.9171 2.19193 76.9471 2.25647C76.977 2.32101 76.994 2.39082 76.997 2.46192C77 2.53302 76.9889 2.60402 76.9645 2.67084L76.4228 4.15393C76.3965 4.22601 76.3552 4.29168 76.3016 4.34659C76.248 4.4015 76.1833 4.44439 76.1119 4.47243L74.1684 5.23347L75.8806 9.88097C75.907 9.94806 75.9197 10.0197 75.918 10.0918C75.9163 10.1639 75.9002 10.2349 75.8707 10.3007C75.8412 10.3664 75.7989 10.4257 75.7462 10.4749C75.6935 10.5241 75.6315 10.5623 75.5639 10.5872C75.4963 10.6122 75.4243 10.6234 75.3523 10.6202C75.2803 10.617 75.2097 10.5994 75.1445 10.5685C75.0794 10.5377 75.021 10.4941 74.9729 10.4404C74.9249 10.3867 74.888 10.3239 74.8644 10.2558L72.9686 5.10997C72.9196 4.97699 72.9246 4.83008 72.9826 4.70076C73.0406 4.57144 73.147 4.47002 73.279 4.41826L75.489 3.55268L75.9472 2.29926C75.9965 2.16439 76.0974 2.05463 76.2276 1.99409C76.3578 1.93355 76.5068 1.92666 76.6416 1.97588Z" fill="#FCC21B"/>
<path d="M60.7461 7.98287C60.746 7.76711 60.7911 7.55373 60.8786 7.3565C60.966 7.15926 61.0939 6.98254 61.2538 6.83775C61.4138 6.69295 61.6023 6.5833 61.8072 6.51585C62.0122 6.4484 62.229 6.42466 62.4437 6.44616L64.8823 6.68991C65.2453 6.72617 65.5804 6.90057 65.8185 7.17704C66.0565 7.45351 66.1791 7.81089 66.1611 8.17525C66.143 8.53961 65.9855 8.88308 65.7213 9.13461C65.457 9.38615 65.1062 9.52649 64.7414 9.52662H62.2898C61.8804 9.52662 61.4878 9.36397 61.1982 9.07447C60.9087 8.78496 60.7461 8.3923 60.7461 7.98287Z" fill="#FCC21B"/>
<path fill-rule="evenodd" clip-rule="evenodd" d="M64.774 7.76846L62.3349 7.52471C62.2729 7.51868 62.2103 7.52528 62.151 7.54413C62.0916 7.56298 62.0367 7.59367 61.9895 7.63436C61.9424 7.67504 61.904 7.72487 61.8766 7.78083C61.8493 7.83679 61.8336 7.89771 61.8304 7.95992C61.8273 8.02212 61.8369 8.08431 61.8585 8.14272C61.8801 8.20113 61.9133 8.25455 61.9562 8.29975C61.999 8.34494 62.0506 8.38097 62.1078 8.40566C62.165 8.43035 62.2266 8.44318 62.2888 8.44338H64.7399C64.826 8.44238 64.9085 8.40858 64.9706 8.34886C65.0327 8.28914 65.0697 8.20799 65.0741 8.12195C65.0784 8.03591 65.0498 7.95145 64.9941 7.88577C64.9383 7.82009 64.8596 7.77814 64.774 7.76846ZM62.4427 6.44679C62.2346 6.42609 62.0244 6.44788 61.825 6.51085C61.6256 6.57382 61.441 6.67666 61.2826 6.81311C61.1241 6.94956 60.995 7.11679 60.9031 7.30465C60.8112 7.49251 60.7584 7.69708 60.748 7.90595C60.7376 8.11482 60.7697 8.32363 60.8424 8.51971C60.9151 8.71579 61.0269 8.89505 61.171 9.04661C61.3151 9.19818 61.4885 9.31889 61.6806 9.40142C61.8728 9.48395 62.0797 9.52657 62.2888 9.52671H64.7399C65.1038 9.52538 65.4534 9.38454 65.7166 9.13319C65.9799 8.88185 66.1367 8.53913 66.1548 8.17563C66.1729 7.81213 66.051 7.45552 65.814 7.17924C65.5771 6.90296 65.2433 6.72806 64.8813 6.69054L62.4427 6.44679Z" fill="#FCC21B"/>
<path d="M106.861 2.19231C106.861 1.61087 106.631 1.05325 106.219 0.642112C105.808 0.230975 105.251 0 104.669 0C104.088 0 103.53 0.230975 103.119 0.642112C102.708 1.05325 102.477 1.61087 102.477 2.19231C102.477 2.77374 102.708 3.33137 103.119 3.7425C103.53 4.15364 104.088 4.38462 104.669 4.38462C105.251 4.38462 105.808 4.15364 106.219 3.7425C106.631 3.33137 106.861 2.77374 106.861 2.19231ZM97.9872 8.01562C98.4394 7.56346 99.0559 7.30769 99.6999 7.30769C99.7867 7.30769 99.8735 7.31226 99.9557 7.32139L98.5307 11.601C98.1059 12.8798 98.6084 14.2865 99.7547 15.0036L103.692 17.4654L102.532 21.5212C102.308 22.2976 102.76 23.106 103.536 23.3298C104.313 23.5536 105.121 23.1014 105.345 22.325L106.656 17.7394C106.925 16.7986 106.537 15.7937 105.711 15.2776L103.116 13.6562L104.528 9.89279L104.761 10.4546C105.446 12.0897 107.04 13.1538 108.812 13.1538H109.785C110.593 13.1538 111.246 12.5007 111.246 11.6923C111.246 10.8839 110.593 10.2308 109.785 10.2308H108.812C108.223 10.2308 107.688 9.87452 107.464 9.33101L107.177 8.64591C106.51 7.04279 105.162 5.81875 103.5 5.30721L101.276 4.62212C100.769 4.46683 100.239 4.38462 99.7045 4.38462C98.2886 4.38462 96.9276 4.94639 95.9273 5.9512L94.8677 7.00625C94.2968 7.57716 94.2968 8.50433 94.8677 9.07524C95.4386 9.64615 96.3658 9.64615 96.9367 9.07524L97.9918 8.02019L97.9872 8.01562ZM96.4115 16.0769H93.7076C92.8992 16.0769 92.2461 16.73 92.2461 17.5385C92.2461 18.3469 92.8992 19 93.7076 19H96.8865C97.7543 19 98.5398 18.4885 98.8915 17.6983L99.4168 16.5154L98.9829 16.2413C98.2045 15.7569 97.5987 15.0393 97.2519 14.1906L96.4115 16.0769Z" fill="#FCC21B"/>
<defs>
<clipPath id="clip0_514_3230">
<rect width="23" height="20" fill="white" transform="translate(0 1.6936)"/>
</clipPath>
</defs>
</svg>
