<svg width="19" height="24" viewBox="0 0 19 24" fill="none" xmlns="http://www.w3.org/2000/svg">
<path d="M12.1377 4.79182e-06C13.0275 -0.0014426 13.8864 0.325051 14.549 0.916612C15.2116 1.50817 15.6309 2.32297 15.7264 3.20409C15.8218 4.08521 15.5866 4.97035 15.066 5.68905C14.5453 6.40775 13.7761 6.90919 12.9065 7.09681L12.7011 7.13509L14.426 9.88313L16.4969 9.05764C16.7817 8.94312 17.0998 8.94163 17.3857 9.05347C17.6716 9.16532 17.9036 9.38201 18.034 9.65899C18.1645 9.93598 18.1834 10.2522 18.087 10.5427C17.9905 10.8331 17.786 11.0758 17.5155 11.2207L17.3881 11.2805L15.3185 12.1048C14.8279 12.3003 14.2862 12.3292 13.7775 12.1871C13.2687 12.045 12.8211 11.7398 12.5041 11.3188L12.3888 11.1513L12.193 10.8402L11.465 13.7402C11.4021 13.9925 11.2982 14.233 11.1575 14.452L11.0494 14.6076L13.035 16.0767C13.5086 16.4272 13.8361 16.9391 13.9551 17.5147L13.99 17.7324L14.414 21.5345H14.5401C14.8463 21.5348 15.1407 21.6516 15.3634 21.8609C15.586 22.0702 15.72 22.3563 15.7379 22.6607C15.7558 22.9651 15.6564 23.2649 15.4599 23.4987C15.2634 23.7325 14.9847 23.8828 14.6806 23.9188L14.5401 23.9272H13.447C13.1464 23.9273 12.8548 23.8253 12.6202 23.638C12.3857 23.4507 12.2222 23.1894 12.1569 22.8971L12.1329 22.7572L11.602 17.9968L7.81821 15.1974C7.75089 15.1481 7.6889 15.0919 7.63323 15.0299C7.29957 14.7638 7.0432 14.4138 6.89054 14.0162C6.73788 13.6185 6.69447 13.1875 6.76476 12.7676L6.8044 12.5797L7.75815 8.77889L5.87228 9.34118L4.86928 12.3416C4.77294 12.632 4.56867 12.8745 4.29839 13.0195C4.02811 13.1645 3.71235 13.2009 3.41595 13.1213C3.11955 13.0417 2.86501 12.8521 2.70459 12.5914C2.54418 12.3307 2.49007 12.0187 2.55337 11.7195L2.58941 11.5856L3.59361 8.58508C3.70516 8.25215 3.88889 7.94775 4.13177 7.69344C4.37465 7.43914 4.67072 7.24116 4.99901 7.11356L5.18279 7.05015L9.3113 5.8167C8.89092 5.28779 8.62872 4.65159 8.55475 3.98106C8.48078 3.31052 8.59804 2.6328 8.89309 2.02559C9.18813 1.41839 9.64902 0.906301 10.2229 0.548033C10.7968 0.189766 11.4604 -0.000169798 12.1377 4.79182e-06ZM8.05365 15.792C8.30851 15.9823 8.477 16.2657 8.52205 16.5798C8.56711 16.894 8.48503 17.213 8.29389 17.4669L6.83323 19.4073C6.55688 19.7743 6.14995 20.0219 5.69601 20.0993C5.24207 20.1768 4.7756 20.0781 4.3924 19.8237L2.07409 18.284C1.83413 18.4758 1.52943 18.5685 1.22281 18.5431C0.916199 18.5178 0.63105 18.3762 0.426166 18.1476C0.221282 17.919 0.112285 17.6208 0.121651 17.3145C0.131016 17.0082 0.25803 16.7172 0.476502 16.5014L1.07109 15.9104C1.26934 15.7126 1.53031 15.5893 1.80957 15.5616C2.08883 15.5339 2.36909 15.6034 2.60262 15.7585L5.25246 17.5183L6.37197 16.0312C6.46662 15.9055 6.58519 15.7996 6.72093 15.7196C6.85666 15.6396 7.0069 15.5869 7.16305 15.5647C7.31921 15.5425 7.47824 15.5511 7.63104 15.5901C7.78385 15.6291 7.92745 15.6977 8.05365 15.792Z" fill="black"/>
</svg>
