<svg width="15" height="24" viewBox="0 0 15 24" fill="none" xmlns="http://www.w3.org/2000/svg">
<path d="M13.5842 9.20636C12.8197 9.37263 12.1601 9.79914 11.851 10.5347C11.6649 10.9811 11.4046 12.1341 10.6907 11.8359C10.3492 11.695 10.3546 11.2052 10.3944 10.8998C10.4793 10.2726 10.7612 9.69974 10.9546 9.10334C11.1534 8.48526 11.3251 7.86356 11.448 7.22378C11.8601 5.10566 11.7462 2.66585 10.248 0.972437C9.99495 0.683273 9.35698 0.0145836 8.93589 0.000125438C8.67564 -0.00710364 8.93227 0.300132 9.00457 0.403147C9.15095 0.614597 9.27385 0.84412 9.36783 1.08449C10.4757 3.91106 7.7449 6.06352 5.95028 7.73886C5.09002 8.54309 4.40326 9.39612 3.78517 10.3919C3.72372 10.4877 3.58818 10.8094 3.41287 10.7425C3.20504 10.663 3.18335 10.1877 3.11829 10.0106C2.99539 9.67083 2.80563 9.30034 2.56165 9.03467C2.08995 8.51779 1.4303 8.16899 0.716426 8.21597C0.689317 8.21778 0.611604 8.23043 0.515819 8.25212C0.365816 8.28465 -0.0353985 8.33706 0.0730377 8.57924C0.129063 8.70394 0.293525 8.69309 0.410997 8.72743C1.91826 9.19009 1.88392 10.7696 1.63994 12.0384C1.19897 14.348 -0.0227476 16.5312 0.844742 18.906C1.86766 21.7054 5.07014 23.4531 7.97623 22.9723C8.76962 22.8422 9.6841 22.5856 10.3962 22.2024C11.1534 21.794 11.9829 21.2355 12.5739 20.6066C13.3348 19.7988 13.8191 18.7632 13.9619 17.6662C14.13 16.3975 13.7252 15.2011 13.3565 14.0029C12.9119 12.557 12.4004 10.1967 14.2475 9.4901C14.3378 9.45395 14.5185 9.42684 14.5818 9.33106C14.8167 8.98045 13.689 9.18467 13.5842 9.20636Z" fill="#FCC21B"/>
<path d="M8.07802 19.1301C8.46116 19.4518 8.99792 19.2945 9.35938 19.0198C9.55275 18.8734 9.71902 18.6855 9.82746 18.4668C9.87264 18.3728 9.92505 18.2536 9.92505 18.1469C9.92505 18.0042 9.84011 17.8632 9.87626 17.7168C10.1799 17.6572 10.5558 18.5301 10.5937 18.7325C10.8974 20.3283 9.39371 21.644 7.94248 21.8988C5.49363 22.3271 4.08576 20.1819 4.3677 18.277C4.543 17.0915 5.3382 16.2764 6.14786 15.4631C6.81836 14.789 7.44006 14.2107 7.65693 13.3342C7.69488 13.1787 7.68584 12.9402 7.64066 12.7866C7.60271 12.6546 7.53042 12.5335 7.5268 12.3908C7.51596 12.0908 7.80693 12.4829 7.8738 12.5588C8.67984 13.4679 8.90937 14.8107 8.6943 15.9854C8.55514 16.7445 8.01296 17.2867 7.8232 18.0132C7.71295 18.4271 7.7238 18.8301 8.07802 19.1301Z" fill="white"/>
</svg>
