<svg width="26" height="25" viewBox="0 0 26 25" fill="none" xmlns="http://www.w3.org/2000/svg">
<path d="M19.25 17.1875H9.50195L7.5 18.8965L5.49805 17.1875H1.28125V18.3594C1.28125 19.853 2.31299 21.0698 3.58887 21.0938C3.70752 21.832 3.99463 22.499 4.42676 23.021C5.06592 23.793 5.99512 24.2188 7.04297 24.2188H13.4883C14.5361 24.2188 15.4653 23.793 16.1045 23.02C16.5366 22.498 16.8237 21.8311 16.9424 21.0928C17.6201 21.0806 18.229 20.7314 18.6514 20.1831C19.0458 19.6575 19.2562 19.0165 19.25 18.3594V17.1875ZM5.62695 15.625L7.49854 17.0015L9.38672 15.625H19.25V15.2344C19.2495 14.7843 19.0937 14.3482 18.8091 13.9995C18.5245 13.6508 18.1284 13.411 17.6875 13.3203C17.6475 11.8706 17.0527 10.6572 15.9536 9.80469C14.937 9.01172 13.5786 8.59375 12.0234 8.59375H8.50781C5.17676 8.59375 2.92041 10.4868 2.84375 13.3203C2.40289 13.411 2.00676 13.6508 1.72213 13.9995C1.43751 14.3482 1.2818 14.7843 1.28125 15.2344V15.625H5.62695Z" fill="#FCC21B"/>
<path d="M23.1113 4.6875H19.4692L19.9048 2.94629L22.082 2.19727L21.5938 0.78125L18.5664 1.75781L17.8589 4.6875H10.6562V6.25H11.5718L11.6626 7.03125H12.0234C13.9277 7.03125 15.6201 7.56348 16.9121 8.57031C17.6307 9.12402 18.2133 9.83466 18.6152 10.6479C18.8629 11.1525 19.0393 11.6891 19.1392 12.2422C19.8668 12.6902 20.4063 13.3878 20.6569 14.2047C20.9076 15.0215 20.8521 15.9017 20.501 16.6807C20.7067 17.2164 20.8123 17.7854 20.8125 18.3594C20.8125 19.4502 20.4414 20.4897 19.7676 21.2866C19.3506 21.7834 18.8164 22.1685 18.2134 22.4072C18.0079 22.9929 17.7017 23.5382 17.3086 24.0186C17.251 24.0879 17.1919 24.1558 17.1313 24.2212H20.8125C21.5938 24.2212 21.9355 23.8306 22.0332 23.0981L23.8105 6.25244H24.7188V4.6875H23.1113Z" fill="#FCC21B"/>
</svg>
