<svg width="26" height="26" viewBox="0 0 26 26" fill="none" xmlns="http://www.w3.org/2000/svg">
<path d="M8.34837 25.1267H8.34847C8.53196 25.1268 8.71503 25.1091 8.89512 25.074C9.7072 24.9145 10.4262 24.389 10.9118 23.5735L11.1266 23.7015L10.9118 23.5735C11.3638 22.8146 11.5673 21.8764 11.4785 20.9319C11.3998 20.1092 11.1433 19.6057 10.7388 19.3188L10.7386 19.3187C10.4324 19.1012 10.0895 19.0329 9.70898 19.0476C9.32131 19.0625 8.91349 19.1623 8.48213 19.2687C8.48205 19.2687 8.48197 19.2687 8.48189 19.2687L8.42201 19.026L8.34837 25.1267ZM8.34837 25.1267C7.73151 25.1267 7.09972 24.9292 6.52511 24.5419M8.34837 25.1267L6.52511 24.5419M18.0116 13.3517L18.0124 13.3518C18.2624 13.3897 18.5149 13.4091 18.7677 13.41C19.8479 13.4098 20.7058 13.0281 21.361 12.2574C22.0235 11.4783 22.467 10.316 22.7317 8.5579C23.1221 5.96004 22.724 3.82659 21.6736 2.51322C21.0622 1.74869 20.2727 1.32027 19.3875 1.25565L18.0116 13.3517ZM18.0116 13.3517C16.8602 13.1814 16.0176 12.7127 15.4745 11.9778L15.4743 11.9776M18.0116 13.3517L15.4743 11.9776M15.4743 11.9776C14.7871 11.0499 14.5602 9.69057 14.8513 7.76353L14.8513 7.76327M15.4743 11.9776L14.8513 7.76327M14.8513 7.76327C15.0904 6.16988 15.6463 4.56853 16.3693 3.3742L16.3694 3.37416M14.8513 7.76327L16.3694 3.37416M16.3694 3.37416C16.9456 2.42189 17.5227 1.88173 18.0384 1.5853M16.3694 3.37416L18.0384 1.5853M14.2161 18.6985L14.2163 18.6988C14.7003 19.5139 15.4192 20.0395 16.2328 20.199L14.2161 18.6985ZM14.2161 18.6985C13.7641 17.9396 13.5607 17.0014 13.6495 16.0569C13.7271 15.2323 13.983 14.7308 14.389 14.4434L14.3893 14.4433M14.2161 18.6985L14.3893 14.4433M14.3893 14.4433C14.6955 14.2259 15.0384 14.1576 15.419 14.1723C15.8067 14.1873 16.2146 14.287 16.6459 14.3937L16.6463 14.3938M14.3893 14.4433L16.6463 14.3938M16.6463 14.3938L16.664 14.3982C16.885 14.4524 17.1196 14.51 17.3503 14.5545L17.3519 14.5547M16.6463 14.3938L17.3519 14.5547M17.3519 14.5547L17.6713 14.6142L17.6718 14.6142M17.3519 14.5547L17.6718 14.6142M17.6718 14.6142C18.1756 14.7069 18.6363 14.7922 19.0365 14.9447C19.4306 15.095 19.7482 15.3044 19.9733 15.6349L19.9733 15.635M17.6718 14.6142L19.9733 15.635M19.9733 15.635C20.2477 16.0375 20.3357 16.5562 20.1997 17.2557L19.9733 15.635ZM6.52511 24.5419C5.69615 23.9801 5.12234 23.1139 4.92831 22.1314C4.79219 21.4309 4.88021 20.9131 5.15462 20.5105L6.52511 24.5419ZM7.77736 19.4295C7.68783 19.4467 7.59918 19.463 7.51285 19.4788C7.49364 19.4823 7.47455 19.4858 7.45558 19.4893C6.95214 19.5821 6.49157 19.6678 6.09151 19.8205C5.69736 19.971 5.37967 20.1805 5.15463 20.5105L7.77736 19.4295ZM7.77736 19.4295C7.77745 19.4295 7.77753 19.4295 7.77762 19.4294L7.73037 19.184L7.77709 19.4295C7.77718 19.4295 7.77727 19.4295 7.77736 19.4295ZM18.0384 1.5853C18.552 1.29007 19.0177 1.22896 19.3874 1.25564L18.0384 1.5853ZM6.35962 18.285H6.35927C5.27905 18.285 4.41682 17.8983 3.76744 17.1345C3.11096 16.3623 2.66141 15.1937 2.39672 13.4349C2.00789 10.8488 2.40282 8.72147 3.4462 7.40788L3.44623 7.40785C4.05702 6.63863 4.8485 6.20379 5.73709 6.13357L5.73733 6.13355C6.10407 6.10421 6.56775 6.16256 7.08081 6.45654C7.59604 6.75176 8.17422 7.29229 8.7536 8.24829C9.48021 9.44727 10.0376 11.0502 10.2766 12.6419L10.2766 12.6419C10.5663 14.5688 10.3408 15.9285 9.65366 16.8561L9.65363 16.8562C9.11065 17.5895 8.26805 18.0578 7.11614 18.2302C6.86566 18.267 6.6128 18.2853 6.35962 18.285ZM16.7781 20.2517C16.5951 20.2517 16.4126 20.2341 16.233 20.199L20.1996 17.2563C20.0057 18.2387 19.4319 19.105 18.603 19.6668C18.0246 20.0548 17.3927 20.2517 16.7781 20.2517Z" fill="#FCC21B" stroke="#0D6464" stroke-width="0.5"/>
</svg>
