<svg width="20" height="21" viewBox="0 0 20 21" fill="none" xmlns="http://www.w3.org/2000/svg">
<path d="M10 20.4727C8.63333 20.4727 7.34167 20.21 6.125 19.6847C4.90833 19.1593 3.84567 18.4427 2.937 17.5347C2.029 16.6267 1.31233 15.5643 0.787001 14.3477C0.261668 13.131 -0.000665399 11.8393 1.26743e-06 10.4727C1.26743e-06 9.08932 0.262668 7.79332 0.788001 6.58466C1.31333 5.37599 2.03 4.31799 2.938 3.41066C3.846 2.50199 4.908 1.78532 6.124 1.26066C7.34 0.73599 8.632 0.473323 10 0.472656C11.3833 0.472656 12.6793 0.735323 13.888 1.26066C15.0967 1.78599 16.1547 2.50266 17.062 3.41066C17.9707 4.31866 18.6873 5.37699 19.212 6.58566C19.7367 7.79432 19.9993 9.08999 20 10.4727C20 11.8393 19.7373 13.131 19.212 14.3477C18.6867 15.5643 17.97 16.627 17.062 17.5357C16.154 18.4437 15.0957 19.1603 13.887 19.6857C12.6783 20.211 11.3827 20.4733 10 20.4727ZM10 18.4227C10.4333 17.8227 10.8083 17.1977 11.125 16.5477C11.4417 15.8977 11.7 15.206 11.9 14.4727H8.1C8.3 15.206 8.55833 15.8977 8.875 16.5477C9.19167 17.1977 9.56667 17.8227 10 18.4227ZM7.4 18.0227C7.1 17.4727 6.83734 16.9017 6.612 16.3097C6.38667 15.7177 6.19934 15.1053 6.05 14.4727H3.1C3.58333 15.306 4.18767 16.031 4.913 16.6477C5.63833 17.2643 6.46733 17.7227 7.4 18.0227ZM12.6 18.0227C13.5333 17.7227 14.3627 17.2643 15.088 16.6477C15.8133 16.031 16.4173 15.306 16.9 14.4727H13.95C13.8 15.106 13.6127 15.7187 13.388 16.3107C13.1633 16.9027 12.9007 17.4733 12.6 18.0227ZM2.25 12.4727H5.65C5.6 12.1393 5.56234 11.81 5.537 11.4847C5.51167 11.1593 5.49933 10.822 5.5 10.4727C5.5 10.1227 5.51267 9.78532 5.538 9.46066C5.56333 9.13599 5.60067 8.80666 5.65 8.47266H2.25C2.16667 8.80599 2.104 9.13532 2.062 9.46066C2.02 9.78599 1.99933 10.1233 2 10.4727C2 10.8227 2.021 11.16 2.063 11.4847C2.105 11.8093 2.16733 12.1387 2.25 12.4727ZM7.65 12.4727H12.35C12.4 12.1393 12.4377 11.81 12.463 11.4847C12.4883 11.1593 12.5007 10.822 12.5 10.4727C12.5 10.1227 12.4873 9.78532 12.462 9.46066C12.4367 9.13599 12.3993 8.80666 12.35 8.47266H7.65C7.6 8.80599 7.56233 9.13532 7.537 9.46066C7.51167 9.78599 7.49933 10.1233 7.5 10.4727C7.5 10.8227 7.51267 11.16 7.538 11.4847C7.56333 11.8093 7.60067 12.1387 7.65 12.4727ZM14.35 12.4727H17.75C17.8333 12.1393 17.896 11.81 17.938 11.4847C17.98 11.1593 18.0007 10.822 18 10.4727C18 10.1227 17.979 9.78532 17.937 9.46066C17.895 9.13599 17.8327 8.80666 17.75 8.47266H14.35C14.4 8.80599 14.4377 9.13532 14.463 9.46066C14.4883 9.78599 14.5007 10.1233 14.5 10.4727C14.5 10.8227 14.4873 11.16 14.462 11.4847C14.4367 11.8093 14.3993 12.1387 14.35 12.4727ZM13.95 6.47266H16.9C16.4167 5.63932 15.8127 4.91432 15.088 4.29766C14.3633 3.68099 13.534 3.22266 12.6 2.92266C12.9 3.47266 13.1627 4.04366 13.388 4.63566C13.6133 5.22766 13.8007 5.83999 13.95 6.47266ZM8.1 6.47266H11.9C11.7 5.73932 11.4417 5.04766 11.125 4.39766C10.8083 3.74766 10.4333 3.12266 10 2.52266C9.56667 3.12266 9.19167 3.74766 8.875 4.39766C8.55833 5.04766 8.3 5.73932 8.1 6.47266ZM3.1 6.47266H6.05C6.2 5.83932 6.38767 5.22666 6.613 4.63466C6.83833 4.04266 7.10067 3.47199 7.4 2.92266C6.46667 3.22266 5.63733 3.68099 4.912 4.29766C4.18667 4.91432 3.58267 5.63932 3.1 6.47266Z" fill="#0D6464"/>
</svg>
