<svg width="22" height="23" viewBox="0 0 22 23" fill="none" xmlns="http://www.w3.org/2000/svg">
<path d="M19.5733 10.6115H11.1674V13.114H17.1349C16.8324 16.6065 13.9266 18.1007 11.1766 18.1007C7.66578 18.1007 4.58578 15.3323 4.58578 11.4365C4.58578 7.67817 7.51911 4.77234 11.1858 4.77234C14.0183 4.77234 15.6774 6.57817 15.6774 6.57817L17.4191 4.76317C17.4191 4.76317 15.1824 2.26984 11.0941 2.26984C5.88745 2.26984 1.86328 6.66984 1.86328 11.4365C1.86328 16.0657 5.64911 20.6032 11.2316 20.6032C16.1358 20.6032 19.7108 17.239 19.7108 12.2707C19.7108 11.2165 19.5733 10.6115 19.5733 10.6115Z" fill="white"/>
</svg>
