<svg width="21" height="23" viewBox="0 0 21 23" fill="none" xmlns="http://www.w3.org/2000/svg">
<path d="M11.8195 1.13168C11.5062 0.835458 11.0913 0.67041 10.6602 0.67041C10.229 0.67041 9.81416 0.835458 9.50085 1.13168L1.3266 8.85705C1.07631 9.0939 0.877014 9.37935 0.740924 9.69592C0.604835 10.0125 0.534816 10.3535 0.535157 10.6981V20.0975C0.535605 20.7685 0.802487 21.4119 1.27714 21.8863C1.75179 22.3606 2.39537 22.6271 3.06641 22.6271H5.59766C6.26899 22.6271 6.91282 22.3604 7.38752 21.8857C7.86222 21.411 8.12891 20.7671 8.12891 20.0958V15.8771C8.12891 15.6533 8.2178 15.4387 8.37604 15.2804C8.53427 15.1222 8.74888 15.0333 8.97266 15.0333H12.3477C12.5714 15.0333 12.786 15.1222 12.9443 15.2804C13.1025 15.4387 13.1914 15.6533 13.1914 15.8771V20.0958C13.1914 20.7671 13.4581 21.411 13.9328 21.8857C14.4075 22.3604 15.0513 22.6271 15.7227 22.6271H18.2539C18.9252 22.6271 19.5691 22.3604 20.0438 21.8857C20.5185 21.411 20.7852 20.7671 20.7852 20.0958V10.6964C20.7851 10.352 20.7147 10.0112 20.5783 9.69495C20.4419 9.37867 20.2424 9.09356 19.992 8.85705L11.8195 1.1283V1.13168Z" fill="#0D6464"/>
</svg>
