<svg width="20" height="21" viewBox="0 0 20 21" fill="none" xmlns="http://www.w3.org/2000/svg">
<path d="M10 0.15625C7.88716 0.15625 6.15625 1.88716 6.15625 4C6.15625 4.19221 6.17059 4.38124 6.19825 4.56608C6.33956 5.51037 5.68297 7 4.72817 7C4.29331 7 3.90725 7.27826 3.76973 7.6908L0.0691792 18.7925C-0.210834 19.6325 0.414424 20.5 1.2999 20.5H18.7001C19.5856 20.5 20.2108 19.6325 19.9308 18.7925L16.2303 7.6908C16.0928 7.27826 15.7067 7 15.2718 7C14.317 7 13.6604 5.51036 13.8017 4.56608C13.8294 4.38124 13.8438 4.19221 13.8438 4C13.8438 1.88716 12.1128 0.15625 10 0.15625ZM10 1.84375C11.2008 1.84375 12.1562 2.79916 12.1562 4C12.1562 5.20084 11.2008 6.15625 10 6.15625C8.79916 6.15625 7.84375 5.20084 7.84375 4C7.84375 2.79916 8.79916 1.84375 10 1.84375ZM6.14617 11.9078C6.14617 11.6036 6.39277 11.357 6.69695 11.357H6.78692C7.04142 11.357 7.24773 11.5633 7.24773 11.8178C7.24773 12.2264 7.73994 12.4329 8.03143 12.1466L8.70471 11.4855C8.78856 11.4031 8.90137 11.357 9.01888 11.357C9.42018 11.357 9.6194 11.8437 9.33326 12.1251L8.66027 12.7868C8.32858 13.113 8.32751 13.6474 8.65789 13.9748L9.48856 14.7982C9.79646 15.1034 9.58034 15.6284 9.14682 15.6284C9.01893 15.6284 8.8962 15.578 8.80531 15.488L8.09135 14.7812C7.77865 14.4717 7.24773 14.6932 7.24773 15.1332C7.24773 15.4067 7.02602 15.6284 6.75251 15.6284H6.69695C6.39277 15.6284 6.14617 15.3818 6.14617 15.0776V11.9078ZM11.7681 12.3527C11.9912 12.3527 12.1877 12.3964 12.3574 12.4842C12.4356 12.5246 12.5107 12.5757 12.5828 12.6375C12.6693 12.7117 12.8238 12.6566 12.8238 12.5427C12.8238 12.4772 12.8769 12.4242 12.9423 12.4242H13.3388C13.6232 12.4242 13.8538 12.6547 13.8538 12.9392V15.3052C13.8538 15.8202 13.6907 16.2131 13.3645 16.4839C13.0403 16.7568 12.5691 16.893 11.9511 16.893C11.7509 16.893 11.5574 16.8778 11.3703 16.8473C11.2562 16.8284 11.1431 16.8042 11.0314 16.7745C10.8959 16.7386 10.8067 16.6127 10.8067 16.4725C10.8067 16.2217 11.0813 16.0634 11.3219 16.1345C11.3256 16.1356 11.3294 16.1367 11.3331 16.1378C11.5049 16.1892 11.6775 16.215 11.8511 16.215C12.1868 16.215 12.4328 16.1416 12.5892 15.9947C12.7456 15.8479 12.8238 15.6181 12.8238 15.3053C12.8238 15.2344 12.7303 15.2016 12.6808 15.2524C12.5795 15.3563 12.4717 15.4378 12.3574 15.4969C12.1877 15.5845 11.9912 15.6285 11.7681 15.6285C11.377 15.6285 11.0538 15.475 10.7982 15.1679C10.5426 14.8589 10.4148 14.466 10.4148 13.9892C10.4148 13.5104 10.5426 13.1185 10.7982 12.8133C11.0538 12.5063 11.377 12.3527 11.7681 12.3527ZM12.1486 13.0907C11.9369 13.0907 11.7718 13.169 11.6536 13.3254C11.5353 13.4818 11.4762 13.7031 11.4762 13.9892C11.4762 14.2829 11.5334 14.506 11.6479 14.6586C11.7624 14.8093 11.9293 14.8847 12.1486 14.8847C12.3622 14.8847 12.5281 14.8064 12.6464 14.65C12.7646 14.4936 12.8238 14.2733 12.8238 13.9892C12.8238 13.703 12.7646 13.4818 12.6464 13.3254C12.5281 13.169 12.3622 13.0907 12.1486 13.0907H12.1486Z" fill="#FCC21B"/>
</svg>
