<svg width="38" height="38" viewBox="0 0 38 38" fill="none" xmlns="http://www.w3.org/2000/svg">
<path d="M15.8019 28.7281V21.8463H18.0542C19.3279 21.8463 20.3598 22.8812 20.3598 24.158C20.3598 25.4347 19.3279 26.4689 18.0542 26.4689M18.0542 26.4689H15.8011M18.0542 26.4689L20.3066 28.7266M9.22579 28.7281V21.8463L13.7845 28.7281V21.8463M26.7154 26.4202V26.4484C26.7154 27.053 26.4752 27.6328 26.0477 28.0604C25.6201 28.4879 25.0403 28.7281 24.4356 28.7281C23.831 28.7281 23.2512 28.4879 22.8236 28.0604C22.3961 27.6328 22.1559 27.053 22.1559 26.4484V24.126C22.1559 23.5214 22.3961 22.9416 22.8236 22.514C23.2512 22.0865 23.831 21.8463 24.4356 21.8463C25.0403 21.8463 25.6201 22.0865 26.0477 22.514C26.4752 22.9416 26.7154 23.5214 26.7154 24.126V24.1542M10.3565 19.4594C9.91235 19.6409 9.45962 19.8008 8.99995 19.9384C8.40378 20.1225 7.79697 20.2677 7.18255 20.3734C6.68851 20.4669 6.18542 20.5039 5.68301 20.4837C5.12282 20.4539 4.57514 20.3068 4.07549 20.0517C3.40191 19.7128 2.87286 19.1427 2.58507 18.4457C2.34234 17.7286 2.31328 16.9564 2.50143 16.223C2.76757 15.1037 3.24511 14.046 3.9082 13.1061C4.34392 12.462 4.83514 11.8575 5.3317 11.2598C5.81836 10.6743 6.31263 10.0956 6.81223 9.52148C6.49077 10.0521 6.22207 10.6129 6.00999 11.1959C5.83297 11.6642 5.71148 12.1517 5.64803 12.6483C5.56785 13.2125 5.63653 13.7879 5.84726 14.3174C6.13877 14.9617 6.67313 15.4646 7.33387 15.7166C7.79545 15.8839 8.28439 15.9622 8.7741 15.947C9.53778 15.9162 10.2959 15.8035 11.0356 15.6109C11.8644 15.4208 12.6887 15.2117 13.5092 14.9889C18.5188 13.6255 33.5591 9.57623 33.5591 9.57623C33.5591 9.57623 16.1806 17.0443 10.3565 19.4594Z" stroke="#1E1E1C" stroke-opacity="0.99" stroke-width="0.760417" stroke-linecap="round" stroke-linejoin="round"/>
</svg>
