<svg width="102" height="104" viewBox="0 0 102 104" fill="none" xmlns="http://www.w3.org/2000/svg">
<path d="M90.8675 32.1679C92.4282 31.4008 93.068 29.4987 92.1755 28.0062C87.9529 20.9449 81.9108 15.0755 74.6343 11.0042C66.427 6.41222 57.0178 4.31399 47.5965 4.97487C38.1753 5.63576 29.1651 9.02609 21.7054 14.7171C14.2457 20.4082 8.67147 28.1443 5.6877 36.9473C2.70392 45.7503 2.44456 55.2247 4.94243 64.1724C7.44029 73.1202 12.5832 81.1394 19.7208 87.216C26.8583 93.2926 35.67 97.1537 45.0415 98.311C53.3728 99.3398 61.8138 98.1907 69.5196 95.0057C71.1096 94.3485 71.731 92.4632 70.95 90.9302C70.1846 89.4278 68.3583 88.8301 66.7952 89.4622C60.1796 92.1374 52.9545 93.0936 45.822 92.2128C37.6783 91.2071 30.0211 87.8519 23.8187 82.5715C17.6163 77.291 13.1472 70.3224 10.9766 62.547C8.80605 54.7716 9.03142 46.5385 11.6243 38.8889C14.2171 31.2393 19.061 24.5167 25.5433 19.5713C32.0257 14.6259 39.8553 11.6798 48.0422 11.1055C56.2291 10.5312 64.4055 12.3545 71.5375 16.3449C77.7648 19.8291 82.9516 24.8289 86.6124 30.8409C87.4988 32.2965 89.3381 32.9197 90.8675 32.1679Z" fill="#D9D9D9"/>
<path d="M61.8397 94.9307C62.263 96.6164 63.9857 97.6419 65.6326 97.0864C71.098 95.2428 76.1958 92.39 80.666 88.6623C85.9512 84.2552 90.2321 78.731 93.2103 72.475C96.1885 66.219 97.7925 59.3816 97.9104 52.4393C98.0282 45.4971 96.6572 38.617 93.8928 32.2786C91.1284 25.9402 87.0371 20.296 81.9042 15.7394C76.7712 11.1827 70.7201 7.82333 64.1724 5.89525C57.6248 3.96717 50.7383 3.51682 43.9927 4.57559C38.2487 5.47718 32.7245 7.45459 27.6976 10.3984C26.2353 11.2547 25.8565 13.1638 26.7813 14.5837C27.7292 16.039 29.6812 16.4233 31.1908 15.5643C35.4406 13.1463 40.0864 11.5158 44.9108 10.7585C50.7725 9.83847 56.7568 10.2298 62.4465 11.9053C68.1363 13.5807 73.3946 16.5 77.8551 20.4596C82.3155 24.4192 85.8707 29.3239 88.2729 34.8319C90.6752 40.3398 91.8666 46.3185 91.7641 52.3512C91.6617 58.3839 90.2679 64.3254 87.6799 69.7618C85.0918 75.1982 81.3718 79.9985 76.7792 83.8283C72.9833 86.9936 68.6668 89.4329 64.0403 91.0374C62.4242 91.5979 61.423 93.2716 61.8397 94.9307Z" fill="#333333"/>
<path d="M80.1231 36.9865C81.3129 36.4017 81.8007 34.9516 81.1202 33.8137C77.9011 28.4305 73.2948 23.9558 67.7474 20.852C61.4904 17.3512 54.3172 15.7516 47.1347 16.2554C39.9522 16.7592 33.0831 19.3439 27.3961 23.6826C21.709 28.0213 17.4594 33.9191 15.1847 40.6302C12.91 47.3413 12.7122 54.5643 14.6165 61.3858C16.5208 68.2073 20.4416 74.3209 25.8831 78.9535C31.3245 83.5861 38.0423 86.5297 45.1868 87.4119C51.5383 88.1963 57.9735 87.3202 63.8481 84.8921C65.0603 84.391 65.534 82.9537 64.9386 81.785C64.3551 80.6397 62.9628 80.184 61.7711 80.6659C56.7276 82.7054 51.2194 83.4343 45.7818 82.7628C39.5733 81.9962 33.7358 79.4383 29.0072 75.4126C24.2787 71.3869 20.8716 66.0743 19.2168 60.1466C17.562 54.2189 17.7338 47.9422 19.7105 42.1104C21.6873 36.2786 25.3801 31.1535 30.322 27.3833C35.2639 23.6131 41.233 21.367 47.4745 20.9292C53.7159 20.4914 59.9493 21.8814 65.3865 24.9236C70.134 27.5798 74.0883 31.3915 76.8792 35.9748C77.5549 37.0845 78.9572 37.5597 80.1231 36.9865Z" fill="#D9D9D9"/>
<path d="M61.8907 83.5393C62.3666 84.7767 63.7672 85.3924 64.9614 84.8166C70.6114 82.0927 75.4807 77.9058 79.069 72.6587C83.1162 66.7405 85.352 59.7394 85.4936 52.5406C85.6352 45.3419 83.6763 38.2689 79.8645 32.216C76.0528 26.1632 70.5594 21.4023 64.079 18.5356C57.5987 15.6688 50.4224 14.8248 43.4578 16.1103C36.4931 17.3959 30.0529 20.7532 24.9514 25.7578C19.8499 30.7624 16.3164 37.1895 14.7977 44.2262C13.4475 50.4819 13.7436 56.9697 15.6357 63.0383C16.0261 64.2904 17.4152 64.891 18.6326 64.4027C19.8256 63.9242 20.4041 62.5782 20.0309 61.3482C18.4515 56.1423 18.2189 50.5909 19.3748 45.2353C20.6946 39.1205 23.7651 33.5355 28.1982 29.1866C32.6312 24.8377 38.2277 21.9203 44.2798 20.8031C50.332 19.686 56.568 20.4194 62.1993 22.9106C67.8306 25.4018 72.6043 29.5389 75.9166 34.7987C79.229 40.0585 80.9312 46.2048 80.8082 52.4604C80.6851 58.7159 78.7423 64.7998 75.2253 69.9426C72.1544 74.433 68.0039 78.03 63.1889 80.399C62.0231 80.9726 61.4243 82.3267 61.8907 83.5393Z" fill="#0D6464"/>
<path d="M71.7735 41.162C72.6328 40.7396 72.985 39.6923 72.4936 38.8706C70.1687 34.9827 66.842 31.751 62.8355 29.5094C58.3166 26.981 53.136 25.8258 47.9487 26.1896C42.7614 26.5535 37.8004 28.4202 33.6931 31.5537C29.5858 34.6871 26.5167 38.9466 24.8738 43.7935C23.231 48.6404 23.0882 53.857 24.4635 58.7836C25.8388 63.7102 28.6705 68.1255 32.6004 71.4713C36.5303 74.817 41.382 76.9429 46.5419 77.5801C51.129 78.1466 55.7766 77.5139 60.0194 75.7602C60.8949 75.3984 61.237 74.3603 60.807 73.5163C60.3856 72.6891 59.38 72.36 58.5194 72.708C54.8769 74.1809 50.8987 74.7074 46.9716 74.2225C42.4877 73.6687 38.2717 71.8214 34.8567 68.914C31.4417 66.0066 28.981 62.1697 27.7859 57.8886C26.5908 53.6075 26.7149 49.0744 28.1425 44.8626C29.5701 40.6507 32.2371 36.9493 35.8063 34.2264C39.3754 31.5035 43.6864 29.8813 48.1941 29.5651C52.7017 29.2489 57.2036 30.2528 61.1305 32.4499C64.5592 34.3683 67.415 37.1212 69.4307 40.4314C69.9187 41.2328 70.9314 41.576 71.7735 41.162Z" fill="#D9D9D9"/>
<path d="M58.7005 74.7834C59.0442 75.6771 60.0557 76.1217 60.9181 75.7059C63.984 74.2278 66.7415 72.1485 69.029 69.5816C71.7062 66.5776 73.6674 62.987 74.7596 59.0899C75.8519 55.1927 76.0456 51.0943 75.3258 47.1143C74.606 43.1343 72.9921 39.3802 70.6099 36.1448C68.2277 32.9094 65.1416 30.2801 61.5923 28.4619C58.043 26.6437 54.1263 25.6859 50.1478 25.663C46.1693 25.6401 42.2365 26.5528 38.6559 28.3299C35.5722 29.8604 32.8215 31.9966 30.56 34.609C29.9523 35.3111 30.0913 36.3685 30.8214 36.9423C31.5683 37.5294 32.6469 37.3859 33.2773 36.6751C35.2076 34.4986 37.5336 32.7145 40.1316 31.425C43.2431 29.8807 46.6607 29.0876 50.1179 29.1075C53.5752 29.1274 56.9786 29.9598 60.0629 31.5397C63.1472 33.1197 65.8289 35.4045 67.899 38.216C69.9691 41.0275 71.3716 44.2897 71.9971 47.7483C72.6226 51.2069 72.4542 54.7683 71.5051 58.1548C70.556 61.5414 68.8517 64.6615 66.5253 67.272C64.5776 69.4575 62.2378 71.2363 59.6381 72.5154C58.7961 72.9297 58.3636 73.9076 58.7005 74.7834Z" fill="#FCC21B"/>
</svg>
