<svg width="20" height="24" viewBox="0 0 20 24" fill="none" xmlns="http://www.w3.org/2000/svg">
<path d="M14.8615 2.19231C14.8615 1.61087 14.6305 1.05325 14.2194 0.642112C13.8082 0.230975 13.2506 0 12.6692 0C12.0877 0 11.5301 0.230975 11.119 0.642112C10.7078 1.05325 10.4769 1.61087 10.4769 2.19231C10.4769 2.77374 10.7078 3.33137 11.119 3.7425C11.5301 4.15364 12.0877 4.38462 12.6692 4.38462C13.2506 4.38462 13.8082 4.15364 14.2194 3.7425C14.6305 3.33137 14.8615 2.77374 14.8615 2.19231ZM5.9872 8.01562C6.43936 7.56346 7.05595 7.30769 7.69994 7.30769C7.78672 7.30769 7.8735 7.31226 7.95571 7.32139L6.53071 11.601C6.10595 12.8798 6.60835 14.2865 7.75475 15.0036L11.6918 17.4654L10.5317 21.5212C10.3079 22.2976 10.76 23.106 11.5365 23.3298C12.3129 23.5536 13.1213 23.1014 13.3451 22.325L14.6559 17.7394C14.9254 16.7986 14.5372 15.7937 13.7105 15.2776L11.1163 13.6562L12.5276 9.89279L12.7605 10.4546C13.4456 12.0897 15.0396 13.1538 16.8117 13.1538H17.7846C18.593 13.1538 19.2461 12.5007 19.2461 11.6923C19.2461 10.8839 18.593 10.2308 17.7846 10.2308H16.8117C16.2225 10.2308 15.6882 9.87452 15.4644 9.33101L15.1766 8.64591C14.5098 7.04279 13.1624 5.81875 11.4999 5.30721L9.27566 4.62212C8.76869 4.46683 8.23888 4.38462 7.70451 4.38462C6.28864 4.38462 4.92758 4.94639 3.92734 5.9512L2.86773 7.00625C2.29681 7.57716 2.29681 8.50433 2.86773 9.07524C3.43864 9.64615 4.36581 9.64615 4.93672 9.07524L5.99177 8.02019L5.9872 8.01562ZM4.41148 16.0769H1.70763C0.899219 16.0769 0.246094 16.73 0.246094 17.5385C0.246094 18.3469 0.899219 19 1.70763 19H4.88648C5.75427 19 6.53984 18.4885 6.89153 17.6983L7.41677 16.5154L6.98287 16.2413C6.20448 15.7569 5.59873 15.0393 5.25186 14.1906L4.41148 16.0769Z" fill="#FCC21B"/>
</svg>
