<svg width="24" height="26" viewBox="0 0 24 26" fill="none" xmlns="http://www.w3.org/2000/svg">
<path d="M10.9054 25.5024C9.66736 25.5024 8.62304 24.5805 8.46948 23.352L8.34424 22.3501C8.279 21.8282 7.92149 21.4006 7.47203 21.1274C7.024 20.8552 6.47404 20.7828 5.9907 20.9859L5.04336 21.384C3.90425 21.8626 2.58695 21.42 1.96788 20.3507L0.700199 18.1611C0.0794132 17.0888 0.354949 15.722 1.34269 14.974L2.49401 14.1022C2.70261 13.9442 2.80078 13.6854 2.80078 13.4237V12.5812C2.80078 12.3195 2.70261 12.0607 2.49401 11.9027L1.34269 11.0308C0.354949 10.2828 0.0794133 8.91605 0.700199 7.84379L1.96788 5.65415C2.58695 4.58486 3.90426 4.14229 5.04336 4.62091L5.9781 5.01366C6.46938 5.22008 7.02798 5.14595 7.48828 4.87744C7.9365 4.61598 8.278 4.18467 8.34237 3.66977L8.46948 2.65285C8.62304 1.42435 9.66736 0.502441 10.9054 0.502441H13.4461C14.6842 0.502441 15.7285 1.42435 15.8821 2.65285L16.0073 3.65481C16.0726 4.17668 16.4301 4.60433 16.8795 4.87744C17.3276 5.14969 17.8775 5.22203 18.3609 5.01895L19.3082 4.62091C20.4473 4.14229 21.7646 4.58486 22.3837 5.65415L23.6514 7.84379C24.2721 8.91605 23.9966 10.2828 23.0089 11.0308L21.8576 11.9027C21.649 12.0607 21.5508 12.3195 21.5508 12.5812V13.4237C21.5508 13.682 21.624 13.9489 21.8299 14.1049L22.9776 14.974C23.9654 15.722 24.2409 17.0888 23.6201 18.1611L22.3557 20.345C21.7353 21.4168 20.4137 21.8585 19.2734 21.3754L18.3725 20.9936C17.882 20.7858 17.3234 20.8591 16.8633 21.1274C16.4151 21.3889 16.0736 21.8202 16.0092 22.3351L15.8821 23.352C15.7285 24.5805 14.6842 25.5024 13.4461 25.5024H10.9054ZM12.2383 17.3774C13.4466 17.3774 14.4779 16.9504 15.332 16.0962C16.1862 15.242 16.6133 14.2108 16.6133 13.0024C16.6133 11.7941 16.1862 10.7629 15.332 9.90869C14.4779 9.05452 13.4466 8.62744 12.2383 8.62744C11.0091 8.62744 9.97245 9.05452 9.12828 9.90869C8.28411 10.7629 7.86245 11.7941 7.86328 13.0024C7.86328 14.2108 8.28495 15.242 9.12828 16.0962C9.97161 16.9504 11.0083 17.3774 12.2383 17.3774Z" fill="#0D6464"/>
</svg>
