<svg width="73" height="73" viewBox="0 0 73 73" fill="none" xmlns="http://www.w3.org/2000/svg">
<g clip-path="url(#clip0_358_996)">
<path d="M9.8761 42.4929C8.52329 40.5467 9.34524 35.3654 10.0374 32.9049C10.6522 30.7194 13.1957 25.0739 15.0312 24.045C15.0312 24.045 17.3628 23.744 18.1967 24.9355C20.9268 28.8397 26.2036 37.5137 37.783 30.4456C37.783 30.4456 49.7141 40.8538 53.1633 42.8419C59.0865 46.2555 58.8487 47.924 58.2533 50.0406C56.3466 56.818 48.6926 53.7247 43.505 51.9543C40.6459 50.9783 13.0617 43.5792 9.8761 42.4929Z" fill="white"/>
<path d="M11.2377 37.6545C11.2377 37.6545 24.2129 40.0122 30.9796 44.09C37.7464 48.1678 53.1324 50.5165 53.1324 50.5165L57.2647 51.6571C57.2647 51.6571 55.2556 55.9863 51.6625 54.9755C48.0693 53.9646 9.29874 41.5419 9.29874 41.5419C9.29874 41.5419 7.68283 37.1236 11.2377 37.6545Z" fill="white"/>
<path d="M9.88 42.4921C8.5272 40.546 9.34915 35.3646 10.0413 32.9042C10.6562 30.7187 13.1996 25.0732 15.0351 24.0443C15.0351 24.0443 17.3667 23.7433 18.2006 24.9348C20.9307 28.839 26.2075 37.5129 37.7869 30.4449C37.7869 30.4449 49.718 40.853 53.1672 42.8412C59.0904 46.2548 58.8526 47.9233 58.2572 50.0399C56.3506 56.8172 48.6965 53.724 43.5089 51.9535C40.6499 50.9776 13.0654 43.5793 9.87978 42.4929" stroke="#0D6464" stroke-width="1.18267" stroke-miterlimit="10" stroke-linecap="round" stroke-linejoin="round"/>
<path d="M11.8182 38.605C11.8182 38.605 24.2152 40.0131 30.9824 44.0893C37.7496 48.1655 52.9148 51.2991 52.9148 51.2991M39.6237 37.2488L34.3421 40.7825M43.2089 39.7815L39.5309 42.2422" stroke="#0D6464" stroke-width="1.18267" stroke-miterlimit="10" stroke-linecap="round" stroke-linejoin="round"/>
<path d="M9.88 42.4921C8.5272 40.546 9.34915 35.3646 10.0413 32.9042C10.6562 30.7187 13.1996 25.0732 15.0351 24.0443C15.0351 24.0443 17.3667 23.7433 18.2006 24.9348C20.9307 28.839 26.2075 37.5129 37.7869 30.4449C37.7869 30.4449 49.718 40.853 53.1672 42.8412C59.0904 46.2548 58.8526 47.9233 58.2572 50.0399C56.3506 56.8172 48.6965 53.724 43.5089 51.9535C40.6499 50.9776 13.0654 43.5793 9.87978 42.4929" stroke="white" stroke-width="1.18267" stroke-miterlimit="10" stroke-linecap="round" stroke-linejoin="round"/>
</g>
<defs>
<clipPath id="clip0_358_996">
<rect width="58.5891" height="58.5891" fill="white" transform="translate(15.8672 0.169434) rotate(15.7125)"/>
</clipPath>
</defs>
</svg>
