<svg width="141" height="75" viewBox="0 0 141 75" fill="none" xmlns="http://www.w3.org/2000/svg">
<path d="M2.20516 1L1 2.5983L2.20516 1Z" stroke="white" stroke-width="0.269444"/>
<path d="M1.10156 9.79047C1.10156 9.96709 1.15447 10.1365 1.24864 10.2614C1.34281 10.3863 1.47053 10.4564 1.60371 10.4564C1.73689 10.4564 1.86462 10.3863 1.95879 10.2614C2.05296 10.1365 2.10586 9.96709 2.10586 9.79047C2.10586 9.61385 2.05296 9.44446 1.95879 9.31957C1.86462 9.19468 1.73689 9.12451 1.60371 9.12451C1.47053 9.12451 1.34281 9.19468 1.24864 9.31957C1.15447 9.44446 1.10156 9.61385 1.10156 9.79047V9.79047Z" stroke="white" stroke-width="0.269444"/>
<path d="M1.10156 17.7819C1.10156 17.9585 1.15447 18.1279 1.24864 18.2528C1.34281 18.3777 1.47053 18.4479 1.60371 18.4479C1.73689 18.4479 1.86462 18.3777 1.95879 18.2528C2.05296 18.1279 2.10586 17.9585 2.10586 17.7819C2.10586 17.6053 2.05296 17.4359 1.95879 17.311C1.86462 17.1861 1.73689 17.116 1.60371 17.116C1.47053 17.116 1.34281 17.1861 1.24864 17.311C1.15447 17.4359 1.10156 17.6053 1.10156 17.7819V17.7819Z" stroke="white" stroke-width="0.269444"/>
<path d="M1.80406 25.5073L1.40234 26.0401L1.80406 25.5073Z" stroke="white" stroke-width="0.269444"/>
<path d="M2.20516 32.9661L1 34.5644L2.20516 32.9661Z" stroke="white" stroke-width="0.269444"/>
<path d="M1.80406 41.4905L1.40234 42.0232L1.80406 41.4905Z" stroke="white" stroke-width="0.269444"/>
<path d="M2.20516 48.9492L1 50.5475L2.20516 48.9492Z" stroke="white" stroke-width="0.269444"/>
<path d="M2.20516 56.9404L1 58.5387L2.20516 56.9404Z" stroke="white" stroke-width="0.269444"/>
<path d="M1.80406 65.4648L1.40234 65.9976L1.80406 65.4648Z" stroke="white" stroke-width="0.269444"/>
<path d="M1.30078 73.7228C1.30078 73.8288 1.33252 73.9304 1.38903 74.0054C1.44553 74.0803 1.52216 74.1224 1.60207 74.1224C1.68198 74.1224 1.75861 74.0803 1.81512 74.0054C1.87162 73.9304 1.90336 73.8288 1.90336 73.7228C1.90336 73.6168 1.87162 73.5152 1.81512 73.4403C1.75861 73.3653 1.68198 73.3232 1.60207 73.3232C1.52216 73.3232 1.44553 73.3653 1.38903 73.4403C1.33252 73.5152 1.30078 73.6168 1.30078 73.7228V73.7228Z" stroke="white" stroke-width="0.269444"/>
<path d="M7.32812 1.79899C7.32812 1.90496 7.35987 2.0066 7.41637 2.08153C7.47287 2.15647 7.54951 2.19856 7.62942 2.19856C7.70932 2.19856 7.78596 2.15647 7.84246 2.08153C7.89896 2.0066 7.93071 1.90496 7.93071 1.79899C7.93071 1.69302 7.89896 1.59138 7.84246 1.51645C7.78596 1.44151 7.70932 1.39941 7.62942 1.39941C7.54951 1.39941 7.47287 1.44151 7.41637 1.51645C7.35987 1.59138 7.32812 1.69302 7.32812 1.79899V1.79899Z" stroke="white" stroke-width="0.269444"/>
<path d="M7.125 9.79047C7.125 9.96709 7.17791 10.1365 7.27208 10.2614C7.36625 10.3863 7.49397 10.4564 7.62715 10.4564C7.76033 10.4564 7.88805 10.3863 7.98223 10.2614C8.0764 10.1365 8.1293 9.96709 8.1293 9.79047C8.1293 9.61385 8.0764 9.44446 7.98223 9.31957C7.88805 9.19468 7.76033 9.12451 7.62715 9.12451C7.49397 9.12451 7.36625 9.19468 7.27208 9.31957C7.17791 9.44446 7.125 9.61385 7.125 9.79047V9.79047Z" stroke="white" stroke-width="0.269444"/>
<path d="M7.125 17.7819C7.125 17.9585 7.17791 18.1279 7.27208 18.2528C7.36625 18.3777 7.49397 18.4479 7.62715 18.4479C7.76033 18.4479 7.88805 18.3777 7.98223 18.2528C8.0764 18.1279 8.1293 17.9585 8.1293 17.7819C8.1293 17.6053 8.0764 17.4359 7.98223 17.311C7.88805 17.1861 7.76033 17.116 7.62715 17.116C7.49397 17.116 7.36625 17.1861 7.27208 17.311C7.17791 17.4359 7.125 17.6053 7.125 17.7819V17.7819Z" stroke="white" stroke-width="0.269444"/>
<path d="M7.125 25.7734C7.125 25.95 7.17791 26.1194 7.27208 26.2443C7.36625 26.3692 7.49397 26.4393 7.62715 26.4393C7.76033 26.4393 7.88805 26.3692 7.98223 26.2443C8.0764 26.1194 8.1293 25.95 8.1293 25.7734C8.1293 25.5968 8.0764 25.4274 7.98223 25.3025C7.88805 25.1776 7.76033 25.1074 7.62715 25.1074C7.49397 25.1074 7.36625 25.1776 7.27208 25.3025C7.17791 25.4274 7.125 25.5968 7.125 25.7734V25.7734Z" stroke="white" stroke-width="0.269444"/>
<path d="M7.125 33.7651C7.125 33.9417 7.17791 34.1111 7.27208 34.236C7.36625 34.3609 7.49397 34.431 7.62715 34.431C7.76033 34.431 7.88805 34.3609 7.98223 34.236C8.0764 34.1111 8.1293 33.9417 8.1293 33.7651C8.1293 33.5885 8.0764 33.4191 7.98223 33.2942C7.88805 33.1693 7.76033 33.0991 7.62715 33.0991C7.49397 33.0991 7.36625 33.1693 7.27208 33.2942C7.17791 33.4191 7.125 33.5885 7.125 33.7651V33.7651Z" stroke="white" stroke-width="0.269444"/>
<path d="M8.23251 40.9575L7.02734 42.5558L8.23251 40.9575Z" stroke="white" stroke-width="0.269444"/>
<path d="M7.125 49.748C7.125 49.9246 7.17791 50.094 7.27208 50.2189C7.36625 50.3438 7.49397 50.4139 7.62715 50.4139C7.76033 50.4139 7.88805 50.3438 7.98223 50.2189C8.0764 50.094 8.1293 49.9246 8.1293 49.748C8.1293 49.5714 8.0764 49.402 7.98223 49.2771C7.88805 49.1522 7.76033 49.082 7.62715 49.082C7.49397 49.082 7.36625 49.1522 7.27208 49.2771C7.17791 49.402 7.125 49.5714 7.125 49.748V49.748Z" stroke="white" stroke-width="0.269444"/>
<path d="M7.125 57.7397C7.125 57.9163 7.17791 58.0857 7.27208 58.2106C7.36625 58.3355 7.49397 58.4056 7.62715 58.4056C7.76033 58.4056 7.88805 58.3355 7.98223 58.2106C8.0764 58.0857 8.1293 57.9163 8.1293 57.7397C8.1293 57.5631 8.0764 57.3937 7.98223 57.2688C7.88805 57.1439 7.76033 57.0737 7.62715 57.0737C7.49397 57.0737 7.36625 57.1439 7.27208 57.2688C7.17791 57.3937 7.125 57.5631 7.125 57.7397V57.7397Z" stroke="white" stroke-width="0.269444"/>
<path d="M7.125 65.7311C7.125 65.9078 7.17791 66.0772 7.27208 66.202C7.36625 66.3269 7.49397 66.3971 7.62715 66.3971C7.76033 66.3971 7.88805 66.3269 7.98223 66.202C8.0764 66.0772 8.1293 65.9078 8.1293 65.7311C8.1293 65.5545 8.0764 65.3851 7.98223 65.2602C7.88805 65.1353 7.76033 65.0652 7.62715 65.0652C7.49397 65.0652 7.36625 65.1353 7.27208 65.2602C7.17791 65.3851 7.125 65.5545 7.125 65.7311V65.7311Z" stroke="white" stroke-width="0.269444"/>
<path d="M7.52734 73.7228C7.52734 73.7581 7.53792 73.792 7.55676 73.817C7.57559 73.842 7.60114 73.856 7.62777 73.856C7.65441 73.856 7.67995 73.842 7.69879 73.817C7.71762 73.792 7.7282 73.7581 7.7282 73.7228C7.7282 73.6875 7.71762 73.6536 7.69879 73.6286C7.67995 73.6036 7.65441 73.5896 7.62777 73.5896C7.60114 73.5896 7.57559 73.6036 7.55676 73.6286C7.53792 73.6536 7.52734 73.6875 7.52734 73.7228V73.7228Z" stroke="white" stroke-width="0.269444"/>
<path d="M13.3516 1.79899C13.3516 1.90496 13.3833 2.0066 13.4398 2.08153C13.4963 2.15647 13.5729 2.19856 13.6529 2.19856C13.7328 2.19856 13.8094 2.15647 13.8659 2.08153C13.9224 2.0066 13.9541 1.90496 13.9541 1.79899C13.9541 1.69302 13.9224 1.59138 13.8659 1.51645C13.8094 1.44151 13.7328 1.39941 13.6529 1.39941C13.5729 1.39941 13.4963 1.44151 13.4398 1.51645C13.3833 1.59138 13.3516 1.69302 13.3516 1.79899V1.79899Z" stroke="white" stroke-width="0.269444"/>
<path d="M13.3516 9.79069C13.3516 9.89666 13.3833 9.9983 13.4398 10.0732C13.4963 10.1482 13.5729 10.1903 13.6529 10.1903C13.7328 10.1903 13.8094 10.1482 13.8659 10.0732C13.9224 9.9983 13.9541 9.89666 13.9541 9.79069C13.9541 9.68471 13.9224 9.58308 13.8659 9.50815C13.8094 9.43321 13.7328 9.39111 13.6529 9.39111C13.5729 9.39111 13.4963 9.43321 13.4398 9.50815C13.3833 9.58308 13.3516 9.68471 13.3516 9.79069V9.79069Z" stroke="white" stroke-width="0.269444"/>
<path d="M13.1523 17.7822C13.1523 17.9588 13.2052 18.1282 13.2994 18.2531C13.3936 18.378 13.5213 18.4481 13.6545 18.4481C13.7877 18.4481 13.9154 18.378 14.0096 18.2531C14.1037 18.1282 14.1566 17.9588 14.1566 17.7822C14.1566 17.6055 14.1037 17.4362 14.0096 17.3113C13.9154 17.1864 13.7877 17.1162 13.6545 17.1162C13.5213 17.1162 13.3936 17.1864 13.2994 17.3113C13.2052 17.4362 13.1523 17.6055 13.1523 17.7822V17.7822Z" stroke="white" stroke-width="0.269444"/>
<path d="M13.5547 25.7738C13.5547 25.8091 13.5653 25.843 13.5841 25.868C13.6029 25.893 13.6285 25.907 13.6551 25.907C13.6818 25.907 13.7073 25.893 13.7261 25.868C13.745 25.843 13.7555 25.8091 13.7555 25.7738C13.7555 25.7385 13.745 25.7046 13.7261 25.6796C13.7073 25.6547 13.6818 25.6406 13.6551 25.6406C13.6285 25.6406 13.6029 25.6547 13.5841 25.6796C13.5653 25.7046 13.5547 25.7385 13.5547 25.7738V25.7738Z" stroke="white" stroke-width="0.269444"/>
<path d="M13.8548 33.499L13.4531 34.0318L13.8548 33.499Z" stroke="white" stroke-width="0.269444"/>
<path d="M13.1523 41.7568C13.1523 41.9334 13.2052 42.1028 13.2994 42.2277C13.3936 42.3526 13.5213 42.4227 13.6545 42.4227C13.7877 42.4227 13.9154 42.3526 14.0096 42.2277C14.1037 42.1028 14.1566 41.9334 14.1566 41.7568C14.1566 41.5802 14.1037 41.4108 14.0096 41.2859C13.9154 41.161 13.7877 41.0908 13.6545 41.0908C13.5213 41.0908 13.3936 41.161 13.2994 41.2859C13.2052 41.4108 13.1523 41.5802 13.1523 41.7568V41.7568Z" stroke="white" stroke-width="0.269444"/>
<path d="M13.8548 49.4819L13.4531 50.0147L13.8548 49.4819Z" stroke="white" stroke-width="0.269444"/>
<path d="M14.2559 56.9404L13.0508 58.5387L14.2559 56.9404Z" stroke="white" stroke-width="0.269444"/>
<path d="M13.3516 65.7311C13.3516 65.8371 13.3833 65.9387 13.4398 66.0137C13.4963 66.0886 13.5729 66.1307 13.6529 66.1307C13.7328 66.1307 13.8094 66.0886 13.8659 66.0137C13.9224 65.9387 13.9541 65.8371 13.9541 65.7311C13.9541 65.6251 13.9224 65.5235 13.8659 65.4486C13.8094 65.3736 13.7328 65.3315 13.6529 65.3315C13.5729 65.3315 13.4963 65.3736 13.4398 65.4486C13.3833 65.5235 13.3516 65.6251 13.3516 65.7311V65.7311Z" stroke="white" stroke-width="0.269444"/>
<path d="M14.2559 72.9233L13.0508 74.5216L14.2559 72.9233Z" stroke="white" stroke-width="0.269444"/>
<path d="M19.1794 1.79902C19.1794 1.97564 19.2323 2.14503 19.3265 2.26992C19.4207 2.39481 19.5484 2.46497 19.6816 2.46497C19.8148 2.46497 19.9425 2.39481 20.0367 2.26992C20.1308 2.14503 20.1837 1.97564 20.1837 1.79902C20.1837 1.62239 20.1308 1.453 20.0367 1.32811C19.9425 1.20322 19.8148 1.13306 19.6816 1.13306C19.5484 1.13306 19.4207 1.20322 19.3265 1.32811C19.2323 1.453 19.1794 1.62239 19.1794 1.79902V1.79902Z" stroke="white" stroke-width="0.269444"/>
<path d="M20.2833 8.9917L19.0781 10.59L20.2833 8.9917Z" stroke="white" stroke-width="0.269444"/>
<path d="M19.3789 17.7821C19.3789 17.8881 19.4106 17.9898 19.4672 18.0647C19.5237 18.1396 19.6003 18.1817 19.6802 18.1817C19.7601 18.1817 19.8367 18.1396 19.8932 18.0647C19.9497 17.9898 19.9815 17.8881 19.9815 17.7821C19.9815 17.6762 19.9497 17.5745 19.8932 17.4996C19.8367 17.4247 19.7601 17.3826 19.6802 17.3826C19.6003 17.3826 19.5237 17.4247 19.4672 17.4996C19.4106 17.5745 19.3789 17.6762 19.3789 17.7821V17.7821Z" stroke="white" stroke-width="0.269444"/>
<path d="M19.3789 25.7736C19.3789 25.8796 19.4106 25.9812 19.4672 26.0561C19.5237 26.1311 19.6003 26.1732 19.6802 26.1732C19.7601 26.1732 19.8367 26.1311 19.8932 26.0561C19.9497 25.9812 19.9815 25.8796 19.9815 25.7736C19.9815 25.6676 19.9497 25.566 19.8932 25.4911C19.8367 25.4161 19.7601 25.374 19.6802 25.374C19.6003 25.374 19.5237 25.4161 19.4672 25.4911C19.4106 25.566 19.3789 25.6676 19.3789 25.7736V25.7736Z" stroke="white" stroke-width="0.269444"/>
<path d="M19.8822 33.499L19.4805 34.0318L19.8822 33.499Z" stroke="white" stroke-width="0.269444"/>
<path d="M19.1794 41.7568C19.1794 41.9334 19.2323 42.1028 19.3265 42.2277C19.4207 42.3526 19.5484 42.4227 19.6816 42.4227C19.8148 42.4227 19.9425 42.3526 20.0367 42.2277C20.1308 42.1028 20.1837 41.9334 20.1837 41.7568C20.1837 41.5802 20.1308 41.4108 20.0367 41.2859C19.9425 41.161 19.8148 41.0908 19.6816 41.0908C19.5484 41.0908 19.4207 41.161 19.3265 41.2859C19.2323 41.4108 19.1794 41.5802 19.1794 41.7568V41.7568Z" stroke="white" stroke-width="0.269444"/>
<path d="M20.2833 48.9492L19.0781 50.5475L20.2833 48.9492Z" stroke="white" stroke-width="0.269444"/>
<path d="M19.8822 57.4734L19.4805 58.0062L19.8822 57.4734Z" stroke="white" stroke-width="0.269444"/>
<path d="M20.2833 64.9321L19.0781 66.5304L20.2833 64.9321Z" stroke="white" stroke-width="0.269444"/>
<path d="M19.582 73.7228C19.582 73.7581 19.5926 73.792 19.6114 73.817C19.6303 73.842 19.6558 73.856 19.6825 73.856C19.7091 73.856 19.7346 73.842 19.7535 73.817C19.7723 73.792 19.7829 73.7581 19.7829 73.7228C19.7829 73.6875 19.7723 73.6536 19.7535 73.6286C19.7346 73.6036 19.7091 73.5896 19.6825 73.5896C19.6558 73.5896 19.6303 73.6036 19.6114 73.6286C19.5926 73.6536 19.582 73.6875 19.582 73.7228V73.7228Z" stroke="white" stroke-width="0.269444"/>
<path d="M25.4023 1.79899C25.4023 1.90496 25.4341 2.0066 25.4906 2.08153C25.5471 2.15647 25.6237 2.19856 25.7036 2.19856C25.7835 2.19856 25.8602 2.15647 25.9167 2.08153C25.9732 2.0066 26.0049 1.90496 26.0049 1.79899C26.0049 1.69302 25.9732 1.59138 25.9167 1.51645C25.8602 1.44151 25.7835 1.39941 25.7036 1.39941C25.6237 1.39941 25.5471 1.44151 25.4906 1.51645C25.4341 1.59138 25.4023 1.69302 25.4023 1.79899V1.79899Z" stroke="white" stroke-width="0.269444"/>
<path d="M28.7211 5.79492L22.6953 13.7864L28.7211 5.79492Z" stroke="white" stroke-width="0.808333"/>
<path d="M25.4023 17.7821C25.4023 17.8881 25.4341 17.9898 25.4906 18.0647C25.5471 18.1396 25.6237 18.1817 25.7036 18.1817C25.7835 18.1817 25.8602 18.1396 25.9167 18.0647C25.9732 17.9898 26.0049 17.8881 26.0049 17.7821C26.0049 17.6762 25.9732 17.5745 25.9167 17.4996C25.8602 17.4247 25.7835 17.3826 25.7036 17.3826C25.6237 17.3826 25.5471 17.4247 25.4906 17.4996C25.4341 17.5745 25.4023 17.6762 25.4023 17.7821V17.7821Z" stroke="white" stroke-width="0.269444"/>
<path d="M25.2031 25.7734C25.2031 25.95 25.256 26.1194 25.3502 26.2443C25.4444 26.3692 25.5721 26.4393 25.7053 26.4393C25.8385 26.4393 25.9662 26.3692 26.0604 26.2443C26.1545 26.1194 26.2074 25.95 26.2074 25.7734C26.2074 25.5968 26.1545 25.4274 26.0604 25.3025C25.9662 25.1776 25.8385 25.1074 25.7053 25.1074C25.5721 25.1074 25.4444 25.1776 25.3502 25.3025C25.256 25.4274 25.2031 25.5968 25.2031 25.7734Z" stroke="white" stroke-width="0.269444"/>
<path d="M25.9095 33.499L25.5078 34.0318L25.9095 33.499Z" stroke="white" stroke-width="0.269444"/>
<path d="M25.9095 41.4905L25.5078 42.0232L25.9095 41.4905Z" stroke="white" stroke-width="0.269444"/>
<path d="M25.4023 49.7482C25.4023 49.8542 25.4341 49.9558 25.4906 50.0308C25.5471 50.1057 25.6237 50.1478 25.7036 50.1478C25.7835 50.1478 25.8602 50.1057 25.9167 50.0308C25.9732 49.9558 26.0049 49.8542 26.0049 49.7482C26.0049 49.6422 25.9732 49.5406 25.9167 49.4657C25.8602 49.3907 25.7835 49.3486 25.7036 49.3486C25.6237 49.3486 25.5471 49.3907 25.4906 49.4657C25.4341 49.5406 25.4023 49.6422 25.4023 49.7482V49.7482Z" stroke="white" stroke-width="0.269444"/>
<path d="M26.3067 56.9404L25.1016 58.5387L26.3067 56.9404Z" stroke="white" stroke-width="0.269444"/>
<path d="M26.3067 64.9321L25.1016 66.5304L26.3067 64.9321Z" stroke="white" stroke-width="0.269444"/>
<path d="M26.3067 72.9233L25.1016 74.5216L26.3067 72.9233Z" stroke="white" stroke-width="0.269444"/>
<path d="M31.9291 1.53296L31.5273 2.06573L31.9291 1.53296Z" stroke="white" stroke-width="0.269444"/>
<path d="M32.3341 8.9917L31.1289 10.59L32.3341 8.9917Z" stroke="white" stroke-width="0.269444"/>
<path d="M32.3341 16.9829L31.1289 18.5812L32.3341 16.9829Z" stroke="white" stroke-width="0.269444"/>
<path d="M31.2305 25.7739C31.2305 25.9505 31.2834 26.1199 31.3775 26.2448C31.4717 26.3697 31.5994 26.4398 31.7326 26.4398C31.8658 26.4398 31.9935 26.3697 32.0877 26.2448C32.1819 26.1199 32.2348 25.9505 32.2348 25.7739C32.2348 25.5972 32.1819 25.4279 32.0877 25.303C31.9935 25.1781 31.8658 25.1079 31.7326 25.1079C31.5994 25.1079 31.4717 25.1781 31.3775 25.303C31.2834 25.4279 31.2305 25.5972 31.2305 25.7739V25.7739Z" stroke="white" stroke-width="0.269444"/>
<path d="M31.6328 33.765C31.6328 33.8004 31.6434 33.8342 31.6622 33.8592C31.6811 33.8842 31.7066 33.8982 31.7332 33.8982C31.7599 33.8982 31.7854 33.8842 31.8043 33.8592C31.8231 33.8342 31.8337 33.8004 31.8337 33.765C31.8337 33.7297 31.8231 33.6958 31.8043 33.6708C31.7854 33.6459 31.7599 33.6318 31.7332 33.6318C31.7066 33.6318 31.6811 33.6459 31.6622 33.6708C31.6434 33.6958 31.6328 33.7297 31.6328 33.765V33.765Z" stroke="white" stroke-width="0.269444"/>
<path d="M31.9291 41.4905L31.5273 42.0232L31.9291 41.4905Z" stroke="white" stroke-width="0.269444"/>
<path d="M31.2305 49.7482C31.2305 49.9249 31.2834 50.0942 31.3775 50.2191C31.4717 50.344 31.5994 50.4142 31.7326 50.4142C31.8658 50.4142 31.9935 50.344 32.0877 50.2191C32.1819 50.0942 32.2348 49.9249 32.2348 49.7482C32.2348 49.5716 32.1819 49.4022 32.0877 49.2773C31.9935 49.1524 31.8658 49.0823 31.7326 49.0823C31.5994 49.0823 31.4717 49.1524 31.3775 49.2773C31.2834 49.4022 31.2305 49.5716 31.2305 49.7482V49.7482Z" stroke="white" stroke-width="0.269444"/>
<path d="M31.2305 57.7397C31.2305 57.9163 31.2834 58.0857 31.3775 58.2106C31.4717 58.3355 31.5994 58.4056 31.7326 58.4056C31.8658 58.4056 31.9935 58.3355 32.0877 58.2106C32.1819 58.0857 32.2348 57.9163 32.2348 57.7397C32.2348 57.5631 32.1819 57.3937 32.0877 57.2688C31.9935 57.1439 31.8658 57.0737 31.7326 57.0737C31.5994 57.0737 31.4717 57.1439 31.3775 57.2688C31.2834 57.3937 31.2305 57.5631 31.2305 57.7397V57.7397Z" stroke="white" stroke-width="0.269444"/>
<path d="M31.9291 65.4648L31.5273 65.9976L31.9291 65.4648Z" stroke="white" stroke-width="0.269444"/>
<path d="M32.3341 72.9233L31.1289 74.5216L32.3341 72.9233Z" stroke="white" stroke-width="0.269444"/>
<path d="M38.3575 1L37.1523 2.5983L38.3575 1Z" stroke="white" stroke-width="0.269444"/>
<path d="M37.457 9.79069C37.457 9.89666 37.4888 9.9983 37.5453 10.0732C37.6018 10.1482 37.6784 10.1903 37.7583 10.1903C37.8382 10.1903 37.9149 10.1482 37.9714 10.0732C38.0279 9.9983 38.0596 9.89666 38.0596 9.79069C38.0596 9.68471 38.0279 9.58308 37.9714 9.50815C37.9149 9.43321 37.8382 9.39111 37.7583 9.39111C37.6784 9.39111 37.6018 9.43321 37.5453 9.50815C37.4888 9.58308 37.457 9.68471 37.457 9.79069V9.79069Z" stroke="white" stroke-width="0.269444"/>
<path d="M37.457 17.7821C37.457 17.8881 37.4888 17.9898 37.5453 18.0647C37.6018 18.1396 37.6784 18.1817 37.7583 18.1817C37.8382 18.1817 37.9149 18.1396 37.9714 18.0647C38.0279 17.9898 38.0596 17.8881 38.0596 17.7821C38.0596 17.6762 38.0279 17.5745 37.9714 17.4996C37.9149 17.4247 37.8382 17.3826 37.7583 17.3826C37.6784 17.3826 37.6018 17.4247 37.5453 17.4996C37.4888 17.5745 37.457 17.6762 37.457 17.7821V17.7821Z" stroke="white" stroke-width="0.269444"/>
<path d="M37.6562 25.7738C37.6562 25.8091 37.6668 25.843 37.6857 25.868C37.7045 25.893 37.73 25.907 37.7567 25.907C37.7833 25.907 37.8089 25.893 37.8277 25.868C37.8465 25.843 37.8571 25.8091 37.8571 25.7738C37.8571 25.7385 37.8465 25.7046 37.8277 25.6796C37.8089 25.6547 37.7833 25.6406 37.7567 25.6406C37.73 25.6406 37.7045 25.6547 37.6857 25.6796C37.6668 25.7046 37.6562 25.7385 37.6562 25.7738V25.7738Z" stroke="white" stroke-width="0.269444"/>
<path d="M37.2578 33.7651C37.2578 33.9417 37.3107 34.1111 37.4049 34.236C37.4991 34.3609 37.6268 34.431 37.76 34.431C37.8931 34.431 38.0209 34.3609 38.115 34.236C38.2092 34.1111 38.2621 33.9417 38.2621 33.7651C38.2621 33.5885 38.2092 33.4191 38.115 33.2942C38.0209 33.1693 37.8931 33.0991 37.76 33.0991C37.6268 33.0991 37.4991 33.1693 37.4049 33.2942C37.3107 33.4191 37.2578 33.5885 37.2578 33.7651V33.7651Z" stroke="white" stroke-width="0.269444"/>
<path d="M37.6562 41.7567C37.6562 41.7921 37.6668 41.8259 37.6857 41.8509C37.7045 41.8759 37.73 41.8899 37.7567 41.8899C37.7833 41.8899 37.8089 41.8759 37.8277 41.8509C37.8465 41.8259 37.8571 41.7921 37.8571 41.7567C37.8571 41.7214 37.8465 41.6875 37.8277 41.6625C37.8089 41.6376 37.7833 41.6235 37.7567 41.6235C37.73 41.6235 37.7045 41.6376 37.6857 41.6625C37.6668 41.6875 37.6562 41.7214 37.6562 41.7567V41.7567Z" stroke="white" stroke-width="0.269444"/>
<path d="M37.6562 49.7479C37.6562 49.7833 37.6668 49.8171 37.6857 49.8421C37.7045 49.8671 37.73 49.8811 37.7567 49.8811C37.7833 49.8811 37.8089 49.8671 37.8277 49.8421C37.8465 49.8171 37.8571 49.7833 37.8571 49.7479C37.8571 49.7126 37.8465 49.6787 37.8277 49.6538C37.8089 49.6288 37.7833 49.6147 37.7567 49.6147C37.73 49.6147 37.7045 49.6288 37.6857 49.6538C37.6668 49.6787 37.6562 49.7126 37.6562 49.7479V49.7479Z" stroke="white" stroke-width="0.269444"/>
<path d="M37.457 57.7397C37.457 57.8456 37.4888 57.9473 37.5453 58.0222C37.6018 58.0971 37.6784 58.1392 37.7583 58.1392C37.8382 58.1392 37.9149 58.0971 37.9714 58.0222C38.0279 57.9473 38.0596 57.8456 38.0596 57.7397C38.0596 57.6337 38.0279 57.5321 37.9714 57.4571C37.9149 57.3822 37.8382 57.3401 37.7583 57.3401C37.6784 57.3401 37.6018 57.3822 37.5453 57.4571C37.4888 57.5321 37.457 57.6337 37.457 57.7397V57.7397Z" stroke="white" stroke-width="0.269444"/>
<path d="M37.2578 65.7311C37.2578 65.9078 37.3107 66.0772 37.4049 66.202C37.4991 66.3269 37.6268 66.3971 37.76 66.3971C37.8931 66.3971 38.0209 66.3269 38.115 66.202C38.2092 66.0772 38.2621 65.9078 38.2621 65.7311C38.2621 65.5545 38.2092 65.3851 38.115 65.2602C38.0209 65.1353 37.8931 65.0652 37.76 65.0652C37.6268 65.0652 37.4991 65.1353 37.4049 65.2602C37.3107 65.3851 37.2578 65.5545 37.2578 65.7311V65.7311Z" stroke="white" stroke-width="0.269444"/>
<path d="M38.3575 72.9233L37.1523 74.5216L38.3575 72.9233Z" stroke="white" stroke-width="0.269444"/>
<path d="M43.2773 1.79902C43.2773 1.97564 43.3302 2.14503 43.4244 2.26992C43.5186 2.39481 43.6463 2.46497 43.7795 2.46497C43.9127 2.46497 44.0404 2.39481 44.1346 2.26992C44.2287 2.14503 44.2816 1.97564 44.2816 1.79902C44.2816 1.62239 44.2287 1.453 44.1346 1.32811C44.0404 1.20322 43.9127 1.13306 43.7795 1.13306C43.6463 1.13306 43.5186 1.20322 43.4244 1.32811C43.3302 1.453 43.2773 1.62239 43.2773 1.79902V1.79902Z" stroke="white" stroke-width="0.269444"/>
<path d="M43.4844 9.79069C43.4844 9.89666 43.5161 9.9983 43.5726 10.0732C43.6291 10.1482 43.7058 10.1903 43.7857 10.1903C43.8656 10.1903 43.9422 10.1482 43.9987 10.0732C44.0552 9.9983 44.087 9.89666 44.087 9.79069C44.087 9.68471 44.0552 9.58308 43.9987 9.50815C43.9422 9.43321 43.8656 9.39111 43.7857 9.39111C43.7058 9.39111 43.6291 9.43321 43.5726 9.50815C43.5161 9.58308 43.4844 9.68471 43.4844 9.79069V9.79069Z" stroke="white" stroke-width="0.269444"/>
<path d="M43.6836 17.7821C43.6836 17.8174 43.6942 17.8513 43.713 17.8763C43.7318 17.9013 43.7574 17.9153 43.784 17.9153C43.8107 17.9153 43.8362 17.9013 43.855 17.8763C43.8739 17.8513 43.8845 17.8174 43.8845 17.7821C43.8845 17.7468 43.8739 17.7129 43.855 17.6879C43.8362 17.663 43.8107 17.6489 43.784 17.6489C43.7574 17.6489 43.7318 17.663 43.713 17.6879C43.6942 17.7129 43.6836 17.7468 43.6836 17.7821V17.7821Z" stroke="white" stroke-width="0.269444"/>
<path d="M43.9838 25.5073L43.582 26.0401L43.9838 25.5073Z" stroke="white" stroke-width="0.269444"/>
<path d="M44.3849 32.9661L43.1797 34.5644L44.3849 32.9661Z" stroke="white" stroke-width="0.269444"/>
<path d="M43.9838 41.4905L43.582 42.0232L43.9838 41.4905Z" stroke="white" stroke-width="0.269444"/>
<path d="M43.9838 49.4819L43.582 50.0147L43.9838 49.4819Z" stroke="white" stroke-width="0.269444"/>
<path d="M43.9838 57.4734L43.582 58.0062L43.9838 57.4734Z" stroke="white" stroke-width="0.269444"/>
<path d="M43.2773 65.7311C43.2773 65.9078 43.3302 66.0772 43.4244 66.202C43.5186 66.3269 43.6463 66.3971 43.7795 66.3971C43.9127 66.3971 44.0404 66.3269 44.1346 66.202C44.2287 66.0772 44.2816 65.9078 44.2816 65.7311C44.2816 65.5545 44.2287 65.3851 44.1346 65.2602C44.0404 65.1353 43.9127 65.0652 43.7795 65.0652C43.6463 65.0652 43.5186 65.1353 43.4244 65.2602C43.3302 65.3851 43.2773 65.5545 43.2773 65.7311V65.7311Z" stroke="white" stroke-width="0.269444"/>
<path d="M43.9838 73.4563L43.582 73.9891L43.9838 73.4563Z" stroke="white" stroke-width="0.269444"/>
<path d="M49.3086 1.79926C49.3086 1.97588 49.3615 2.14527 49.4557 2.27016C49.5498 2.39505 49.6776 2.46522 49.8107 2.46522C49.9439 2.46522 50.0716 2.39505 50.1658 2.27016C50.26 2.14527 50.3129 1.97588 50.3129 1.79926C50.3129 1.62264 50.26 1.45325 50.1658 1.32836C50.0716 1.20346 49.9439 1.1333 49.8107 1.1333C49.6776 1.1333 49.5498 1.20346 49.4557 1.32836C49.3615 1.45325 49.3086 1.62264 49.3086 1.79926V1.79926Z" stroke="white" stroke-width="0.269444"/>
<path d="M50.4083 8.9917L49.2031 10.59L50.4083 8.9917Z" stroke="white" stroke-width="0.269444"/>
<path d="M50.0111 17.5161L49.6094 18.0489L50.0111 17.5161Z" stroke="white" stroke-width="0.269444"/>
<path d="M49.3086 25.7739C49.3086 25.9505 49.3615 26.1199 49.4557 26.2448C49.5498 26.3697 49.6776 26.4398 49.8107 26.4398C49.9439 26.4398 50.0716 26.3697 50.1658 26.2448C50.26 26.1199 50.3129 25.9505 50.3129 25.7739C50.3129 25.5972 50.26 25.4279 50.1658 25.303C50.0716 25.1781 49.9439 25.1079 49.8107 25.1079C49.6776 25.1079 49.5498 25.1781 49.4557 25.303C49.3615 25.4279 49.3086 25.5972 49.3086 25.7739V25.7739Z" stroke="white" stroke-width="0.269444"/>
<path d="M49.3086 33.7651C49.3086 33.9417 49.3615 34.1111 49.4557 34.236C49.5498 34.3609 49.6776 34.431 49.8107 34.431C49.9439 34.431 50.0716 34.3609 50.1658 34.236C50.26 34.1111 50.3129 33.9417 50.3129 33.7651C50.3129 33.5885 50.26 33.4191 50.1658 33.2942C50.0716 33.1693 49.9439 33.0991 49.8107 33.0991C49.6776 33.0991 49.5498 33.1693 49.4557 33.2942C49.3615 33.4191 49.3086 33.5885 49.3086 33.7651V33.7651Z" stroke="white" stroke-width="0.269444"/>
<path d="M49.3086 41.7568C49.3086 41.9334 49.3615 42.1028 49.4557 42.2277C49.5498 42.3526 49.6776 42.4227 49.8107 42.4227C49.9439 42.4227 50.0716 42.3526 50.1658 42.2277C50.26 42.1028 50.3129 41.9334 50.3129 41.7568C50.3129 41.5802 50.26 41.4108 50.1658 41.2859C50.0716 41.161 49.9439 41.0908 49.8107 41.0908C49.6776 41.0908 49.5498 41.161 49.4557 41.2859C49.3615 41.4108 49.3086 41.5802 49.3086 41.7568V41.7568Z" stroke="white" stroke-width="0.269444"/>
<path d="M49.5078 49.7482C49.5078 49.8542 49.5396 49.9558 49.5961 50.0308C49.6526 50.1057 49.7292 50.1478 49.8091 50.1478C49.889 50.1478 49.9656 50.1057 50.0221 50.0308C50.0787 49.9558 50.1104 49.8542 50.1104 49.7482C50.1104 49.6422 50.0787 49.5406 50.0221 49.4657C49.9656 49.3907 49.889 49.3486 49.8091 49.3486C49.7292 49.3486 49.6526 49.3907 49.5961 49.4657C49.5396 49.5406 49.5078 49.6422 49.5078 49.7482V49.7482Z" stroke="white" stroke-width="0.269444"/>
<path d="M49.5078 57.7397C49.5078 57.8456 49.5396 57.9473 49.5961 58.0222C49.6526 58.0971 49.7292 58.1392 49.8091 58.1392C49.889 58.1392 49.9656 58.0971 50.0221 58.0222C50.0787 57.9473 50.1104 57.8456 50.1104 57.7397C50.1104 57.6337 50.0787 57.5321 50.0221 57.4571C49.9656 57.3822 49.889 57.3401 49.8091 57.3401C49.7292 57.3401 49.6526 57.3822 49.5961 57.4571C49.5396 57.5321 49.5078 57.6337 49.5078 57.7397V57.7397Z" stroke="white" stroke-width="0.269444"/>
<path d="M49.3086 65.7311C49.3086 65.9078 49.3615 66.0772 49.4557 66.202C49.5498 66.3269 49.6776 66.3971 49.8107 66.3971C49.9439 66.3971 50.0716 66.3269 50.1658 66.202C50.26 66.0772 50.3129 65.9078 50.3129 65.7311C50.3129 65.5545 50.26 65.3851 50.1658 65.2602C50.0716 65.1353 49.9439 65.0652 49.8107 65.0652C49.6776 65.0652 49.5498 65.1353 49.4557 65.2602C49.3615 65.3851 49.3086 65.5545 49.3086 65.7311V65.7311Z" stroke="white" stroke-width="0.269444"/>
<path d="M49.3086 73.7226C49.3086 73.8992 49.3615 74.0686 49.4557 74.1935C49.5498 74.3184 49.6776 74.3886 49.8107 74.3886C49.9439 74.3886 50.0716 74.3184 50.1658 74.1935C50.26 74.0686 50.3129 73.8992 50.3129 73.7226C50.3129 73.546 50.26 73.3766 50.1658 73.2517C50.0716 73.1268 49.9439 73.0566 49.8107 73.0566C49.6776 73.0566 49.5498 73.1268 49.4557 73.2517C49.3615 73.3766 49.3086 73.546 49.3086 73.7226V73.7226Z" stroke="white" stroke-width="0.269444"/>
<path d="M56.4356 1L55.2305 2.5983L56.4356 1Z" stroke="white" stroke-width="0.269444"/>
<path d="M56.4356 8.99146L55.2305 10.5898L56.4356 8.99146Z" stroke="white" stroke-width="0.269444"/>
<path d="M55.5352 17.7821C55.5352 17.8881 55.5669 17.9898 55.6234 18.0647C55.6799 18.1396 55.7565 18.1817 55.8364 18.1817C55.9164 18.1817 55.993 18.1396 56.0495 18.0647C56.106 17.9898 56.1377 17.8881 56.1377 17.7821C56.1377 17.6762 56.106 17.5745 56.0495 17.4996C55.993 17.4247 55.9164 17.3826 55.8364 17.3826C55.7565 17.3826 55.6799 17.4247 55.6234 17.4996C55.5669 17.5745 55.5352 17.6762 55.5352 17.7821V17.7821Z" stroke="white" stroke-width="0.269444"/>
<path d="M55.332 25.7734C55.332 25.95 55.3849 26.1194 55.4791 26.2443C55.5733 26.3692 55.701 26.4393 55.8342 26.4393C55.9674 26.4393 56.0951 26.3692 56.1893 26.2443C56.2834 26.1194 56.3363 25.95 56.3363 25.7734C56.3363 25.5968 56.2834 25.4274 56.1893 25.3025C56.0951 25.1776 55.9674 25.1074 55.8342 25.1074C55.701 25.1074 55.5733 25.1776 55.4791 25.3025C55.3849 25.4274 55.332 25.5968 55.332 25.7734V25.7734Z" stroke="white" stroke-width="0.269444"/>
<path d="M55.332 33.7651C55.332 33.9417 55.3849 34.1111 55.4791 34.236C55.5733 34.3609 55.701 34.431 55.8342 34.431C55.9674 34.431 56.0951 34.3609 56.1893 34.236C56.2834 34.1111 56.3363 33.9417 56.3363 33.7651C56.3363 33.5885 56.2834 33.4191 56.1893 33.2942C56.0951 33.1693 55.9674 33.0991 55.8342 33.0991C55.701 33.0991 55.5733 33.1693 55.4791 33.2942C55.3849 33.4191 55.332 33.5885 55.332 33.7651V33.7651Z" stroke="white" stroke-width="0.269444"/>
<path d="M55.332 41.7568C55.332 41.9334 55.3849 42.1028 55.4791 42.2277C55.5733 42.3526 55.701 42.4227 55.8342 42.4227C55.9674 42.4227 56.0951 42.3526 56.1893 42.2277C56.2834 42.1028 56.3363 41.9334 56.3363 41.7568C56.3363 41.5802 56.2834 41.4108 56.1893 41.2859C56.0951 41.161 55.9674 41.0908 55.8342 41.0908C55.701 41.0908 55.5733 41.161 55.4791 41.2859C55.3849 41.4108 55.332 41.5802 55.332 41.7568V41.7568Z" stroke="white" stroke-width="0.269444"/>
<path d="M56.4356 48.9492L55.2305 50.5475L56.4356 48.9492Z" stroke="white" stroke-width="0.269444"/>
<path d="M56.0345 57.4734L55.6328 58.0062L56.0345 57.4734Z" stroke="white" stroke-width="0.269444"/>
<path d="M56.4356 64.9321L55.2305 66.5304L56.4356 64.9321Z" stroke="white" stroke-width="0.269444"/>
<path d="M55.5352 73.7228C55.5352 73.8288 55.5669 73.9304 55.6234 74.0054C55.6799 74.0803 55.7565 74.1224 55.8364 74.1224C55.9164 74.1224 55.993 74.0803 56.0495 74.0054C56.106 73.9304 56.1377 73.8288 56.1377 73.7228C56.1377 73.6168 56.106 73.5152 56.0495 73.4403C55.993 73.3653 55.9164 73.3232 55.8364 73.3232C55.7565 73.3232 55.6799 73.3653 55.6234 73.4403C55.5669 73.5152 55.5352 73.6168 55.5352 73.7228V73.7228Z" stroke="white" stroke-width="0.269444"/>
<path d="M61.7578 1.79921C61.7578 1.83453 61.7684 1.86841 61.7872 1.89339C61.8061 1.91837 61.8316 1.9324 61.8582 1.9324C61.8849 1.9324 61.9104 1.91837 61.9293 1.89339C61.9481 1.86841 61.9587 1.83453 61.9587 1.79921C61.9587 1.76388 61.9481 1.73 61.9293 1.70503C61.9104 1.68005 61.8849 1.66602 61.8582 1.66602C61.8316 1.66602 61.8061 1.68005 61.7872 1.70503C61.7684 1.73 61.7578 1.76388 61.7578 1.79921V1.79921Z" stroke="white" stroke-width="0.269444"/>
<path d="M61.5625 9.79069C61.5625 9.89666 61.5942 9.9983 61.6507 10.0732C61.7072 10.1482 61.7839 10.1903 61.8638 10.1903C61.9437 10.1903 62.0203 10.1482 62.0768 10.0732C62.1333 9.9983 62.1651 9.89666 62.1651 9.79069C62.1651 9.68471 62.1333 9.58308 62.0768 9.50815C62.0203 9.43321 61.9437 9.39111 61.8638 9.39111C61.7839 9.39111 61.7072 9.43321 61.6507 9.50815C61.5942 9.58308 61.5625 9.68471 61.5625 9.79069V9.79069Z" stroke="white" stroke-width="0.269444"/>
<path d="M61.5625 17.7821C61.5625 17.8881 61.5942 17.9898 61.6507 18.0647C61.7072 18.1396 61.7839 18.1817 61.8638 18.1817C61.9437 18.1817 62.0203 18.1396 62.0768 18.0647C62.1333 17.9898 62.1651 17.8881 62.1651 17.7821C62.1651 17.6762 62.1333 17.5745 62.0768 17.4996C62.0203 17.4247 61.9437 17.3826 61.8638 17.3826C61.7839 17.3826 61.7072 17.4247 61.6507 17.4996C61.5942 17.5745 61.5625 17.6762 61.5625 17.7821V17.7821Z" stroke="white" stroke-width="0.269444"/>
<path d="M62.0619 25.5073L61.6602 26.0401L62.0619 25.5073Z" stroke="white" stroke-width="0.269444"/>
<path d="M62.0619 33.499L61.6602 34.0318L62.0619 33.499Z" stroke="white" stroke-width="0.269444"/>
<path d="M61.5625 41.7565C61.5625 41.8625 61.5942 41.9641 61.6507 42.0391C61.7072 42.114 61.7839 42.1561 61.8638 42.1561C61.9437 42.1561 62.0203 42.114 62.0768 42.0391C62.1333 41.9641 62.1651 41.8625 62.1651 41.7565C62.1651 41.6505 62.1333 41.5489 62.0768 41.474C62.0203 41.399 61.9437 41.3569 61.8638 41.3569C61.7839 41.3569 61.7072 41.399 61.6507 41.474C61.5942 41.5489 61.5625 41.6505 61.5625 41.7565V41.7565Z" stroke="white" stroke-width="0.269444"/>
<path d="M61.7578 49.7479C61.7578 49.7833 61.7684 49.8171 61.7872 49.8421C61.8061 49.8671 61.8316 49.8811 61.8582 49.8811C61.8849 49.8811 61.9104 49.8671 61.9293 49.8421C61.9481 49.8171 61.9587 49.7833 61.9587 49.7479C61.9587 49.7126 61.9481 49.6787 61.9293 49.6538C61.9104 49.6288 61.8849 49.6147 61.8582 49.6147C61.8316 49.6147 61.8061 49.6288 61.7872 49.6538C61.7684 49.6787 61.7578 49.7126 61.7578 49.7479V49.7479Z" stroke="white" stroke-width="0.269444"/>
<path d="M62.0619 57.4734L61.6602 58.0062L62.0619 57.4734Z" stroke="white" stroke-width="0.269444"/>
<path d="M62.463 64.9321L61.2578 66.5304L62.463 64.9321Z" stroke="white" stroke-width="0.269444"/>
<path d="M61.3555 73.7226C61.3555 73.8992 61.4084 74.0686 61.5025 74.1935C61.5967 74.3184 61.7244 74.3886 61.8576 74.3886C61.9908 74.3886 62.1185 74.3184 62.2127 74.1935C62.3069 74.0686 62.3598 73.8992 62.3598 73.7226C62.3598 73.546 62.3069 73.3766 62.2127 73.2517C62.1185 73.1268 61.9908 73.0566 61.8576 73.0566C61.7244 73.0566 61.5967 73.1268 61.5025 73.2517C61.4084 73.3766 61.3555 73.546 61.3555 73.7226V73.7226Z" stroke="white" stroke-width="0.269444"/>
<path d="M67.582 1.79899C67.582 1.90496 67.6138 2.0066 67.6703 2.08153C67.7268 2.15647 67.8034 2.19856 67.8833 2.19856C67.9632 2.19856 68.0399 2.15647 68.0964 2.08153C68.1529 2.0066 68.1846 1.90496 68.1846 1.79899C68.1846 1.69302 68.1529 1.59138 68.0964 1.51645C68.0399 1.44151 67.9632 1.39941 67.8833 1.39941C67.8034 1.39941 67.7268 1.44151 67.6703 1.51645C67.6138 1.59138 67.582 1.69302 67.582 1.79899V1.79899Z" stroke="white" stroke-width="0.269444"/>
<path d="M67.3828 9.79047C67.3828 9.96709 67.4357 10.1365 67.5299 10.2614C67.6241 10.3863 67.7518 10.4564 67.885 10.4564C68.0181 10.4564 68.1459 10.3863 68.24 10.2614C68.3342 10.1365 68.3871 9.96709 68.3871 9.79047C68.3871 9.61385 68.3342 9.44446 68.24 9.31957C68.1459 9.19468 68.0181 9.12451 67.885 9.12451C67.7518 9.12451 67.6241 9.19468 67.5299 9.31957C67.4357 9.44446 67.3828 9.61385 67.3828 9.79047V9.79047Z" stroke="white" stroke-width="0.269444"/>
<path d="M67.3828 17.7822C67.3828 17.9588 67.4357 18.1282 67.5299 18.2531C67.6241 18.378 67.7518 18.4481 67.885 18.4481C68.0181 18.4481 68.1459 18.378 68.24 18.2531C68.3342 18.1282 68.3871 17.9588 68.3871 17.7822C68.3871 17.6055 68.3342 17.4362 68.24 17.3113C68.1459 17.1864 68.0181 17.1162 67.885 17.1162C67.7518 17.1162 67.6241 17.1864 67.5299 17.3113C67.4357 17.4362 67.3828 17.6055 67.3828 17.7822V17.7822Z" stroke="white" stroke-width="0.269444"/>
<path d="M67.7852 25.7738C67.7852 25.8091 67.7957 25.843 67.8146 25.868C67.8334 25.893 67.859 25.907 67.8856 25.907C67.9122 25.907 67.9378 25.893 67.9566 25.868C67.9754 25.843 67.986 25.8091 67.986 25.7738C67.986 25.7385 67.9754 25.7046 67.9566 25.6796C67.9378 25.6547 67.9122 25.6406 67.8856 25.6406C67.859 25.6406 67.8334 25.6547 67.8146 25.6796C67.7957 25.7046 67.7852 25.7385 67.7852 25.7738V25.7738Z" stroke="white" stroke-width="0.269444"/>
<path d="M68.4901 32.9661L67.2849 34.5644L68.4901 32.9661Z" stroke="white" stroke-width="0.269444"/>
<path d="M68.4901 40.9575L67.2849 42.5558L68.4901 40.9575Z" stroke="white" stroke-width="0.269444"/>
<path d="M68.4901 48.9492L67.2849 50.5475L68.4901 48.9492Z" stroke="white" stroke-width="0.269444"/>
<path d="M68.4901 56.9404L67.2849 58.5387L68.4901 56.9404Z" stroke="white" stroke-width="0.269444"/>
<path d="M68.4901 64.9321L67.2849 66.5304L68.4901 64.9321Z" stroke="white" stroke-width="0.269444"/>
<path d="M67.3828 73.7226C67.3828 73.8992 67.4357 74.0686 67.5299 74.1935C67.6241 74.3184 67.7518 74.3886 67.885 74.3886C68.0181 74.3886 68.1459 74.3184 68.24 74.1935C68.3342 74.0686 68.3871 73.8992 68.3871 73.7226C68.3871 73.546 68.3342 73.3766 68.24 73.2517C68.1459 73.1268 68.0181 73.0566 67.885 73.0566C67.7518 73.0566 67.6241 73.1268 67.5299 73.2517C67.4357 73.3766 67.3828 73.546 67.3828 73.7226V73.7226Z" stroke="white" stroke-width="0.269444"/>
<path d="M74.5177 1.00024L73.3125 2.59855L74.5177 1.00024Z" stroke="white" stroke-width="0.269444"/>
<path d="M73.4141 9.79071C73.4141 9.96734 73.467 10.1367 73.5611 10.2616C73.6553 10.3865 73.783 10.4567 73.9162 10.4567C74.0494 10.4567 74.1771 10.3865 74.2713 10.2616C74.3655 10.1367 74.4184 9.96734 74.4184 9.79071C74.4184 9.61409 74.3655 9.4447 74.2713 9.31981C74.1771 9.19492 74.0494 9.12476 73.9162 9.12476C73.783 9.12476 73.6553 9.19492 73.5611 9.31981C73.467 9.4447 73.4141 9.61409 73.4141 9.79071V9.79071Z" stroke="white" stroke-width="0.269444"/>
<path d="M73.4141 17.7822C73.4141 17.9588 73.467 18.1282 73.5611 18.2531C73.6553 18.378 73.783 18.4481 73.9162 18.4481C74.0494 18.4481 74.1771 18.378 74.2713 18.2531C74.3655 18.1282 74.4184 17.9588 74.4184 17.7822C74.4184 17.6055 74.3655 17.4362 74.2713 17.3113C74.1771 17.1864 74.0494 17.1162 73.9162 17.1162C73.783 17.1162 73.6553 17.1864 73.5611 17.3113C73.467 17.4362 73.4141 17.6055 73.4141 17.7822V17.7822Z" stroke="white" stroke-width="0.269444"/>
<path d="M74.1166 25.5076L73.7148 26.0403L74.1166 25.5076Z" stroke="white" stroke-width="0.269444"/>
<path d="M74.5177 32.9661L73.3125 34.5644L74.5177 32.9661Z" stroke="white" stroke-width="0.269444"/>
<path d="M74.1166 41.4905L73.7148 42.0232L74.1166 41.4905Z" stroke="white" stroke-width="0.269444"/>
<path d="M74.5177 48.9492L73.3125 50.5475L74.5177 48.9492Z" stroke="white" stroke-width="0.269444"/>
<path d="M74.5177 56.9407L73.3125 58.539L74.5177 56.9407Z" stroke="white" stroke-width="0.269444"/>
<path d="M74.1166 65.4648L73.7148 65.9976L74.1166 65.4648Z" stroke="white" stroke-width="0.269444"/>
<path d="M73.6133 73.7228C73.6133 73.8288 73.645 73.9304 73.7015 74.0054C73.758 74.0803 73.8347 74.1224 73.9146 74.1224C73.9945 74.1224 74.0711 74.0803 74.1276 74.0054C74.1841 73.9304 74.2159 73.8288 74.2159 73.7228C74.2159 73.6168 74.1841 73.5152 74.1276 73.4403C74.0711 73.3653 73.9945 73.3232 73.9146 73.3232C73.8347 73.3232 73.758 73.3653 73.7015 73.4403C73.645 73.5152 73.6133 73.6168 73.6133 73.7228V73.7228Z" stroke="white" stroke-width="0.269444"/>
<path d="M79.6406 1.79923C79.6406 1.90521 79.6724 2.00684 79.7289 2.08178C79.7854 2.15671 79.862 2.19881 79.9419 2.19881C80.0218 2.19881 80.0985 2.15671 80.155 2.08178C80.2115 2.00684 80.2432 1.90521 80.2432 1.79923C80.2432 1.69326 80.2115 1.59163 80.155 1.51669C80.0985 1.44176 80.0218 1.39966 79.9419 1.39966C79.862 1.39966 79.7854 1.44176 79.7289 1.51669C79.6724 1.59163 79.6406 1.69326 79.6406 1.79923V1.79923Z" stroke="white" stroke-width="0.269444"/>
<path d="M79.4375 9.79071C79.4375 9.96734 79.4904 10.1367 79.5846 10.2616C79.6787 10.3865 79.8065 10.4567 79.9397 10.4567C80.0728 10.4567 80.2006 10.3865 80.2947 10.2616C80.3889 10.1367 80.4418 9.96734 80.4418 9.79071C80.4418 9.61409 80.3889 9.4447 80.2947 9.31981C80.2006 9.19492 80.0728 9.12476 79.9397 9.12476C79.8065 9.12476 79.6787 9.19492 79.5846 9.31981C79.4904 9.4447 79.4375 9.61409 79.4375 9.79071V9.79071Z" stroke="white" stroke-width="0.269444"/>
<path d="M79.4375 17.7822C79.4375 17.9588 79.4904 18.1282 79.5846 18.2531C79.6787 18.378 79.8065 18.4481 79.9397 18.4481C80.0728 18.4481 80.2006 18.378 80.2947 18.2531C80.3889 18.1282 80.4418 17.9588 80.4418 17.7822C80.4418 17.6055 80.3889 17.4362 80.2947 17.3113C80.2006 17.1864 80.0728 17.1162 79.9397 17.1162C79.8065 17.1162 79.6787 17.1864 79.5846 17.3113C79.4904 17.4362 79.4375 17.6055 79.4375 17.7822V17.7822Z" stroke="white" stroke-width="0.269444"/>
<path d="M79.4375 25.7736C79.4375 25.9502 79.4904 26.1196 79.5846 26.2445C79.6787 26.3694 79.8065 26.4396 79.9397 26.4396C80.0728 26.4396 80.2006 26.3694 80.2947 26.2445C80.3889 26.1196 80.4418 25.9502 80.4418 25.7736C80.4418 25.597 80.3889 25.4276 80.2947 25.3027C80.2006 25.1778 80.0728 25.1077 79.9397 25.1077C79.8065 25.1077 79.6787 25.1778 79.5846 25.3027C79.4904 25.4276 79.4375 25.597 79.4375 25.7736V25.7736Z" stroke="white" stroke-width="0.269444"/>
<path d="M79.4375 33.7651C79.4375 33.9417 79.4904 34.1111 79.5846 34.236C79.6787 34.3609 79.8065 34.431 79.9397 34.431C80.0728 34.431 80.2006 34.3609 80.2947 34.236C80.3889 34.1111 80.4418 33.9417 80.4418 33.7651C80.4418 33.5885 80.3889 33.4191 80.2947 33.2942C80.2006 33.1693 80.0728 33.0991 79.9397 33.0991C79.8065 33.0991 79.6787 33.1693 79.5846 33.2942C79.4904 33.4191 79.4375 33.5885 79.4375 33.7651V33.7651Z" stroke="white" stroke-width="0.269444"/>
<path d="M80.545 40.9575L79.3398 42.5558L80.545 40.9575Z" stroke="white" stroke-width="0.269444"/>
<path d="M79.4375 49.7482C79.4375 49.9249 79.4904 50.0942 79.5846 50.2191C79.6787 50.344 79.8065 50.4142 79.9397 50.4142C80.0728 50.4142 80.2006 50.344 80.2947 50.2191C80.3889 50.0942 80.4418 49.9249 80.4418 49.7482C80.4418 49.5716 80.3889 49.4022 80.2947 49.2773C80.2006 49.1524 80.0728 49.0823 79.9397 49.0823C79.8065 49.0823 79.6787 49.1524 79.5846 49.2773C79.4904 49.4022 79.4375 49.5716 79.4375 49.7482V49.7482Z" stroke="white" stroke-width="0.269444"/>
<path d="M79.4375 57.7397C79.4375 57.9163 79.4904 58.0857 79.5846 58.2106C79.6787 58.3355 79.8065 58.4056 79.9397 58.4056C80.0728 58.4056 80.2006 58.3355 80.2947 58.2106C80.3889 58.0857 80.4418 57.9163 80.4418 57.7397C80.4418 57.5631 80.3889 57.3937 80.2947 57.2688C80.2006 57.1439 80.0728 57.0737 79.9397 57.0737C79.8065 57.0737 79.6787 57.1439 79.5846 57.2688C79.4904 57.3937 79.4375 57.5631 79.4375 57.7397V57.7397Z" stroke="white" stroke-width="0.269444"/>
<path d="M79.4375 65.7314C79.4375 65.908 79.4904 66.0774 79.5846 66.2023C79.6787 66.3272 79.8065 66.3973 79.9397 66.3973C80.0728 66.3973 80.2006 66.3272 80.2947 66.2023C80.3889 66.0774 80.4418 65.908 80.4418 65.7314C80.4418 65.5548 80.3889 65.3854 80.2947 65.2605C80.2006 65.1356 80.0728 65.0654 79.9397 65.0654C79.8065 65.0654 79.6787 65.1356 79.5846 65.2605C79.4904 65.3854 79.4375 65.5548 79.4375 65.7314V65.7314Z" stroke="white" stroke-width="0.269444"/>
<path d="M79.8398 73.7228C79.8398 73.7581 79.8504 73.792 79.8693 73.817C79.8881 73.842 79.9136 73.856 79.9403 73.856C79.9669 73.856 79.9925 73.842 80.0113 73.817C80.0301 73.792 80.0407 73.7581 80.0407 73.7228C80.0407 73.6875 80.0301 73.6536 80.0113 73.6286C79.9925 73.6036 79.9669 73.5896 79.9403 73.5896C79.9136 73.5896 79.8881 73.6036 79.8693 73.6286C79.8504 73.6536 79.8398 73.6875 79.8398 73.7228V73.7228Z" stroke="white" stroke-width="0.269444"/>
<path d="M85.6641 1.79923C85.6641 1.90521 85.6958 2.00684 85.7523 2.08178C85.8088 2.15671 85.8854 2.19881 85.9654 2.19881C86.0453 2.19881 86.1219 2.15671 86.1784 2.08178C86.2349 2.00684 86.2666 1.90521 86.2666 1.79923C86.2666 1.69326 86.2349 1.59163 86.1784 1.51669C86.1219 1.44176 86.0453 1.39966 85.9654 1.39966C85.8854 1.39966 85.8088 1.44176 85.7523 1.51669C85.6958 1.59163 85.6641 1.69326 85.6641 1.79923V1.79923Z" stroke="white" stroke-width="0.269444"/>
<path d="M85.6641 9.79069C85.6641 9.89666 85.6958 9.9983 85.7523 10.0732C85.8088 10.1482 85.8854 10.1903 85.9654 10.1903C86.0453 10.1903 86.1219 10.1482 86.1784 10.0732C86.2349 9.9983 86.2666 9.89666 86.2666 9.79069C86.2666 9.68471 86.2349 9.58308 86.1784 9.50815C86.1219 9.43321 86.0453 9.39111 85.9654 9.39111C85.8854 9.39111 85.8088 9.43321 85.7523 9.50815C85.6958 9.58308 85.6641 9.68471 85.6641 9.79069V9.79069Z" stroke="white" stroke-width="0.269444"/>
<path d="M85.4648 17.7822C85.4648 17.9588 85.5177 18.1282 85.6119 18.2531C85.7061 18.378 85.8338 18.4481 85.967 18.4481C86.1002 18.4481 86.2279 18.378 86.3221 18.2531C86.4162 18.1282 86.4691 17.9588 86.4691 17.7822C86.4691 17.6055 86.4162 17.4362 86.3221 17.3113C86.2279 17.1864 86.1002 17.1162 85.967 17.1162C85.8338 17.1162 85.7061 17.1864 85.6119 17.3113C85.5177 17.4362 85.4648 17.6055 85.4648 17.7822V17.7822Z" stroke="white" stroke-width="0.269444"/>
<path d="M85.8672 25.7738C85.8672 25.8091 85.8778 25.843 85.8966 25.868C85.9154 25.893 85.941 25.907 85.9676 25.907C85.9943 25.907 86.0198 25.893 86.0386 25.868C86.0575 25.843 86.068 25.8091 86.068 25.7738C86.068 25.7385 86.0575 25.7046 86.0386 25.6796C86.0198 25.6547 85.9943 25.6406 85.9676 25.6406C85.941 25.6406 85.9154 25.6547 85.8966 25.6796C85.8778 25.7046 85.8672 25.7385 85.8672 25.7738V25.7738Z" stroke="white" stroke-width="0.269444"/>
<path d="M86.1673 33.499L85.7656 34.0318L86.1673 33.499Z" stroke="white" stroke-width="0.269444"/>
<path d="M85.4648 41.7568C85.4648 41.9334 85.5177 42.1028 85.6119 42.2277C85.7061 42.3526 85.8338 42.4227 85.967 42.4227C86.1002 42.4227 86.2279 42.3526 86.3221 42.2277C86.4162 42.1028 86.4691 41.9334 86.4691 41.7568C86.4691 41.5802 86.4162 41.4108 86.3221 41.2859C86.2279 41.161 86.1002 41.0908 85.967 41.0908C85.8338 41.0908 85.7061 41.161 85.6119 41.2859C85.5177 41.4108 85.4648 41.5802 85.4648 41.7568V41.7568Z" stroke="white" stroke-width="0.269444"/>
<path d="M86.1673 49.4819L85.7656 50.0147L86.1673 49.4819Z" stroke="white" stroke-width="0.269444"/>
<path d="M86.5684 56.9407L85.3633 58.539L86.5684 56.9407Z" stroke="white" stroke-width="0.269444"/>
<path d="M85.6641 65.7311C85.6641 65.8371 85.6958 65.9387 85.7523 66.0137C85.8088 66.0886 85.8854 66.1307 85.9654 66.1307C86.0453 66.1307 86.1219 66.0886 86.1784 66.0137C86.2349 65.9387 86.2666 65.8371 86.2666 65.7311C86.2666 65.6251 86.2349 65.5235 86.1784 65.4486C86.1219 65.3736 86.0453 65.3315 85.9654 65.3315C85.8854 65.3315 85.8088 65.3736 85.7523 65.4486C85.6958 65.5235 85.6641 65.6251 85.6641 65.7311V65.7311Z" stroke="white" stroke-width="0.269444"/>
<path d="M86.5684 72.9238L85.3633 74.5221L86.5684 72.9238Z" stroke="white" stroke-width="0.269444"/>
<path d="M91.4919 1.79926C91.4919 1.97588 91.5448 2.14527 91.639 2.27016C91.7332 2.39505 91.8609 2.46522 91.9941 2.46522C92.1273 2.46522 92.255 2.39505 92.3492 2.27016C92.4433 2.14527 92.4962 1.97588 92.4962 1.79926C92.4962 1.62264 92.4433 1.45325 92.3492 1.32836C92.255 1.20346 92.1273 1.1333 91.9941 1.1333C91.8609 1.1333 91.7332 1.20346 91.639 1.32836C91.5448 1.45325 91.4919 1.62264 91.4919 1.79926V1.79926Z" stroke="white" stroke-width="0.269444"/>
<path d="M92.5958 8.9917L91.3906 10.59L92.5958 8.9917Z" stroke="white" stroke-width="0.269444"/>
<path d="M91.6914 17.7824C91.6914 17.8884 91.7231 17.99 91.7797 18.0649C91.8362 18.1399 91.9128 18.182 91.9927 18.182C92.0726 18.182 92.1492 18.1399 92.2057 18.0649C92.2622 17.99 92.294 17.8884 92.294 17.7824C92.294 17.6764 92.2622 17.5748 92.2057 17.4998C92.1492 17.4249 92.0726 17.3828 91.9927 17.3828C91.9128 17.3828 91.8362 17.4249 91.7797 17.4998C91.7231 17.5748 91.6914 17.6764 91.6914 17.7824V17.7824Z" stroke="white" stroke-width="0.269444"/>
<path d="M91.6914 25.7736C91.6914 25.8796 91.7231 25.9812 91.7797 26.0561C91.8362 26.1311 91.9128 26.1732 91.9927 26.1732C92.0726 26.1732 92.1492 26.1311 92.2057 26.0561C92.2622 25.9812 92.294 25.8796 92.294 25.7736C92.294 25.6676 92.2622 25.566 92.2057 25.4911C92.1492 25.4161 92.0726 25.374 91.9927 25.374C91.9128 25.374 91.8362 25.4161 91.7797 25.4911C91.7231 25.566 91.6914 25.6676 91.6914 25.7736V25.7736Z" stroke="white" stroke-width="0.269444"/>
<path d="M92.1947 33.499L91.793 34.0318L92.1947 33.499Z" stroke="white" stroke-width="0.269444"/>
<path d="M91.4919 41.7568C91.4919 41.9334 91.5448 42.1028 91.639 42.2277C91.7332 42.3526 91.8609 42.4227 91.9941 42.4227C92.1273 42.4227 92.255 42.3526 92.3492 42.2277C92.4433 42.1028 92.4962 41.9334 92.4962 41.7568C92.4962 41.5802 92.4433 41.4108 92.3492 41.2859C92.255 41.161 92.1273 41.0908 91.9941 41.0908C91.8609 41.0908 91.7332 41.161 91.639 41.2859C91.5448 41.4108 91.4919 41.5802 91.4919 41.7568V41.7568Z" stroke="white" stroke-width="0.269444"/>
<path d="M92.5958 48.9492L91.3906 50.5475L92.5958 48.9492Z" stroke="white" stroke-width="0.269444"/>
<path d="M92.1947 57.4734L91.793 58.0062L92.1947 57.4734Z" stroke="white" stroke-width="0.269444"/>
<path d="M92.5958 64.9321L91.3906 66.5304L92.5958 64.9321Z" stroke="white" stroke-width="0.269444"/>
<path d="M91.8945 73.7228C91.8945 73.7581 91.9051 73.792 91.9239 73.817C91.9428 73.842 91.9683 73.856 91.995 73.856C92.0216 73.856 92.0471 73.842 92.066 73.817C92.0848 73.792 92.0954 73.7581 92.0954 73.7228C92.0954 73.6875 92.0848 73.6536 92.066 73.6286C92.0471 73.6036 92.0216 73.5896 91.995 73.5896C91.9683 73.5896 91.9428 73.6036 91.9239 73.6286C91.9051 73.6536 91.8945 73.6875 91.8945 73.7228V73.7228Z" stroke="white" stroke-width="0.269444"/>
<path d="M97.7148 1.79923C97.7148 1.90521 97.7466 2.00684 97.8031 2.08178C97.8596 2.15671 97.9362 2.19881 98.0161 2.19881C98.096 2.19881 98.1727 2.15671 98.2292 2.08178C98.2857 2.00684 98.3174 1.90521 98.3174 1.79923C98.3174 1.69326 98.2857 1.59163 98.2292 1.51669C98.1727 1.44176 98.096 1.39966 98.0161 1.39966C97.9362 1.39966 97.8596 1.44176 97.8031 1.51669C97.7466 1.59163 97.7148 1.69326 97.7148 1.79923V1.79923Z" stroke="white" stroke-width="0.269444"/>
<path d="M101.034 5.79492L95.0078 13.7864L101.034 5.79492Z" stroke="white" stroke-width="0.808333"/>
<path d="M97.7148 17.7824C97.7148 17.8884 97.7466 17.99 97.8031 18.0649C97.8596 18.1399 97.9362 18.182 98.0161 18.182C98.096 18.182 98.1727 18.1399 98.2292 18.0649C98.2857 17.99 98.3174 17.8884 98.3174 17.7824C98.3174 17.6764 98.2857 17.5748 98.2292 17.4998C98.1727 17.4249 98.096 17.3828 98.0161 17.3828C97.9362 17.3828 97.8596 17.4249 97.8031 17.4998C97.7466 17.5748 97.7148 17.6764 97.7148 17.7824V17.7824Z" stroke="white" stroke-width="0.269444"/>
<path d="M97.5156 25.7736C97.5156 25.9502 97.5685 26.1196 97.6627 26.2445C97.7569 26.3694 97.8846 26.4396 98.0178 26.4396C98.151 26.4396 98.2787 26.3694 98.3729 26.2445C98.467 26.1196 98.5199 25.9502 98.5199 25.7736C98.5199 25.597 98.467 25.4276 98.3729 25.3027C98.2787 25.1778 98.151 25.1077 98.0178 25.1077C97.8846 25.1077 97.7569 25.1778 97.6627 25.3027C97.5685 25.4276 97.5156 25.597 97.5156 25.7736V25.7736Z" stroke="white" stroke-width="0.269444"/>
<path d="M98.222 33.499L97.8203 34.0318L98.222 33.499Z" stroke="white" stroke-width="0.269444"/>
<path d="M98.222 41.4905L97.8203 42.0232L98.222 41.4905Z" stroke="white" stroke-width="0.269444"/>
<path d="M97.7148 49.7482C97.7148 49.8542 97.7466 49.9558 97.8031 50.0308C97.8596 50.1057 97.9362 50.1478 98.0161 50.1478C98.096 50.1478 98.1727 50.1057 98.2292 50.0308C98.2857 49.9558 98.3174 49.8542 98.3174 49.7482C98.3174 49.6422 98.2857 49.5406 98.2292 49.4657C98.1727 49.3907 98.096 49.3486 98.0161 49.3486C97.9362 49.3486 97.8596 49.3907 97.8031 49.4657C97.7466 49.5406 97.7148 49.6422 97.7148 49.7482V49.7482Z" stroke="white" stroke-width="0.269444"/>
<path d="M98.6192 56.9407L97.4141 58.539L98.6192 56.9407Z" stroke="white" stroke-width="0.269444"/>
<path d="M98.6192 64.9321L97.4141 66.5304L98.6192 64.9321Z" stroke="white" stroke-width="0.269444"/>
<path d="M98.6192 72.9238L97.4141 74.5221L98.6192 72.9238Z" stroke="white" stroke-width="0.269444"/>
<path d="M104.242 1.5332L103.84 2.06597L104.242 1.5332Z" stroke="white" stroke-width="0.269444"/>
<path d="M104.647 8.9917L103.441 10.59L104.647 8.9917Z" stroke="white" stroke-width="0.269444"/>
<path d="M104.647 16.9829L103.441 18.5812L104.647 16.9829Z" stroke="white" stroke-width="0.269444"/>
<path d="M103.543 25.7739C103.543 25.9505 103.596 26.1199 103.69 26.2448C103.784 26.3697 103.912 26.4398 104.045 26.4398C104.178 26.4398 104.306 26.3697 104.4 26.2448C104.494 26.1199 104.547 25.9505 104.547 25.7739C104.547 25.5972 104.494 25.4279 104.4 25.303C104.306 25.1781 104.178 25.1079 104.045 25.1079C103.912 25.1079 103.784 25.1781 103.69 25.303C103.596 25.4279 103.543 25.5972 103.543 25.7739V25.7739Z" stroke="white" stroke-width="0.269444"/>
<path d="M103.945 33.7653C103.945 33.8006 103.956 33.8345 103.975 33.8595C103.994 33.8844 104.019 33.8985 104.046 33.8985C104.072 33.8985 104.098 33.8844 104.117 33.8595C104.136 33.8345 104.146 33.8006 104.146 33.7653C104.146 33.7299 104.136 33.6961 104.117 33.6711C104.098 33.6461 104.072 33.6321 104.046 33.6321C104.019 33.6321 103.994 33.6461 103.975 33.6711C103.956 33.6961 103.945 33.7299 103.945 33.7653V33.7653Z" stroke="white" stroke-width="0.269444"/>
<path d="M104.242 41.4905L103.84 42.0232L104.242 41.4905Z" stroke="white" stroke-width="0.269444"/>
<path d="M103.543 49.7482C103.543 49.9249 103.596 50.0942 103.69 50.2191C103.784 50.344 103.912 50.4142 104.045 50.4142C104.178 50.4142 104.306 50.344 104.4 50.2191C104.494 50.0942 104.547 49.9249 104.547 49.7482C104.547 49.5716 104.494 49.4022 104.4 49.2773C104.306 49.1524 104.178 49.0823 104.045 49.0823C103.912 49.0823 103.784 49.1524 103.69 49.2773C103.596 49.4022 103.543 49.5716 103.543 49.7482V49.7482Z" stroke="white" stroke-width="0.269444"/>
<path d="M103.543 57.7397C103.543 57.9163 103.596 58.0857 103.69 58.2106C103.784 58.3355 103.912 58.4056 104.045 58.4056C104.178 58.4056 104.306 58.3355 104.4 58.2106C104.494 58.0857 104.547 57.9163 104.547 57.7397C104.547 57.5631 104.494 57.3937 104.4 57.2688C104.306 57.1439 104.178 57.0737 104.045 57.0737C103.912 57.0737 103.784 57.1439 103.69 57.2688C103.596 57.3937 103.543 57.5631 103.543 57.7397V57.7397Z" stroke="white" stroke-width="0.269444"/>
<path d="M104.242 65.4648L103.84 65.9976L104.242 65.4648Z" stroke="white" stroke-width="0.269444"/>
<path d="M104.647 72.9238L103.441 74.5221L104.647 72.9238Z" stroke="white" stroke-width="0.269444"/>
<path d="M110.67 1.00024L109.465 2.59855L110.67 1.00024Z" stroke="white" stroke-width="0.269444"/>
<path d="M109.77 9.79069C109.77 9.89666 109.801 9.9983 109.858 10.0732C109.914 10.1482 109.991 10.1903 110.071 10.1903C110.151 10.1903 110.227 10.1482 110.284 10.0732C110.34 9.9983 110.372 9.89666 110.372 9.79069C110.372 9.68471 110.34 9.58308 110.284 9.50815C110.227 9.43321 110.151 9.39111 110.071 9.39111C109.991 9.39111 109.914 9.43321 109.858 9.50815C109.801 9.58308 109.77 9.68471 109.77 9.79069V9.79069Z" stroke="white" stroke-width="0.269444"/>
<path d="M109.77 17.7824C109.77 17.8884 109.801 17.99 109.858 18.0649C109.914 18.1399 109.991 18.182 110.071 18.182C110.151 18.182 110.227 18.1399 110.284 18.0649C110.34 17.99 110.372 17.8884 110.372 17.7824C110.372 17.6764 110.34 17.5748 110.284 17.4998C110.227 17.4249 110.151 17.3828 110.071 17.3828C109.991 17.3828 109.914 17.4249 109.858 17.4998C109.801 17.5748 109.77 17.6764 109.77 17.7824V17.7824Z" stroke="white" stroke-width="0.269444"/>
<path d="M109.969 25.7738C109.969 25.8091 109.979 25.843 109.998 25.868C110.017 25.893 110.043 25.907 110.069 25.907C110.096 25.907 110.121 25.893 110.14 25.868C110.159 25.843 110.17 25.8091 110.17 25.7738C110.17 25.7385 110.159 25.7046 110.14 25.6796C110.121 25.6547 110.096 25.6406 110.069 25.6406C110.043 25.6406 110.017 25.6547 109.998 25.6796C109.979 25.7046 109.969 25.7385 109.969 25.7738V25.7738Z" stroke="white" stroke-width="0.269444"/>
<path d="M109.57 33.7651C109.57 33.9417 109.623 34.1111 109.717 34.236C109.812 34.3609 109.939 34.431 110.072 34.431C110.206 34.431 110.333 34.3609 110.428 34.236C110.522 34.1111 110.575 33.9417 110.575 33.7651C110.575 33.5885 110.522 33.4191 110.428 33.2942C110.333 33.1693 110.206 33.0991 110.072 33.0991C109.939 33.0991 109.812 33.1693 109.717 33.2942C109.623 33.4191 109.57 33.5885 109.57 33.7651V33.7651Z" stroke="white" stroke-width="0.269444"/>
<path d="M109.969 41.7567C109.969 41.7921 109.979 41.8259 109.998 41.8509C110.017 41.8759 110.043 41.8899 110.069 41.8899C110.096 41.8899 110.121 41.8759 110.14 41.8509C110.159 41.8259 110.17 41.7921 110.17 41.7567C110.17 41.7214 110.159 41.6875 110.14 41.6625C110.121 41.6376 110.096 41.6235 110.069 41.6235C110.043 41.6235 110.017 41.6376 109.998 41.6625C109.979 41.6875 109.969 41.7214 109.969 41.7567V41.7567Z" stroke="white" stroke-width="0.269444"/>
<path d="M109.969 49.7484C109.969 49.7838 109.979 49.8176 109.998 49.8426C110.017 49.8676 110.043 49.8816 110.069 49.8816C110.096 49.8816 110.121 49.8676 110.14 49.8426C110.159 49.8176 110.17 49.7838 110.17 49.7484C110.17 49.7131 110.159 49.6792 110.14 49.6542C110.121 49.6293 110.096 49.6152 110.069 49.6152C110.043 49.6152 110.017 49.6293 109.998 49.6542C109.979 49.6792 109.969 49.7131 109.969 49.7484V49.7484Z" stroke="white" stroke-width="0.269444"/>
<path d="M109.77 57.7399C109.77 57.8459 109.801 57.9475 109.858 58.0224C109.914 58.0974 109.991 58.1395 110.071 58.1395C110.151 58.1395 110.227 58.0974 110.284 58.0224C110.34 57.9475 110.372 57.8459 110.372 57.7399C110.372 57.6339 110.34 57.5323 110.284 57.4574C110.227 57.3824 110.151 57.3403 110.071 57.3403C109.991 57.3403 109.914 57.3824 109.858 57.4574C109.801 57.5323 109.77 57.6339 109.77 57.7399V57.7399Z" stroke="white" stroke-width="0.269444"/>
<path d="M109.57 65.7314C109.57 65.908 109.623 66.0774 109.717 66.2023C109.812 66.3272 109.939 66.3973 110.072 66.3973C110.206 66.3973 110.333 66.3272 110.428 66.2023C110.522 66.0774 110.575 65.908 110.575 65.7314C110.575 65.5548 110.522 65.3854 110.428 65.2605C110.333 65.1356 110.206 65.0654 110.072 65.0654C109.939 65.0654 109.812 65.1356 109.717 65.2605C109.623 65.3854 109.57 65.5548 109.57 65.7314V65.7314Z" stroke="white" stroke-width="0.269444"/>
<path d="M110.67 72.9238L109.465 74.5221L110.67 72.9238Z" stroke="white" stroke-width="0.269444"/>
<path d="M115.59 1.79926C115.59 1.97588 115.643 2.14527 115.737 2.27016C115.831 2.39505 115.959 2.46522 116.092 2.46522C116.225 2.46522 116.353 2.39505 116.447 2.27016C116.541 2.14527 116.594 1.97588 116.594 1.79926C116.594 1.62264 116.541 1.45325 116.447 1.32836C116.353 1.20346 116.225 1.1333 116.092 1.1333C115.959 1.1333 115.831 1.20346 115.737 1.32836C115.643 1.45325 115.59 1.62264 115.59 1.79926V1.79926Z" stroke="white" stroke-width="0.269444"/>
<path d="M115.797 9.79069C115.797 9.89666 115.829 9.9983 115.885 10.0732C115.942 10.1482 116.018 10.1903 116.098 10.1903C116.178 10.1903 116.255 10.1482 116.311 10.0732C116.368 9.9983 116.399 9.89666 116.399 9.79069C116.399 9.68471 116.368 9.58308 116.311 9.50815C116.255 9.43321 116.178 9.39111 116.098 9.39111C116.018 9.39111 115.942 9.43321 115.885 9.50815C115.829 9.58308 115.797 9.68471 115.797 9.79069V9.79069Z" stroke="white" stroke-width="0.269444"/>
<path d="M115.996 17.7821C115.996 17.8174 116.007 17.8513 116.026 17.8763C116.044 17.9013 116.07 17.9153 116.097 17.9153C116.123 17.9153 116.149 17.9013 116.168 17.8763C116.186 17.8513 116.197 17.8174 116.197 17.7821C116.197 17.7468 116.186 17.7129 116.168 17.6879C116.149 17.663 116.123 17.6489 116.097 17.6489C116.07 17.6489 116.044 17.663 116.026 17.6879C116.007 17.7129 115.996 17.7468 115.996 17.7821V17.7821Z" stroke="white" stroke-width="0.269444"/>
<path d="M116.296 25.5076L115.895 26.0403L116.296 25.5076Z" stroke="white" stroke-width="0.269444"/>
<path d="M116.697 32.9663L115.492 34.5646L116.697 32.9663Z" stroke="white" stroke-width="0.269444"/>
<path d="M116.296 41.4905L115.895 42.0232L116.296 41.4905Z" stroke="white" stroke-width="0.269444"/>
<path d="M116.296 49.4819L115.895 50.0147L116.296 49.4819Z" stroke="white" stroke-width="0.269444"/>
<path d="M116.296 57.4734L115.895 58.0062L116.296 57.4734Z" stroke="white" stroke-width="0.269444"/>
<path d="M115.59 65.7314C115.59 65.908 115.643 66.0774 115.737 66.2023C115.831 66.3272 115.959 66.3973 116.092 66.3973C116.225 66.3973 116.353 66.3272 116.447 66.2023C116.541 66.0774 116.594 65.908 116.594 65.7314C116.594 65.5548 116.541 65.3854 116.447 65.2605C116.353 65.1356 116.225 65.0654 116.092 65.0654C115.959 65.0654 115.831 65.1356 115.737 65.2605C115.643 65.3854 115.59 65.5548 115.59 65.7314V65.7314Z" stroke="white" stroke-width="0.269444"/>
<path d="M116.296 73.4565L115.895 73.9893L116.296 73.4565Z" stroke="white" stroke-width="0.269444"/>
<path d="M121.621 1.79926C121.621 1.97588 121.674 2.14527 121.768 2.27016C121.862 2.39505 121.99 2.46522 122.123 2.46522C122.256 2.46522 122.384 2.39505 122.478 2.27016C122.572 2.14527 122.625 1.97588 122.625 1.79926C122.625 1.62264 122.572 1.45325 122.478 1.32836C122.384 1.20346 122.256 1.1333 122.123 1.1333C121.99 1.1333 121.862 1.20346 121.768 1.32836C121.674 1.45325 121.621 1.62264 121.621 1.79926V1.79926Z" stroke="white" stroke-width="0.269444"/>
<path d="M122.721 8.9917L121.516 10.59L122.721 8.9917Z" stroke="white" stroke-width="0.269444"/>
<path d="M122.324 17.5161L121.922 18.0489L122.324 17.5161Z" stroke="white" stroke-width="0.269444"/>
<path d="M121.621 25.7739C121.621 25.9505 121.674 26.1199 121.768 26.2448C121.862 26.3697 121.99 26.4398 122.123 26.4398C122.256 26.4398 122.384 26.3697 122.478 26.2448C122.572 26.1199 122.625 25.9505 122.625 25.7739C122.625 25.5972 122.572 25.4279 122.478 25.303C122.384 25.1781 122.256 25.1079 122.123 25.1079C121.99 25.1079 121.862 25.1781 121.768 25.303C121.674 25.4279 121.621 25.5972 121.621 25.7739V25.7739Z" stroke="white" stroke-width="0.269444"/>
<path d="M121.621 33.7651C121.621 33.9417 121.674 34.1111 121.768 34.236C121.862 34.3609 121.99 34.431 122.123 34.431C122.256 34.431 122.384 34.3609 122.478 34.236C122.572 34.1111 122.625 33.9417 122.625 33.7651C122.625 33.5885 122.572 33.4191 122.478 33.2942C122.384 33.1693 122.256 33.0991 122.123 33.0991C121.99 33.0991 121.862 33.1693 121.768 33.2942C121.674 33.4191 121.621 33.5885 121.621 33.7651V33.7651Z" stroke="white" stroke-width="0.269444"/>
<path d="M121.621 41.7568C121.621 41.9334 121.674 42.1028 121.768 42.2277C121.862 42.3526 121.99 42.4227 122.123 42.4227C122.256 42.4227 122.384 42.3526 122.478 42.2277C122.572 42.1028 122.625 41.9334 122.625 41.7568C122.625 41.5802 122.572 41.4108 122.478 41.2859C122.384 41.161 122.256 41.0908 122.123 41.0908C121.99 41.0908 121.862 41.161 121.768 41.2859C121.674 41.4108 121.621 41.5802 121.621 41.7568V41.7568Z" stroke="white" stroke-width="0.269444"/>
<path d="M121.82 49.7482C121.82 49.8542 121.852 49.9558 121.909 50.0308C121.965 50.1057 122.042 50.1478 122.122 50.1478C122.202 50.1478 122.278 50.1057 122.335 50.0308C122.391 49.9558 122.423 49.8542 122.423 49.7482C122.423 49.6422 122.391 49.5406 122.335 49.4657C122.278 49.3907 122.202 49.3486 122.122 49.3486C122.042 49.3486 121.965 49.3907 121.909 49.4657C121.852 49.5406 121.82 49.6422 121.82 49.7482V49.7482Z" stroke="white" stroke-width="0.269444"/>
<path d="M121.82 57.7399C121.82 57.8459 121.852 57.9475 121.909 58.0224C121.965 58.0974 122.042 58.1395 122.122 58.1395C122.202 58.1395 122.278 58.0974 122.335 58.0224C122.391 57.9475 122.423 57.8459 122.423 57.7399C122.423 57.6339 122.391 57.5323 122.335 57.4574C122.278 57.3824 122.202 57.3403 122.122 57.3403C122.042 57.3403 121.965 57.3824 121.909 57.4574C121.852 57.5323 121.82 57.6339 121.82 57.7399V57.7399Z" stroke="white" stroke-width="0.269444"/>
<path d="M121.621 65.7314C121.621 65.908 121.674 66.0774 121.768 66.2023C121.862 66.3272 121.99 66.3973 122.123 66.3973C122.256 66.3973 122.384 66.3272 122.478 66.2023C122.572 66.0774 122.625 65.908 122.625 65.7314C122.625 65.5548 122.572 65.3854 122.478 65.2605C122.384 65.1356 122.256 65.0654 122.123 65.0654C121.99 65.0654 121.862 65.1356 121.768 65.2605C121.674 65.3854 121.621 65.5548 121.621 65.7314V65.7314Z" stroke="white" stroke-width="0.269444"/>
<path d="M121.621 73.7226C121.621 73.8992 121.674 74.0686 121.768 74.1935C121.862 74.3184 121.99 74.3886 122.123 74.3886C122.256 74.3886 122.384 74.3184 122.478 74.1935C122.572 74.0686 122.625 73.8992 122.625 73.7226C122.625 73.546 122.572 73.3766 122.478 73.2517C122.384 73.1268 122.256 73.0566 122.123 73.0566C121.99 73.0566 121.862 73.1268 121.768 73.2517C121.674 73.3766 121.621 73.546 121.621 73.7226V73.7226Z" stroke="white" stroke-width="0.269444"/>
<path d="M128.748 1.00024L127.543 2.59855L128.748 1.00024Z" stroke="white" stroke-width="0.269444"/>
<path d="M128.748 8.9917L127.543 10.59L128.748 8.9917Z" stroke="white" stroke-width="0.269444"/>
<path d="M127.848 17.7824C127.848 17.8884 127.879 17.99 127.936 18.0649C127.992 18.1399 128.069 18.182 128.149 18.182C128.229 18.182 128.305 18.1399 128.362 18.0649C128.418 17.99 128.45 17.8884 128.45 17.7824C128.45 17.6764 128.418 17.5748 128.362 17.4998C128.305 17.4249 128.229 17.3828 128.149 17.3828C128.069 17.3828 127.992 17.4249 127.936 17.4998C127.879 17.5748 127.848 17.6764 127.848 17.7824V17.7824Z" stroke="white" stroke-width="0.269444"/>
<path d="M127.645 25.7736C127.645 25.9502 127.697 26.1196 127.792 26.2445C127.886 26.3694 128.014 26.4396 128.147 26.4396C128.28 26.4396 128.408 26.3694 128.502 26.2445C128.596 26.1196 128.649 25.9502 128.649 25.7736C128.649 25.597 128.596 25.4276 128.502 25.3027C128.408 25.1778 128.28 25.1077 128.147 25.1077C128.014 25.1077 127.886 25.1778 127.792 25.3027C127.697 25.4276 127.645 25.597 127.645 25.7736V25.7736Z" stroke="white" stroke-width="0.269444"/>
<path d="M127.645 33.7651C127.645 33.9417 127.697 34.1111 127.792 34.236C127.886 34.3609 128.014 34.431 128.147 34.431C128.28 34.431 128.408 34.3609 128.502 34.236C128.596 34.1111 128.649 33.9417 128.649 33.7651C128.649 33.5885 128.596 33.4191 128.502 33.2942C128.408 33.1693 128.28 33.0991 128.147 33.0991C128.014 33.0991 127.886 33.1693 127.792 33.2942C127.697 33.4191 127.645 33.5885 127.645 33.7651V33.7651Z" stroke="white" stroke-width="0.269444"/>
<path d="M127.645 41.7568C127.645 41.9334 127.697 42.1028 127.792 42.2277C127.886 42.3526 128.014 42.4227 128.147 42.4227C128.28 42.4227 128.408 42.3526 128.502 42.2277C128.596 42.1028 128.649 41.9334 128.649 41.7568C128.649 41.5802 128.596 41.4108 128.502 41.2859C128.408 41.161 128.28 41.0908 128.147 41.0908C128.014 41.0908 127.886 41.161 127.792 41.2859C127.697 41.4108 127.645 41.5802 127.645 41.7568V41.7568Z" stroke="white" stroke-width="0.269444"/>
<path d="M128.748 48.9492L127.543 50.5475L128.748 48.9492Z" stroke="white" stroke-width="0.269444"/>
<path d="M128.347 57.4734L127.945 58.0062L128.347 57.4734Z" stroke="white" stroke-width="0.269444"/>
<path d="M128.748 64.9321L127.543 66.5304L128.748 64.9321Z" stroke="white" stroke-width="0.269444"/>
<path d="M127.848 73.7228C127.848 73.8288 127.879 73.9304 127.936 74.0054C127.992 74.0803 128.069 74.1224 128.149 74.1224C128.229 74.1224 128.305 74.0803 128.362 74.0054C128.418 73.9304 128.45 73.8288 128.45 73.7228C128.45 73.6168 128.418 73.5152 128.362 73.4403C128.305 73.3653 128.229 73.3232 128.149 73.3232C128.069 73.3232 127.992 73.3653 127.936 73.4403C127.879 73.5152 127.848 73.6168 127.848 73.7228V73.7228Z" stroke="white" stroke-width="0.269444"/>
<path d="M134.07 1.79921C134.07 1.83453 134.081 1.86841 134.1 1.89339C134.119 1.91837 134.144 1.9324 134.171 1.9324C134.197 1.9324 134.223 1.91837 134.242 1.89339C134.261 1.86841 134.271 1.83453 134.271 1.79921C134.271 1.76388 134.261 1.73 134.242 1.70503C134.223 1.68005 134.197 1.66602 134.171 1.66602C134.144 1.66602 134.119 1.68005 134.1 1.70503C134.081 1.73 134.07 1.76388 134.07 1.79921V1.79921Z" stroke="white" stroke-width="0.269444"/>
<path d="M133.875 9.79069C133.875 9.89666 133.907 9.9983 133.963 10.0732C134.02 10.1482 134.096 10.1903 134.176 10.1903C134.256 10.1903 134.333 10.1482 134.389 10.0732C134.446 9.9983 134.478 9.89666 134.478 9.79069C134.478 9.68471 134.446 9.58308 134.389 9.50815C134.333 9.43321 134.256 9.39111 134.176 9.39111C134.096 9.39111 134.02 9.43321 133.963 9.50815C133.907 9.58308 133.875 9.68471 133.875 9.79069V9.79069Z" stroke="white" stroke-width="0.269444"/>
<path d="M133.875 17.7824C133.875 17.8884 133.907 17.99 133.963 18.0649C134.02 18.1399 134.096 18.182 134.176 18.182C134.256 18.182 134.333 18.1399 134.389 18.0649C134.446 17.99 134.478 17.8884 134.478 17.7824C134.478 17.6764 134.446 17.5748 134.389 17.4998C134.333 17.4249 134.256 17.3828 134.176 17.3828C134.096 17.3828 134.02 17.4249 133.963 17.4998C133.907 17.5748 133.875 17.6764 133.875 17.7824V17.7824Z" stroke="white" stroke-width="0.269444"/>
<path d="M134.374 25.5076L133.973 26.0403L134.374 25.5076Z" stroke="white" stroke-width="0.269444"/>
<path d="M134.374 33.499L133.973 34.0318L134.374 33.499Z" stroke="white" stroke-width="0.269444"/>
<path d="M133.875 41.7565C133.875 41.8625 133.907 41.9641 133.963 42.0391C134.02 42.114 134.096 42.1561 134.176 42.1561C134.256 42.1561 134.333 42.114 134.389 42.0391C134.446 41.9641 134.478 41.8625 134.478 41.7565C134.478 41.6505 134.446 41.5489 134.389 41.474C134.333 41.399 134.256 41.3569 134.176 41.3569C134.096 41.3569 134.02 41.399 133.963 41.474C133.907 41.5489 133.875 41.6505 133.875 41.7565V41.7565Z" stroke="white" stroke-width="0.269444"/>
<path d="M134.07 49.7484C134.07 49.7838 134.081 49.8176 134.1 49.8426C134.119 49.8676 134.144 49.8816 134.171 49.8816C134.197 49.8816 134.223 49.8676 134.242 49.8426C134.261 49.8176 134.271 49.7838 134.271 49.7484C134.271 49.7131 134.261 49.6792 134.242 49.6542C134.223 49.6293 134.197 49.6152 134.171 49.6152C134.144 49.6152 134.119 49.6293 134.1 49.6542C134.081 49.6792 134.07 49.7131 134.07 49.7484V49.7484Z" stroke="white" stroke-width="0.269444"/>
<path d="M134.374 57.4734L133.973 58.0062L134.374 57.4734Z" stroke="white" stroke-width="0.269444"/>
<path d="M134.775 64.9321L133.57 66.5304L134.775 64.9321Z" stroke="white" stroke-width="0.269444"/>
<path d="M133.668 73.7226C133.668 73.8992 133.721 74.0686 133.815 74.1935C133.909 74.3184 134.037 74.3886 134.17 74.3886C134.303 74.3886 134.431 74.3184 134.525 74.1935C134.619 74.0686 134.672 73.8992 134.672 73.7226C134.672 73.546 134.619 73.3766 134.525 73.2517C134.431 73.1268 134.303 73.0566 134.17 73.0566C134.037 73.0566 133.909 73.1268 133.815 73.2517C133.721 73.3766 133.668 73.546 133.668 73.7226V73.7226Z" stroke="white" stroke-width="0.269444"/>
<path d="M139.895 1.79923C139.895 1.90521 139.926 2.00684 139.983 2.08178C140.039 2.15671 140.116 2.19881 140.196 2.19881C140.276 2.19881 140.352 2.15671 140.409 2.08178C140.465 2.00684 140.497 1.90521 140.497 1.79923C140.497 1.69326 140.465 1.59163 140.409 1.51669C140.352 1.44176 140.276 1.39966 140.196 1.39966C140.116 1.39966 140.039 1.44176 139.983 1.51669C139.926 1.59163 139.895 1.69326 139.895 1.79923V1.79923Z" stroke="white" stroke-width="0.269444"/>
<path d="M139.695 9.79071C139.695 9.96734 139.748 10.1367 139.842 10.2616C139.937 10.3865 140.064 10.4567 140.197 10.4567C140.331 10.4567 140.458 10.3865 140.553 10.2616C140.647 10.1367 140.7 9.96734 140.7 9.79071C140.7 9.61409 140.647 9.4447 140.553 9.31981C140.458 9.19492 140.331 9.12476 140.197 9.12476C140.064 9.12476 139.937 9.19492 139.842 9.31981C139.748 9.4447 139.695 9.61409 139.695 9.79071V9.79071Z" stroke="white" stroke-width="0.269444"/>
<path d="M139.695 17.7822C139.695 17.9588 139.748 18.1282 139.842 18.2531C139.937 18.378 140.064 18.4481 140.197 18.4481C140.331 18.4481 140.458 18.378 140.553 18.2531C140.647 18.1282 140.7 17.9588 140.7 17.7822C140.7 17.6055 140.647 17.4362 140.553 17.3113C140.458 17.1864 140.331 17.1162 140.197 17.1162C140.064 17.1162 139.937 17.1864 139.842 17.3113C139.748 17.4362 139.695 17.6055 139.695 17.7822V17.7822Z" stroke="white" stroke-width="0.269444"/>
<path d="M140.098 25.7738C140.098 25.8091 140.108 25.843 140.127 25.868C140.146 25.893 140.171 25.907 140.198 25.907C140.225 25.907 140.25 25.893 140.269 25.868C140.288 25.843 140.299 25.8091 140.299 25.7738C140.299 25.7385 140.288 25.7046 140.269 25.6796C140.25 25.6547 140.225 25.6406 140.198 25.6406C140.171 25.6406 140.146 25.6547 140.127 25.6796C140.108 25.7046 140.098 25.7385 140.098 25.7738V25.7738Z" stroke="white" stroke-width="0.269444"/>
<path d="M140.803 32.9663L139.597 34.5646L140.803 32.9663Z" stroke="white" stroke-width="0.269444"/>
<path d="M140.803 40.9575L139.597 42.5558L140.803 40.9575Z" stroke="white" stroke-width="0.269444"/>
<path d="M140.803 48.9492L139.597 50.5475L140.803 48.9492Z" stroke="white" stroke-width="0.269444"/>
<path d="M140.803 56.9407L139.597 58.539L140.803 56.9407Z" stroke="white" stroke-width="0.269444"/>
<path d="M140.803 64.9321L139.597 66.5304L140.803 64.9321Z" stroke="white" stroke-width="0.269444"/>
<path d="M139.695 73.7226C139.695 73.8992 139.748 74.0686 139.842 74.1935C139.937 74.3184 140.064 74.3886 140.197 74.3886C140.331 74.3886 140.458 74.3184 140.553 74.1935C140.647 74.0686 140.7 73.8992 140.7 73.7226C140.7 73.546 140.647 73.3766 140.553 73.2517C140.458 73.1268 140.331 73.0566 140.197 73.0566C140.064 73.0566 139.937 73.1268 139.842 73.2517C139.748 73.3766 139.695 73.546 139.695 73.7226V73.7226Z" stroke="white" stroke-width="0.269444"/>
</svg>
