<svg width="22" height="23" viewBox="0 0 22 23" fill="none" xmlns="http://www.w3.org/2000/svg">
<path d="M5 12.5415H1C0.4 12.5415 0 12.9582 0 13.5832V21.9165C0 22.5415 0.4 22.9582 1 22.9582H5C5.6 22.9582 6 22.5415 6 21.9165V13.5832C6 12.9582 5.6 12.5415 5 12.5415ZM21 8.37484H17C16.4 8.37484 16 8.7915 16 9.4165V21.9165C16 22.5415 16.4 22.9582 17 22.9582H21C21.6 22.9582 22 22.5415 22 21.9165V9.4165C22 8.7915 21.6 8.37484 21 8.37484ZM13 0.0415039H9C8.4 0.0415039 8 0.458171 8 1.08317V21.9165C8 22.5415 8.4 22.9582 9 22.9582H13C13.6 22.9582 14 22.5415 14 21.9165V1.08317C14 0.458171 13.6 0.0415039 13 0.0415039Z" fill="#0D6464"/>
</svg>
