<svg width="26" height="29" viewBox="0 0 26 29" fill="none" xmlns="http://www.w3.org/2000/svg">
<path d="M8.13364 27.9923H8.13375C8.34547 27.9924 8.55671 27.972 8.76451 27.9315C9.70152 27.7475 10.5311 27.1411 11.0915 26.2002L11.3393 26.3478L11.0915 26.2002C11.613 25.3245 11.8477 24.2419 11.7453 23.1521C11.6545 22.2029 11.3586 21.6219 10.8918 21.2909L10.8916 21.2908C10.5383 21.0398 10.1427 20.961 9.70358 20.9779C9.25618 20.9952 8.78553 21.1103 8.2877 21.2331L8.2186 20.9531M8.13364 27.9923L7.42055 21.1353M8.13364 27.9923C7.42192 27.9923 6.69297 27.7645 6.02999 27.3176M8.13364 27.9923L5.86841 27.5566M8.2186 20.9531L8.28798 21.2331C8.02672 21.2978 7.74855 21.3665 7.47477 21.4186M8.2186 20.9531L8.22009 20.9527C9.20283 20.7102 10.2194 20.4594 11.0586 21.0556M8.2186 20.9531L11.0586 21.0556M7.47477 21.4186C7.47467 21.4186 7.47457 21.4187 7.47447 21.4187L7.42055 21.1353M7.47477 21.4186C7.47488 21.4186 7.47498 21.4186 7.47508 21.4186L7.42055 21.1353M7.47477 21.4186C7.37127 21.4385 7.26879 21.4573 7.169 21.4756C7.14711 21.4796 7.12536 21.4836 7.10375 21.4875M7.42055 21.1353C7.31851 21.1549 7.21765 21.1734 7.11796 21.1917C7.09572 21.1957 7.07354 21.1998 7.05141 21.2038M7.10375 21.4875L7.05141 21.2038M7.10375 21.4875C6.52276 21.5947 5.99124 21.6935 5.52957 21.8698C5.07477 22.0434 4.7082 22.2851 4.44853 22.666M7.10375 21.4875C7.10367 21.4875 7.10358 21.4876 7.1035 21.4876L7.05141 21.2038M7.05141 21.2038L4.44853 22.666M4.44853 22.666C4.44854 22.666 4.44855 22.6659 4.44855 22.6659L4.2102 22.5035L4.44853 22.666ZM4.44853 22.666C4.13191 23.1305 4.03035 23.7279 4.18741 24.5362M4.44853 22.666L3.90434 24.5917M4.18741 24.5362C4.18739 24.5361 4.18737 24.536 4.18734 24.5359L3.90434 24.5917M4.18741 24.5362C4.18744 24.5364 4.18747 24.5365 4.1875 24.5367L3.90434 24.5917M4.18741 24.5362C4.4113 25.6698 5.07343 26.6694 6.02999 27.3176M3.90434 24.5917C4.1429 25.8002 4.84872 26.8656 5.86841 27.5566M6.02999 27.3176C6.02987 27.3175 6.02976 27.3175 6.02965 27.3174L5.86841 27.5566M6.02999 27.3176C6.03006 27.3177 6.03015 27.3177 6.03022 27.3178L5.86841 27.5566M11.0586 21.0556C11.6206 21.454 11.9375 22.1314 12.0325 23.1251L11.0586 21.0556ZM19.2835 14.4058L19.2844 14.4059C19.5728 14.4496 19.864 14.472 20.1557 14.473C21.4022 14.4729 22.3921 14.0325 23.1482 13.1432C23.9126 12.2442 24.4244 10.9031 24.7298 8.87446C25.1803 5.87693 24.7209 3.41525 23.5089 1.89984L23.7342 1.71967L23.5089 1.89983C22.8034 1.01763 21.8924 0.523296 20.8709 0.448775L19.2835 14.4058ZM19.2835 14.4058C17.955 14.2093 16.9827 13.6684 16.3561 12.8205L16.3559 12.8202M19.2835 14.4058L16.3559 12.8202M16.3559 12.8202C15.5629 11.7498 15.3011 10.1814 15.637 7.95788L15.6371 7.95758M16.3559 12.8202L15.6371 7.95758M15.6371 7.95758C15.9129 6.11906 16.5543 4.27135 17.3886 2.89327L17.3886 2.89323M15.6371 7.95758L17.3886 2.89323M17.3886 2.89323C18.0535 1.79445 18.7194 1.17119 19.3144 0.829153M17.3886 2.89323L19.3144 0.829153M14.9041 20.5752L14.9043 20.5755C15.4629 21.5161 16.2924 22.1226 17.2313 22.3065C17.4385 22.3469 17.6491 22.3673 17.8602 22.3673L14.9041 20.5752ZM14.9041 20.5752C14.3826 19.6995 14.1479 18.6169 14.2503 17.5271C14.3399 16.5757 14.6352 15.9971 15.1036 15.6655L15.1039 15.6653M14.9041 20.5752L15.1039 15.6653M15.1039 15.6653C15.4573 15.4145 15.8529 15.3357 16.292 15.3526C16.7394 15.3699 17.2101 15.485 17.7077 15.6081L17.7082 15.6082M15.1039 15.6653L17.7082 15.6082M17.7082 15.6082L17.7286 15.6132C17.9836 15.6758 18.2543 15.7423 18.5205 15.7936L18.5223 15.7939M17.7082 15.6082L18.5223 15.7939M18.5223 15.7939L18.8908 15.8624L18.8914 15.8626M18.5223 15.7939L18.8914 15.8626M18.8914 15.8626C19.4728 15.9695 20.0044 16.0679 20.4661 16.2439C20.9208 16.4173 21.2873 16.6589 21.547 17.0402L21.547 17.0403M18.8914 15.8626L21.547 17.0403M21.547 17.0403C21.8637 17.5049 21.9653 18.1035 21.8082 18.9107M21.547 17.0403L21.8082 18.9107M19.3144 0.829153C19.907 0.488535 20.4443 0.418004 20.8709 0.448771L19.3144 0.829153ZM21.8082 18.9107C21.5845 20.0444 20.9225 21.044 19.966 21.6924C19.2986 22.1401 18.5695 22.3673 17.8602 22.3673L21.8082 18.9107ZM5.83893 20.098H5.83852C4.59211 20.098 3.59723 19.6518 2.84794 18.7705C2.09047 17.8796 1.57176 16.5312 1.26635 14.5017C0.817695 11.5178 1.27338 9.0632 2.47729 7.54752L2.47732 7.54748C3.18208 6.65992 4.09532 6.15819 5.12063 6.07716L5.1209 6.07713C5.54406 6.04328 6.07908 6.11061 6.67106 6.44981C7.26556 6.79046 7.93269 7.41415 8.6012 8.51722C9.4396 9.90066 10.0828 11.7501 10.3585 13.5867L10.3585 13.5868C10.6928 15.8101 10.4326 17.379 9.63974 18.4493L9.6397 18.4494C9.01319 19.2955 8.04096 19.8359 6.71184 20.0349C6.42282 20.0773 6.13106 20.0984 5.83893 20.098Z" fill="#FCC21B" stroke="white" stroke-width="0.576923"/>
</svg>
