<svg width="66" height="69" viewBox="0 0 66 69" fill="none" xmlns="http://www.w3.org/2000/svg">
<path d="M31.5775 9.08742C25.1276 8.87329 18.8291 11.0895 13.9589 15.2869C9.08863 19.4843 6.01096 25.3488 5.34969 31.6917C4.68841 38.0345 6.49301 44.3813 10.3977 49.4455C14.3024 54.5096 20.015 57.9123 26.3777 58.9638C32.7404 60.0153 39.2771 58.637 44.6628 55.1082C50.0486 51.5794 53.8804 46.1642 55.3817 39.9601C56.883 33.756 55.9414 27.2273 52.7477 21.6973C49.5541 16.1672 44.3473 12.0496 38.1828 10.179L36.625 15.1432C41.515 16.6271 45.6453 19.8934 48.1787 24.2802C50.7121 28.6669 51.459 33.8459 50.2681 38.7673C49.0772 43.6887 46.0376 47.9844 41.7653 50.7836C37.493 53.5829 32.3077 54.6762 27.2605 53.8421C22.2132 53.008 17.6816 50.3088 14.5842 46.2916C11.4868 42.2744 10.0553 37.2398 10.5798 32.2083C11.1044 27.1767 13.5458 22.5247 17.4091 19.1951C21.2725 15.8655 26.2688 14.1075 31.3853 14.2773L31.5775 9.08742Z" fill="#FCC21B"/>
<path d="M53.2652 35.9926C54.7045 36.1072 55.9889 35.0371 55.9684 33.6C55.9227 30.3841 55.2597 27.2039 54.0066 24.2336C52.4164 20.4642 49.9238 17.1465 46.7449 14.5682C43.566 11.9899 39.7967 10.2287 35.7637 9.43739C32.587 8.81406 29.3222 8.80727 26.1461 9.40843C24.7238 9.67764 23.9262 11.143 24.3282 12.521C24.7311 13.9021 26.1865 14.6682 27.6183 14.4372C29.9664 14.0585 32.3665 14.0959 34.7064 14.5551C37.9055 15.1828 40.8956 16.5799 43.4173 18.6251C45.939 20.6704 47.9162 23.3021 49.1777 26.2923C50.1014 28.4818 50.6209 30.8151 50.7189 33.1814C50.7784 34.6183 51.8247 35.8779 53.2652 35.9926Z" fill="#0D6464"/>
<g clip-path="url(#clip0_825_31717)">
<path d="M23.9517 29.1072C23.724 28.3845 24.4335 26.8703 24.8602 26.1792C25.2392 25.5653 26.5024 24.068 27.1407 23.9222C27.1407 23.9222 27.8612 24.0458 28.0023 24.4887C28.464 25.9399 29.255 29.091 33.3335 27.9939C33.3335 27.9939 35.9482 32.2936 36.7957 33.2233C38.2511 34.8196 38.0307 35.3097 37.6636 35.9042C36.4883 37.8079 34.4892 36.1496 33.1051 35.1257C32.3423 34.5614 24.8017 29.7356 23.9517 29.1072Z" fill="#0D6464"/>
<path d="M24.7925 27.7483C24.7925 27.7483 28.4402 29.6736 30.087 31.5519C31.7337 33.4303 36.0993 35.5761 36.0993 35.5761L37.2261 36.3089C37.2261 36.3089 36.24 37.4516 35.2619 36.8086C34.2839 36.1656 23.8669 28.7619 23.8669 28.7619C23.8669 28.7619 23.7828 27.2561 24.7925 27.7483Z" fill="#0D6464"/>
<path d="M23.9564 29.1057C23.7286 28.3831 24.4379 26.8692 24.8645 26.1783C25.2434 25.5646 26.5064 24.0677 27.1446 23.922C27.1446 23.922 27.8651 24.0456 28.0063 24.4885C28.4681 25.9395 29.2595 29.0902 33.3377 27.9938C33.3377 27.9938 35.9528 32.2931 36.8004 33.2228C38.2559 34.819 38.0355 35.309 37.6685 35.9034C36.4935 37.8066 34.4943 36.1483 33.1102 35.1244C32.3473 34.5601 24.8063 29.7344 23.9563 29.1059" stroke="#EFEFEF" stroke-width="0.50687" stroke-miterlimit="10" stroke-linecap="round" stroke-linejoin="round"/>
<path d="M24.8808 28.0921C24.8808 28.0921 28.4416 29.673 30.0886 31.5508C31.7356 33.4287 35.9649 35.7956 35.9649 35.7956M33.2724 30.2528L31.3845 30.8476M34.1115 31.3621L32.7968 31.7763" stroke="#EFEFEF" stroke-width="0.50687" stroke-miterlimit="10" stroke-linecap="round" stroke-linejoin="round"/>
<path d="M23.9564 29.1057C23.7286 28.3831 24.4379 26.8692 24.8645 26.1783C25.2434 25.5646 26.5064 24.0677 27.1446 23.922C27.1446 23.922 27.8651 24.0456 28.0063 24.4885C28.4681 25.9395 29.2595 29.0902 33.3377 27.9938C33.3377 27.9938 35.9528 32.2931 36.8004 33.2228C38.2559 34.819 38.0355 35.309 37.6685 35.9034C36.4935 37.8066 34.4943 36.1483 33.1102 35.1244C32.3473 34.5601 24.8063 29.7344 23.9563 29.1059" stroke="#EFEFEF" stroke-width="0.50687" stroke-miterlimit="10" stroke-linecap="round" stroke-linejoin="round"/>
</g>
<path d="M25.0738 40.5459V46.1567H24.0573V41.5349H24.0245L22.7121 42.3732V41.4417L24.1066 40.5459H25.0738ZM28.449 46.2334C28.0838 46.2334 27.7568 46.165 27.4682 46.028C27.1797 45.8892 26.9504 45.6992 26.7806 45.4581C26.6125 45.217 26.523 44.9412 26.5121 44.6307H27.4984C27.5166 44.8609 27.6162 45.049 27.797 45.1951C27.9778 45.3394 28.1952 45.4115 28.449 45.4115C28.6481 45.4115 28.8253 45.3659 28.9805 45.2746C29.1358 45.1832 29.2582 45.0563 29.3477 44.8937C29.4372 44.7312 29.481 44.5458 29.4792 44.3376C29.481 44.1257 29.4362 43.9376 29.3449 43.7732C29.2536 43.6088 29.1285 43.4801 28.9696 43.3869C28.8107 43.2919 28.628 43.2445 28.4216 43.2445C28.2536 43.2426 28.0883 43.2737 27.9258 43.3376C27.7632 43.4015 27.6344 43.4855 27.5395 43.5897L26.6217 43.439L26.9148 40.5459H30.1696V41.3952H27.7559L27.5943 42.8828H27.6271C27.7312 42.7604 27.8783 42.6591 28.0682 42.5787C28.2582 42.4965 28.4664 42.4554 28.6929 42.4554C29.0326 42.4554 29.3358 42.5358 29.6025 42.6965C29.8691 42.8554 30.0792 43.0746 30.2326 43.354C30.386 43.6335 30.4627 43.9531 30.4627 44.3129C30.4627 44.6837 30.3769 45.0143 30.2052 45.3047C30.0353 45.5933 29.7988 45.8207 29.4956 45.9869C29.1942 46.1513 28.8454 46.2334 28.449 46.2334ZM33.4545 46.2636C33.0033 46.2636 32.6161 46.1494 32.2928 45.9211C31.9714 45.691 31.7239 45.3595 31.5504 44.9266C31.3787 44.4919 31.2928 43.9686 31.2928 43.3568C31.2947 42.7449 31.3814 42.2244 31.5531 41.7952C31.7266 41.3641 31.9741 41.0353 32.2956 40.8089C32.6189 40.5824 33.0051 40.4691 33.4545 40.4691C33.9038 40.4691 34.2901 40.5824 34.6133 40.8089C34.9366 41.0353 35.1841 41.3641 35.3558 41.7952C35.5293 42.2262 35.6161 42.7467 35.6161 43.3568C35.6161 43.9705 35.5293 44.4947 35.3558 44.9294C35.1841 45.3622 34.9366 45.6928 34.6133 45.9211C34.2919 46.1494 33.9056 46.2636 33.4545 46.2636ZM33.4545 45.4061C33.8051 45.4061 34.0818 45.2335 34.2846 44.8883C34.4891 44.5412 34.5914 44.0307 34.5914 43.3568C34.5914 42.9111 34.5449 42.5367 34.4517 42.2335C34.3586 41.9303 34.227 41.702 34.0572 41.5486C33.8873 41.3933 33.6864 41.3157 33.4545 41.3157C33.1056 41.3157 32.8298 41.4892 32.6271 41.8363C32.4243 42.1815 32.3221 42.6883 32.3202 43.3568C32.3184 43.8043 32.3631 44.1805 32.4545 44.4855C32.5476 44.7905 32.6791 45.0207 32.849 45.1759C33.0188 45.3294 33.2207 45.4061 33.4545 45.4061ZM38.6003 46.2636C38.1491 46.2636 37.7619 46.1494 37.4386 45.9211C37.1172 45.691 36.8697 45.3595 36.6962 44.9266C36.5245 44.4919 36.4387 43.9686 36.4387 43.3568C36.4405 42.7449 36.5272 42.2244 36.6989 41.7952C36.8724 41.3641 37.1199 41.0353 37.4414 40.8089C37.7647 40.5824 38.151 40.4691 38.6003 40.4691C39.0496 40.4691 39.4359 40.5824 39.7592 40.8089C40.0824 41.0353 40.3299 41.3641 40.5016 41.7952C40.6751 42.2262 40.7619 42.7467 40.7619 43.3568C40.7619 43.9705 40.6751 44.4947 40.5016 44.9294C40.3299 45.3622 40.0824 45.6928 39.7592 45.9211C39.4377 46.1494 39.0514 46.2636 38.6003 46.2636ZM38.6003 45.4061C38.951 45.4061 39.2277 45.2335 39.4304 44.8883C39.635 44.5412 39.7372 44.0307 39.7372 43.3568C39.7372 42.9111 39.6907 42.5367 39.5975 42.2335C39.5044 41.9303 39.3729 41.702 39.203 41.5486C39.0331 41.3933 38.8322 41.3157 38.6003 41.3157C38.2514 41.3157 37.9756 41.4892 37.7729 41.8363C37.5702 42.1815 37.4679 42.6883 37.466 43.3568C37.4642 43.8043 37.509 44.1805 37.6003 44.4855C37.6934 44.7905 37.8249 45.0207 37.9948 45.1759C38.1647 45.3294 38.3665 45.4061 38.6003 45.4061Z" fill="#0D6464"/>
<defs>
<clipPath id="clip0_825_31717">
<rect width="18.2876" height="18.4111" fill="white" transform="matrix(0.839451 0.543435 -0.531259 0.84721 29.4844 16.4656)"/>
</clipPath>
</defs>
</svg>
