<svg width="22" height="22" viewBox="0 0 22 22" fill="none" xmlns="http://www.w3.org/2000/svg">
<path d="M11.0016 2.5501C13.2426 2.5501 15.3919 3.44036 16.9766 5.02504C18.5613 6.60973 19.4516 8.75902 19.4516 11.0001C19.4516 13.2412 18.5613 15.3905 16.9766 16.9751C15.3919 18.5598 13.2426 19.4501 11.0016 19.4501V2.5501ZM11.0016 0.600098C8.24331 0.600098 5.59803 1.69581 3.64765 3.64619C1.69727 5.59657 0.601563 8.24185 0.601562 11.0001C0.601563 13.7583 1.69727 16.4036 3.64765 18.354C5.59803 20.3044 8.24331 21.4001 11.0016 21.4001C13.7598 21.4001 16.4051 20.3044 18.3555 18.354C20.3059 16.4036 21.4016 13.7583 21.4016 11.0001C21.4016 8.24185 20.3059 5.59657 18.3555 3.64619C16.4051 1.69581 13.7598 0.600098 11.0016 0.600098Z" fill="#0D6464"/>
</svg>
