<svg width="24" height="24" viewBox="0 0 24 24" fill="none" xmlns="http://www.w3.org/2000/svg">
<path d="M12 8V12L14.5 14.5" stroke="black" stroke-linecap="round" stroke-linejoin="round"/>
<path d="M4.33834 6.87089L3.58834 6.87389C3.58913 7.07159 3.66795 7.26098 3.80765 7.40087C3.94736 7.54076 4.13664 7.61984 4.33434 7.62089L4.33834 6.87089ZM6.88034 7.63289C6.97883 7.63335 7.07645 7.6144 7.16762 7.57714C7.25879 7.53987 7.34173 7.48501 7.4117 7.41569C7.48167 7.34637 7.5373 7.26395 7.57541 7.17314C7.61353 7.08232 7.63338 6.98488 7.63384 6.88639C7.6343 6.7879 7.61536 6.69028 7.57809 6.59911C7.54083 6.50794 7.48597 6.425 7.41665 6.35503C7.34733 6.28506 7.26491 6.22943 7.17409 6.19132C7.08327 6.1532 6.98583 6.13335 6.88734 6.13289L6.88034 7.63289ZM5.07534 4.32089C5.07482 4.2224 5.0549 4.12497 5.01672 4.03418C4.97855 3.94339 4.92286 3.861 4.85285 3.79173C4.78283 3.72246 4.69986 3.66765 4.60866 3.63045C4.51747 3.59324 4.41984 3.57436 4.32134 3.57489C4.22285 3.57541 4.12543 3.59533 4.03464 3.63351C3.94384 3.67169 3.86146 3.72737 3.79219 3.79739C3.72291 3.8674 3.66811 3.95038 3.6309 4.04157C3.5937 4.13277 3.57482 4.2304 3.57534 4.32889L5.07534 4.32089ZM3.82734 10.7849C3.84171 10.6869 3.83652 10.587 3.81207 10.491C3.78761 10.395 3.74438 10.3048 3.68487 10.2256C3.62536 10.1464 3.55075 10.0797 3.46534 10.0295C3.37993 9.97933 3.28543 9.94654 3.18728 9.93307C3.08913 9.91959 2.98929 9.9257 2.89351 9.95103C2.79774 9.97636 2.70793 10.0204 2.62928 10.0806C2.55062 10.1409 2.48468 10.2161 2.43526 10.302C2.38584 10.3878 2.35392 10.4826 2.34134 10.5809L3.82734 10.7849ZM18.8623 5.13789C15.0423 1.31789 8.86934 1.27789 5.07434 5.07389L6.13434 6.13389C9.33434 2.93489 14.5573 2.95389 17.8023 6.19789L18.8623 5.13789ZM5.13834 18.8619C8.95834 22.6819 15.1313 22.7219 18.9263 18.9259L17.8663 17.8659C14.6663 21.0649 9.44334 21.0459 6.19834 17.8019L5.13834 18.8619ZM18.9263 18.9259C22.7213 15.1309 22.6823 8.95789 18.8623 5.13789L17.8023 6.19789C21.0463 9.44289 21.0653 14.6659 17.8663 17.8659L18.9263 18.9259ZM5.07434 5.07389L3.80734 6.33989L4.86834 7.39989L6.13434 6.13389L5.07434 5.07389ZM4.33434 7.62089L6.88034 7.63289L6.88734 6.13289L4.34234 6.12089L4.33434 7.62089ZM5.08834 6.86689L5.07534 4.32089L3.57534 4.32889L3.58834 6.87389L5.08834 6.86689ZM2.34034 10.5799C2.13501 12.0825 2.28081 13.6123 2.76628 15.0492C3.25176 16.486 4.0637 17.7917 5.13834 18.8619L6.19834 17.8019C5.28757 16.8952 4.59945 15.7886 4.18805 14.5711C3.77665 13.3535 3.65318 12.0582 3.82734 10.7849L2.34034 10.5799Z" fill="black"/>
</svg>
