<svg width="33" height="34" viewBox="0 0 33 34" fill="none" xmlns="http://www.w3.org/2000/svg">
<g clip-path="url(#clip0_712_8485)">
<path d="M11.5351 22.8392L18.3911 24.0156C20.0477 24.2998 21.6211 23.1873 21.9053 21.5308L23.0817 14.6747C23.366 13.0182 22.2535 11.4448 20.5969 11.1605L13.7409 9.98413C12.0843 9.69988 10.5109 10.8124 10.2267 12.469L9.05027 19.325C8.76601 20.9816 9.87851 22.5549 11.5351 22.8392Z" fill="#0D6464"/>
<path d="M10.3099 24.8349L9.7217 28.2629C9.6827 28.4902 9.73558 28.7237 9.86872 28.912C10.0019 29.1003 10.2044 29.2279 10.4316 29.2669L17.2877 30.4434C17.515 30.4824 17.7484 30.4295 17.9367 30.2963C18.125 30.1632 18.2527 29.9607 18.2917 29.7334L18.8799 26.3054C20.0162 26.4991 21.1829 26.2341 22.1241 25.5686C23.0652 24.9031 23.704 23.8915 23.9002 22.7557L25.3707 14.1856C25.5644 13.0493 25.2994 11.8826 24.6339 10.9415C23.9685 10.0003 22.9568 9.36156 21.821 9.16535L22.4092 5.73734C22.4482 5.51005 22.3953 5.27657 22.2622 5.08827C22.129 4.89998 21.9265 4.77228 21.6992 4.73328L14.8432 3.55686C14.6159 3.51786 14.3825 3.57075 14.1942 3.70389C14.0059 3.83703 13.8782 4.03952 13.8392 4.26681L13.251 7.69482C12.1147 7.50116 10.948 7.76614 10.0068 8.43162C9.06565 9.0971 8.42689 10.1087 8.23068 11.2446L6.76016 19.8146C6.5665 20.9509 6.83147 22.1176 7.49695 23.0588C8.16243 23.9999 9.17406 24.6387 10.3099 24.8349ZM9.36913 12.3222C9.54571 11.2999 10.1206 10.3894 10.9676 9.79048C11.8147 9.19154 12.8647 8.95307 13.8874 9.12738L20.7434 10.3038C21.7657 10.4804 22.6762 11.0553 23.2751 11.9023C23.874 12.7494 24.1125 13.7994 23.9382 14.8221L22.7618 21.6781C22.5852 22.7003 22.0103 23.6108 21.1633 24.2098C20.3162 24.8087 19.2662 25.0472 18.2435 24.8728L11.3875 23.6964C10.3652 23.5199 9.45474 22.945 8.85581 22.0979C8.25687 21.2509 8.0184 20.2008 8.19271 19.1782L9.36913 12.3222Z" fill="#0D6464"/>
</g>
<defs>
<clipPath id="clip0_712_8485">
<rect width="27.8249" height="27.8249" fill="white" transform="translate(27.4258 33.0649) rotate(-170.263)"/>
</clipPath>
</defs>
</svg>
