<svg width="20" height="21" viewBox="0 0 20 21" fill="none" xmlns="http://www.w3.org/2000/svg">
<path fill-rule="evenodd" clip-rule="evenodd" d="M19.1183 18.4999C19.0864 19.0741 18.8358 19.6143 18.418 20.0096C18.0001 20.4048 17.4468 20.625 16.8717 20.625H3.12869C2.55355 20.625 2.00024 20.4048 1.58242 20.0096C1.16459 19.6143 0.913982 19.0741 0.882062 18.4999L0.00737435 2.74988C-0.00960593 2.4444 0.0358934 2.13866 0.141091 1.85137C0.246288 1.56407 0.408973 1.30124 0.619201 1.07896C0.829429 0.856676 1.08278 0.679602 1.36377 0.558563C1.64476 0.437524 1.94749 0.375064 2.25344 0.375H17.7469C18.0529 0.374987 18.3557 0.437391 18.6368 0.558396C18.9178 0.679401 19.1713 0.856464 19.3815 1.07876C19.5918 1.30105 19.7546 1.5639 19.8598 1.85123C19.965 2.13857 20.0105 2.44435 19.9936 2.74988L19.1183 18.4999ZM15.7624 7.00069C16.2237 6.69694 16.3396 6.0945 15.961 5.70244C15.3189 5.03982 14.5684 4.49158 13.7419 4.08131C12.5944 3.51212 11.3339 3.2071 10.0531 3.18862C8.77106 3.16737 7.50051 3.43298 6.33437 3.966C5.49361 4.35016 4.72423 4.87437 4.05906 5.51625C3.667 5.8965 3.76094 6.50175 4.2115 6.82012L6.637 8.5335C7.087 8.85187 7.7215 8.74894 8.18781 8.45194C8.30811 8.37563 8.43346 8.30759 8.563 8.24831C8.97703 8.05894 9.42624 7.95871 9.8815 7.95412L11.7901 5.75981C11.8879 5.64718 12.0265 5.57803 12.1754 5.56759C12.2491 5.56242 12.3231 5.57182 12.3931 5.59524C12.4632 5.61867 12.528 5.65567 12.5838 5.70412C12.6395 5.75258 12.6852 5.81155 12.7182 5.87766C12.7512 5.94377 12.7708 6.01573 12.776 6.08944C12.7811 6.16314 12.7717 6.23713 12.7483 6.3072C12.7249 6.37727 12.6879 6.44204 12.6394 6.49781L11.1589 8.19937C11.3595 8.28235 11.551 8.38564 11.7304 8.50762C12.1861 8.81869 12.8161 8.94075 13.2773 8.637L15.7619 7.00012L15.7624 7.00069Z" fill="#FCC21B"/>
</svg>
